<?xml version="1.0" encoding="UTF-8" standalone="no"?>
<!-- Generated by Graphviz version 2.20.2 (Tue Mar &#160;2 19:03:41 UTC 2010)
     For user: (jongman) JongMan Koo,,, -->

<!-- Title: g Pages: 1 -->

<svg
   xmlns:dc="http://purl.org/dc/elements/1.1/"
   xmlns:cc="http://creativecommons.org/ns#"
   xmlns:rdf="http://www.w3.org/1999/02/22-rdf-syntax-ns#"
   xmlns:svg="http://www.w3.org/2000/svg"
   xmlns="http://www.w3.org/2000/svg"
   xmlns:sodipodi="http://sodipodi.sourceforge.net/DTD/sodipodi-0.dtd"
   xmlns:inkscape="http://www.inkscape.org/namespaces/inkscape"
   width="454pt"
   height="351pt"
   viewBox="0.00 0.00 454.00 351.00"
   id="svg3554"
   version="1.1"
   inkscape:version="0.47 r22583"
   sodipodi:docname="first2b.svg">
  <metadata
     id="metadata3789">
    <rdf:RDF>
      <cc:Work
         rdf:about="">
        <dc:format>image/svg+xml</dc:format>
        <dc:type
           rdf:resource="http://purl.org/dc/dcmitype/StillImage" />
      </cc:Work>
    </rdf:RDF>
  </metadata>
  <defs
     id="defs3787">
    <inkscape:perspective
       sodipodi:type="inkscape:persp3d"
       inkscape:vp_x="0 : 219.375 : 1"
       inkscape:vp_y="0 : 1000 : 0"
       inkscape:vp_z="567.5 : 219.375 : 1"
       inkscape:persp3d-origin="283.75 : 146.25 : 1"
       id="perspective3791" />
  </defs>
  <sodipodi:namedview
     pagecolor="#ffffff"
     bordercolor="#666666"
     borderopacity="1"
     objecttolerance="10"
     gridtolerance="10"
     guidetolerance="10"
     inkscape:pageopacity="0"
     inkscape:pageshadow="2"
     inkscape:window-width="1912"
     inkscape:window-height="1136"
     id="namedview3785"
     showgrid="false"
     inkscape:zoom="0.76069379"
     inkscape:cx="326.84127"
     inkscape:cy="74.793986"
     inkscape:window-x="0"
     inkscape:window-y="26"
     inkscape:window-maximized="0"
     inkscape:current-layer="svg3554" />
  <polygon
     id="polygon3559"
     points="450,-347 450,4 -4,4 -4,4 -4,-347 "
     style="fill:#ffffff;stroke:#ffffff"
     transform="translate(4,347)" />
  <g
     class="node"
     id="node1"
     transform="translate(4,347)">
    <title
       id="title3562">n0a</title>
    <ellipse
       sodipodi:ry="18"
       sodipodi:rx="18"
       sodipodi:cy="-183"
       sodipodi:cx="19"
       d="m 37,-183 c 0,9.94113 -8.058875,18 -18,18 -9.9411255,0 -18,-8.05887 -18,-18 0,-9.94113 8.0588745,-18 18,-18 9.941125,0 18,8.05887 18,18 z"
       id="ellipse3564"
       ry="18"
       rx="18"
       cy="-183"
       cx="19"
       style="fill:none;stroke:#000000" />
    <text
       id="text3566"
       style="font-size:14px;text-anchor:middle;font-family:Times New Roman"
       y="-178.89999"
       x="19">0</text>
  </g>
  <g
     class="node"
     id="node3"
     transform="translate(4,347)">
    <title
       id="title3569">n1a</title>
    <ellipse
       sodipodi:ry="18"
       sodipodi:rx="18"
       sodipodi:cy="-173"
       sodipodi:cx="93"
       d="m 111,-173 c 0,9.94113 -8.05887,18 -18,18 -9.941125,0 -18,-8.05887 -18,-18 0,-9.94113 8.058875,-18 18,-18 9.94113,0 18,8.05887 18,18 z"
       id="ellipse3571"
       ry="18"
       rx="18"
       cy="-173"
       cx="93"
       style="fill:none;stroke:#000000" />
    <text
       id="text3573"
       style="font-size:14px;text-anchor:middle;font-family:Times New Roman"
       y="-168.89999"
       x="93">1</text>
  </g>
  <g
     class="edge"
     id="edge2"
     transform="translate(4,347)">
    <title
       id="title3576">n0a--n1a</title>
    <path
       id="path3578"
       d="m 37,-181 c 9,1 19,3 28,4"
       style="fill:none;stroke:#7f7f7f" />
    <polygon
       id="polygon3580"
       points="64.7013,-173.512 65.3979,-180.478 65.3979,-180.478 75,-176 "
       style="fill:#7f7f7f;stroke:#7f7f7f" />
    <text
       id="text3582"
       style="font-size:18px;text-anchor:middle;font-family:Times New Roman"
       y="-171.3"
       x="45">1</text>
  </g>
  <g
     class="node"
     id="node2"
     transform="translate(4,347)">
    <title
       id="title3585">n0b</title>
    <ellipse
       sodipodi:ry="18"
       sodipodi:rx="18"
       sodipodi:cy="-248"
       sodipodi:cx="298"
       d="m 316,-248 c 0,9.94113 -8.05887,18 -18,18 -9.94113,0 -18,-8.05887 -18,-18 0,-9.94113 8.05887,-18 18,-18 9.94113,0 18,8.05887 18,18 z"
       id="ellipse3587"
       ry="18"
       rx="18"
       cy="-248"
       cx="298"
       style="fill:#b3b3b3;stroke:#000000" />
    <text
       id="text3589"
       style="font-size:14px;text-anchor:middle;font-family:Times New Roman"
       y="-243.89999"
       x="298">0</text>
  </g>
  <g
     class="node"
     id="node4"
     transform="translate(4,347)">
    <title
       id="title3592">n1b</title>
    <ellipse
       sodipodi:ry="18"
       sodipodi:rx="18"
       sodipodi:cy="-235"
       sodipodi:cx="216"
       d="m 234,-235 c 0,9.94113 -8.05887,18 -18,18 -9.94113,0 -18,-8.05887 -18,-18 0,-9.94113 8.05887,-18 18,-18 9.94113,0 18,8.05887 18,18 z"
       id="ellipse3594"
       ry="18"
       rx="18"
       cy="-235"
       cx="216"
       style="fill:#b3b3b3;stroke:#000000" />
    <text
       id="text3596"
       style="font-size:14px;text-anchor:middle;font-family:Times New Roman"
       y="-230.89999"
       x="216">1</text>
  </g>
  <g
     class="edge"
     id="edge16"
     transform="translate(4,347)">
    <title
       id="title3599">n0b--n1b</title>
    <path
       id="path3601"
       d="m 280,-245 c -11,2 -24,4 -36,6"
       style="fill:none;stroke:#7f7f7f" />
    <polygon
       id="polygon3603"
       points="243.602,-242.478 244.299,-235.512 244.299,-235.512 234,-238 "
       style="fill:#7f7f7f;stroke:#7f7f7f" />
    <text
       id="text3605"
       style="font-size:18px;text-anchor:middle;font-family:Times New Roman"
       y="-243.3"
       x="270">1</text>
  </g>
  <g
     class="node"
     id="node10"
     transform="translate(4,347)">
    <title
       id="title3608">n4b</title>
    <ellipse
       sodipodi:ry="18"
       sodipodi:rx="18"
       sodipodi:cy="-163"
       sodipodi:cx="172"
       d="m 190,-163 c 0,9.94113 -8.05887,18 -18,18 -9.94113,0 -18,-8.05887 -18,-18 0,-9.94113 8.05887,-18 18,-18 9.94113,0 18,8.05887 18,18 z"
       id="ellipse3610"
       ry="18"
       rx="18"
       cy="-163"
       cx="172"
       style="fill:#b3b3b3;stroke:#000000" />
    <text
       id="text3612"
       style="font-size:14px;text-anchor:middle;font-family:Times New Roman"
       y="-158.89999"
       x="172">4</text>
  </g>
  <g
     class="edge"
     id="edge4"
     transform="translate(4,347)">
    <title
       id="title3615">n1a--n4b</title>
    <path
       id="path3617"
       d="m 111,-171 c 10,2 22,3 33,5"
       style="fill:none;stroke:#7f7f7f" />
    <polygon
       id="polygon3619"
       points="143.701,-162.512 144.398,-169.478 144.398,-169.478 154,-165 "
       style="fill:#7f7f7f;stroke:#7f7f7f" />
    <text
       id="text3621"
       style="font-size:18px;text-anchor:middle;font-family:Times New Roman"
       y="-160.3"
       x="119">1</text>
  </g>
  <g
     class="edge"
     id="edge18"
     transform="translate(4,347)">
    <title
       id="title3624">n1b--n4b</title>
    <path
       id="path3626"
       d="m 206,-219 c -5,9 -13,22 -19,32"
       style="fill:none;stroke:#7f7f7f" />
    <polygon
       id="polygon3628"
       points="183.797,-188.441 189.916,-185.042 189.916,-185.042 182,-178 "
       style="fill:#7f7f7f;stroke:#7f7f7f" />
    <text
       id="text3630"
       style="font-size:18px;text-anchor:middle;font-family:Times New Roman"
       y="-208.3"
       x="198">1</text>
  </g>
  <g
     class="node"
     id="node5"
     transform="translate(4,347)">
    <title
       id="title3633">n2a</title>
    <ellipse
       sodipodi:ry="18"
       sodipodi:rx="18"
       sodipodi:cy="-324"
       sodipodi:cx="319"
       d="m 337,-324 c 0,9.94113 -8.05887,18 -18,18 -9.94113,0 -18,-8.05887 -18,-18 0,-9.94113 8.05887,-18 18,-18 9.94113,0 18,8.05887 18,18 z"
       id="ellipse3635"
       ry="18"
       rx="18"
       cy="-324"
       cx="319"
       style="fill:none;stroke:#000000" />
    <text
       id="text3637"
       style="font-size:14px;text-anchor:middle;font-family:Times New Roman"
       y="-319.89999"
       x="319">2</text>
  </g>
  <g
     class="edge"
     id="edge6"
     transform="translate(4,347)">
    <title
       id="title3640">n2a--n0b</title>
    <path
       id="path3642"
       d="m 314,-306 c -2,9 -6,20 -8,30"
       style="fill:none;stroke:#7f7f7f" />
    <polygon
       id="polygon3644"
       points="302.521,-276.584 309.226,-274.573 309.226,-274.573 303,-266 "
       style="fill:#7f7f7f;stroke:#7f7f7f" />
    <text
       id="text3646"
       style="font-size:18px;text-anchor:middle;font-family:Times New Roman"
       y="-293.29999"
       x="308">1</text>
  </g>
  <g
     class="node"
     id="node6"
     transform="translate(4,347)">
    <title
       id="title3649">n2b</title>
    <ellipse
       sodipodi:ry="18"
       sodipodi:rx="18"
       sodipodi:cy="-178"
       sodipodi:cx="347"
       d="m 365,-178 c 0,9.94113 -8.05887,18 -18,18 -9.94113,0 -18,-8.05887 -18,-18 0,-9.94113 8.05887,-18 18,-18 9.94113,0 18,8.05887 18,18 z"
       id="ellipse3651"
       ry="18"
       rx="18"
       cy="-178"
       cx="347"
       style="fill:#b3b3b3;stroke:#000000" />
    <text
       id="text3653"
       style="font-size:14px;text-anchor:middle;font-family:Times New Roman"
       y="-173.89999"
       x="347">2</text>
  </g>
  <g
     class="edge"
     id="edge20"
     transform="translate(4,347)">
    <title
       id="title3656">n2b--n0b</title>
    <path
       id="path3658"
       d="m 337,-193 c -7,-9 -15,-21 -23,-32"
       style="fill:none;stroke:#7f7f7f" />
    <polygon
       id="polygon3660"
       points="316.8,-227.1 311.2,-222.9 311.2,-222.9 308,-233 "
       style="fill:#7f7f7f;stroke:#7f7f7f" />
    <text
       id="text3662"
       style="font-size:18px;text-anchor:middle;font-family:Times New Roman"
       y="-198.3"
       x="335">1</text>
  </g>
  <g
     class="node"
     id="node7"
     transform="translate(-113.78721,366.98176)">
    <title
       id="title3665">n3a</title>
    <ellipse
       sodipodi:ry="18"
       sodipodi:rx="18"
       sodipodi:cy="-317"
       sodipodi:cx="179"
       d="m 197,-317 c 0,9.94113 -8.05887,18 -18,18 -9.94113,0 -18,-8.05887 -18,-18 0,-9.94113 8.05887,-18 18,-18 9.94113,0 18,8.05887 18,18 z"
       id="ellipse3667"
       ry="18"
       rx="18"
       cy="-317"
       cx="179"
       style="fill:none;stroke:#000000" />
    <text
       id="text3669"
       style="font-size:14px;text-anchor:middle;font-family:Times New Roman"
       y="-312.89999"
       x="179">3</text>
  </g>
  <g
     class="node"
     id="node8"
     transform="translate(-113.78721,366.98176)">
    <title
       id="title3672">n3b</title>
    <ellipse
       sodipodi:ry="18"
       sodipodi:rx="18"
       sodipodi:cy="-307"
       sodipodi:cx="251"
       d="m 269,-307 c 0,9.94113 -8.05887,18 -18,18 -9.94113,0 -18,-8.05887 -18,-18 0,-9.94113 8.05887,-18 18,-18 9.94113,0 18,8.05887 18,18 z"
       id="ellipse3674"
       ry="18"
       rx="18"
       cy="-307"
       cx="251"
       style="fill:#b3b3b3;stroke:#000000" />
    <text
       id="text3676"
       style="font-size:14px;text-anchor:middle;font-family:Times New Roman"
       y="-302.89999"
       x="251">3</text>
  </g>
  <g
     class="edge"
     id="edge8"
     transform="translate(-113.78721,366.98176)">
    <title
       id="title3679">n3a--n3b</title>
    <path
       id="path3681"
       d="m 197,-314 c 8,1 17,2 26,3"
       style="fill:none;stroke:#7f7f7f" />
    <polygon
       id="polygon3683"
       points="223.398,-314.478 223.398,-314.478 233,-310 222.701,-307.512 "
       style="fill:#7f7f7f;stroke:#7f7f7f" />
    <text
       id="text3685"
       style="font-size:18px;text-anchor:middle;font-family:Times New Roman"
       y="-304.29999"
       x="205">1</text>
  </g>
  <g
     class="edge"
     id="edge22"
     transform="translate(-113.78721,366.98176)">
    <title
       id="title3688">n3b--n3b</title>
    <path
       id="path3690"
       d="m 268,-313 c 10,-2 19,0 19,6 0,4 -4,6 -9,7"
       style="fill:none;stroke:#7f7f7f" />
    <polygon
       id="polygon3692"
       points="277.602,-296.522 277.602,-296.522 268,-301 278.299,-303.488 "
       style="fill:#7f7f7f;stroke:#7f7f7f" />
    <text
       id="text3694"
       style="font-size:18px;text-anchor:middle;font-family:Times New Roman"
       y="-305.29999"
       x="278">1</text>
  </g>
  <g
     class="node"
     id="node9"
     transform="translate(4,347)">
    <title
       id="title3697">n4a</title>
    <ellipse
       sodipodi:ry="18"
       sodipodi:rx="18"
       sodipodi:cy="-19"
       sodipodi:cx="192"
       d="m 210,-19 c 0,9.9411255 -8.05887,18 -18,18 -9.94113,0 -18,-8.0588745 -18,-18 0,-9.941125 8.05887,-18 18,-18 9.94113,0 18,8.058875 18,18 z"
       id="ellipse3699"
       ry="18"
       rx="18"
       cy="-19"
       cx="192"
       style="fill:none;stroke:#000000" />
    <text
       id="text3701"
       style="font-size:14px;text-anchor:middle;font-family:Times New Roman"
       y="-14.9"
       x="192">4</text>
  </g>
  <g
     class="node"
     id="node14"
     transform="translate(4,347)">
    <title
       id="title3704">n6b</title>
    <ellipse
       sodipodi:ry="18"
       sodipodi:rx="18"
       sodipodi:cy="-94"
       sodipodi:cx="221"
       d="m 239,-94 c 0,9.941125 -8.05887,18 -18,18 -9.94113,0 -18,-8.058875 -18,-18 0,-9.94113 8.05887,-18 18,-18 9.94113,0 18,8.05887 18,18 z"
       id="ellipse3706"
       ry="18"
       rx="18"
       cy="-94"
       cx="221"
       style="fill:#b3b3b3;stroke:#000000" />
    <text
       id="text3708"
       style="font-size:14px;text-anchor:middle;font-family:Times New Roman"
       y="-89.900002"
       x="221">6</text>
  </g>
  <g
     class="edge"
     id="edge10"
     transform="translate(4,347)">
    <title
       id="title3711">n4a--n6b</title>
    <path
       id="path3713"
       d="m 199,-36 c 3,-9 8,-21 12,-32"
       style="fill:none;stroke:#7f7f7f" />
    <polygon
       id="polygon3715"
       points="214.158,-66.4063 207.517,-68.62 207.517,-68.62 214,-77 "
       style="fill:#7f7f7f;stroke:#7f7f7f" />
    <text
       id="text3717"
       style="font-size:18px;text-anchor:middle;font-family:Times New Roman"
       y="-38.299999"
       x="206">1</text>
  </g>
  <g
     class="edge"
     id="edge24"
     transform="translate(4,347)">
    <title
       id="title3720">n4b--n6b</title>
    <path
       id="path3722"
       d="m 183,-148 c 6,9 14,20 21,31"
       style="fill:none;stroke:#7f7f7f" />
    <polygon
       id="polygon3724"
       points="201.2,-114.9 206.8,-119.1 206.8,-119.1 210,-109 "
       style="fill:#7f7f7f;stroke:#7f7f7f" />
    <text
       id="text3726"
       style="font-size:18px;text-anchor:middle;font-family:Times New Roman"
       y="-133.3"
       x="185">1</text>
  </g>
  <g
     class="node"
     id="node11"
     transform="translate(4,347)">
    <title
       id="title3729">n5a</title>
    <ellipse
       sodipodi:ry="18"
       sodipodi:rx="18"
       sodipodi:cy="-187"
       sodipodi:cx="427"
       d="m 445,-187 c 0,9.94113 -8.05887,18 -18,18 -9.94113,0 -18,-8.05887 -18,-18 0,-9.94113 8.05887,-18 18,-18 9.94113,0 18,8.05887 18,18 z"
       id="ellipse3731"
       ry="18"
       rx="18"
       cy="-187"
       cx="427"
       style="fill:none;stroke:#000000" />
    <text
       id="text3733"
       style="font-size:14px;text-anchor:middle;font-family:Times New Roman"
       y="-182.89999"
       x="427">5</text>
  </g>
  <g
     class="edge"
     id="edge12"
     transform="translate(4,347)">
    <title
       id="title3736">n5a--n2b</title>
    <path
       id="path3738"
       d="m 409,-185 c -10,2 -23,3 -34,4"
       style="fill:none;stroke:#7f7f7f" />
    <polygon
       id="polygon3740"
       points="374.602,-184.478 375.299,-177.512 375.299,-177.512 365,-180 "
       style="fill:#7f7f7f;stroke:#7f7f7f" />
    <text
       id="text3742"
       style="font-size:18px;text-anchor:middle;font-family:Times New Roman"
       y="-183.3"
       x="399">1</text>
  </g>
  <g
     class="node"
     id="node12"
     transform="translate(4,347)">
    <title
       id="title3745">n5b</title>
    <ellipse
       sodipodi:ry="18"
       sodipodi:rx="18"
       sodipodi:cy="-103"
       sodipodi:cx="306"
       d="m 324,-103 c 0,9.941125 -8.05887,18 -18,18 -9.94113,0 -18,-8.058875 -18,-18 0,-9.94113 8.05887,-18 18,-18 9.94113,0 18,8.05887 18,18 z"
       id="ellipse3747"
       ry="18"
       rx="18"
       cy="-103"
       cx="306"
       style="fill:#b3b3b3;stroke:#000000" />
    <text
       id="text3749"
       style="font-size:14px;text-anchor:middle;font-family:Times New Roman"
       y="-98.900002"
       x="306">5</text>
  </g>
  <g
     class="edge"
     id="edge26"
     transform="translate(4,347)">
    <title
       id="title3752">n5b--n2b</title>
    <path
       id="path3754"
       d="m 315,-119 c 5,-10 13,-23 19,-34"
       style="fill:none;stroke:#7f7f7f" />
    <polygon
       id="polygon3756"
       points="337.137,-151.44 330.74,-154.283 330.74,-154.283 338,-162 "
       style="fill:#7f7f7f;stroke:#7f7f7f" />
    <text
       id="text3758"
       style="font-size:18px;text-anchor:middle;font-family:Times New Roman"
       y="-120.3"
       x="323">1</text>
  </g>
  <g
     class="node"
     id="node13"
     transform="translate(4,347)">
    <title
       id="title3761">n6a</title>
    <ellipse
       sodipodi:ry="18"
       sodipodi:rx="18"
       sodipodi:cy="-37"
       sodipodi:cx="352"
       d="m 370,-37 c 0,9.941125 -8.05887,18 -18,18 -9.94113,0 -18,-8.058875 -18,-18 0,-9.941125 8.05887,-18 18,-18 9.94113,0 18,8.058875 18,18 z"
       id="ellipse3763"
       ry="18"
       rx="18"
       cy="-37"
       cx="352"
       style="fill:none;stroke:#000000" />
    <text
       id="text3765"
       style="font-size:14px;text-anchor:middle;font-family:Times New Roman"
       y="-32.900002"
       x="352">6</text>
  </g>
  <g
     class="edge"
     id="edge14"
     transform="translate(4,347)">
    <title
       id="title3768">n6a--n5b</title>
    <path
       id="path3770"
       d="m 342,-52 c -6,-8 -13,-19 -20,-28"
       style="fill:none;stroke:#7f7f7f" />
    <polygon
       id="polygon3772"
       points="324.8,-82.1 319.2,-77.9 319.2,-77.9 316,-88 "
       style="fill:#7f7f7f;stroke:#7f7f7f" />
    <text
       id="text3774"
       style="font-size:18px;text-anchor:middle;font-family:Times New Roman"
       y="-57.299999"
       x="340">1</text>
  </g>
  <g
     class="edge"
     id="edge28"
     transform="translate(4,347)">
    <title
       id="title3777">n6b--n5b</title>
    <path
       id="path3779"
       d="m 239,-96 c 11,-2 26,-3 39,-4"
       style="fill:none;stroke:#7f7f7f" />
    <polygon
       id="polygon3781"
       points="278.398,-96.5222 277.701,-103.488 277.701,-103.488 288,-101 "
       style="fill:#7f7f7f;stroke:#7f7f7f" />
    <text
       id="text3783"
       style="font-size:18px;text-anchor:middle;font-family:Times New Roman"
       y="-88.300003"
       x="249">1</text>
  </g>
</svg>
