<?xml version="1.0" encoding="UTF-8" standalone="no"?>
<!DOCTYPE svg PUBLIC "-//W3C//DTD SVG 1.0//EN"
 "http://www.w3.org/TR/2001/REC-SVG-20010904/DTD/svg10.dtd" [
 <!ATTLIST svg xmlns:xlink CDATA #FIXED "http://www.w3.org/1999/xlink">
]>
<!-- Generated by Graphviz version 2.20.2 (Tue Mar &#160;2 19:03:41 UTC 2010)
     For user: (jongman) JongMan Koo,,, -->
<!-- Title: g Pages: 1 -->
<svg width="454pt" height="351pt"
 viewBox="0.00 0.00 454.00 351.00" xmlns="http://www.w3.org/2000/svg" xmlns:xlink="http://www.w3.org/1999/xlink">
<g id="graph0" class="graph" transform="scale(1 1) rotate(0) translate(4 347)">
<title>g</title>
<polygon style="fill:white;stroke:white;" points="-4,4 -4,-347 450,-347 450,4 -4,4"/>
<!-- n0a -->
<g id="node1" class="node"><title>n0a</title>
<ellipse style="fill:none;stroke:black;" cx="19" cy="-183" rx="18" ry="18"/>
<text text-anchor="middle" x="19" y="-178.9" style="font-family:Times New Roman;font-size:14.00;">0</text>
</g>
<!-- n1a -->
<g id="node3" class="node"><title>n1a</title>
<ellipse style="fill:none;stroke:black;" cx="93" cy="-173" rx="18" ry="18"/>
<text text-anchor="middle" x="93" y="-168.9" style="font-family:Times New Roman;font-size:14.00;">1</text>
</g>
<!-- n0a&#45;&#45;n1a -->
<g id="edge2" class="edge"><title>n0a&#45;&#45;n1a</title>
<path style="fill:none;stroke:#7f7f7f;" d="M37,-181C46,-180 56,-178 65,-177"/>
<polygon style="fill:#7f7f7f;stroke:#7f7f7f;" points="65.3979,-180.478 75,-176 64.7013,-173.512 65.3979,-180.478"/>
<text text-anchor="middle" x="45" y="-171.3" style="font-family:Times New Roman;font-size:18.00;">1</text>
</g>
<!-- n0b -->
<g id="node2" class="node"><title>n0b</title>
<ellipse style="fill:#b3b3b3;stroke:black;" cx="298" cy="-248" rx="18" ry="18"/>
<text text-anchor="middle" x="298" y="-243.9" style="font-family:Times New Roman;font-size:14.00;">0</text>
</g>
<!-- n1b -->
<g id="node4" class="node"><title>n1b</title>
<ellipse style="fill:#b3b3b3;stroke:black;" cx="216" cy="-235" rx="18" ry="18"/>
<text text-anchor="middle" x="216" y="-230.9" style="font-family:Times New Roman;font-size:14.00;">1</text>
</g>
<!-- n0b&#45;&#45;n1b -->
<g id="edge16" class="edge"><title>n0b&#45;&#45;n1b</title>
<path style="fill:none;stroke:#7f7f7f;" d="M280,-245C269,-243 256,-241 244,-239"/>
<polygon style="fill:#7f7f7f;stroke:#7f7f7f;" points="244.299,-235.512 234,-238 243.602,-242.478 244.299,-235.512"/>
<text text-anchor="middle" x="270" y="-243.3" style="font-family:Times New Roman;font-size:18.00;">1</text>
</g>
<!-- n4b -->
<g id="node10" class="node"><title>n4b</title>
<ellipse style="fill:#b3b3b3;stroke:black;" cx="172" cy="-163" rx="18" ry="18"/>
<text text-anchor="middle" x="172" y="-158.9" style="font-family:Times New Roman;font-size:14.00;">4</text>
</g>
<!-- n1a&#45;&#45;n4b -->
<g id="edge4" class="edge"><title>n1a&#45;&#45;n4b</title>
<path style="fill:none;stroke:#7f7f7f;" d="M111,-171C121,-169 133,-168 144,-166"/>
<polygon style="fill:#7f7f7f;stroke:#7f7f7f;" points="144.398,-169.478 154,-165 143.701,-162.512 144.398,-169.478"/>
<text text-anchor="middle" x="119" y="-160.3" style="font-family:Times New Roman;font-size:18.00;">1</text>
</g>
<!-- n1b&#45;&#45;n4b -->
<g id="edge18" class="edge"><title>n1b&#45;&#45;n4b</title>
<path style="fill:none;stroke:#7f7f7f;" d="M206,-219C201,-210 193,-197 187,-187"/>
<polygon style="fill:#7f7f7f;stroke:#7f7f7f;" points="189.916,-185.042 182,-178 183.797,-188.441 189.916,-185.042"/>
<text text-anchor="middle" x="198" y="-208.3" style="font-family:Times New Roman;font-size:18.00;">1</text>
</g>
<!-- n2a -->
<g id="node5" class="node"><title>n2a</title>
<ellipse style="fill:none;stroke:black;" cx="319" cy="-324" rx="18" ry="18"/>
<text text-anchor="middle" x="319" y="-319.9" style="font-family:Times New Roman;font-size:14.00;">2</text>
</g>
<!-- n2a&#45;&#45;n0b -->
<g id="edge6" class="edge"><title>n2a&#45;&#45;n0b</title>
<path style="fill:none;stroke:#7f7f7f;" d="M314,-306C312,-297 308,-286 306,-276"/>
<polygon style="fill:#7f7f7f;stroke:#7f7f7f;" points="309.226,-274.573 303,-266 302.521,-276.584 309.226,-274.573"/>
<text text-anchor="middle" x="308" y="-293.3" style="font-family:Times New Roman;font-size:18.00;">1</text>
</g>
<!-- n2b -->
<g id="node6" class="node"><title>n2b</title>
<ellipse style="fill:#b3b3b3;stroke:black;" cx="347" cy="-178" rx="18" ry="18"/>
<text text-anchor="middle" x="347" y="-173.9" style="font-family:Times New Roman;font-size:14.00;">2</text>
</g>
<!-- n2b&#45;&#45;n0b -->
<g id="edge20" class="edge"><title>n2b&#45;&#45;n0b</title>
<path style="fill:none;stroke:#7f7f7f;" d="M337,-193C330,-202 322,-214 314,-225"/>
<polygon style="fill:#7f7f7f;stroke:#7f7f7f;" points="311.2,-222.9 308,-233 316.8,-227.1 311.2,-222.9"/>
<text text-anchor="middle" x="335" y="-198.3" style="font-family:Times New Roman;font-size:18.00;">1</text>
</g>
<!-- n3a -->
<g id="node7" class="node"><title>n3a</title>
<ellipse style="fill:none;stroke:black;" cx="179" cy="-317" rx="18" ry="18"/>
<text text-anchor="middle" x="179" y="-312.9" style="font-family:Times New Roman;font-size:14.00;">3</text>
</g>
<!-- n3b -->
<g id="node8" class="node"><title>n3b</title>
<ellipse style="fill:#b3b3b3;stroke:black;" cx="251" cy="-307" rx="18" ry="18"/>
<text text-anchor="middle" x="251" y="-302.9" style="font-family:Times New Roman;font-size:14.00;">3</text>
</g>
<!-- n3a&#45;&#45;n3b -->
<g id="edge8" class="edge"><title>n3a&#45;&#45;n3b</title>
<path style="fill:none;stroke:#7f7f7f;" d="M197,-314C205,-313 214,-312 223,-311"/>
<polygon style="fill:#7f7f7f;stroke:#7f7f7f;" points="223.398,-314.478 233,-310 222.701,-307.512 223.398,-314.478"/>
<text text-anchor="middle" x="205" y="-304.3" style="font-family:Times New Roman;font-size:18.00;">1</text>
</g>
<!-- n3b&#45;&#45;n3b -->
<g id="edge22" class="edge"><title>n3b&#45;&#45;n3b</title>
<path style="fill:none;stroke:#7f7f7f;" d="M268,-313C278,-315 287,-313 287,-307 287,-303 283,-301 278,-300"/>
<polygon style="fill:#7f7f7f;stroke:#7f7f7f;" points="277.602,-296.522 268,-301 278.299,-303.488 277.602,-296.522"/>
<text text-anchor="middle" x="278" y="-305.3" style="font-family:Times New Roman;font-size:18.00;">1</text>
</g>
<!-- n4a -->
<g id="node9" class="node"><title>n4a</title>
<ellipse style="fill:none;stroke:black;" cx="192" cy="-19" rx="18" ry="18"/>
<text text-anchor="middle" x="192" y="-14.9" style="font-family:Times New Roman;font-size:14.00;">4</text>
</g>
<!-- n6b -->
<g id="node14" class="node"><title>n6b</title>
<ellipse style="fill:#b3b3b3;stroke:black;" cx="221" cy="-94" rx="18" ry="18"/>
<text text-anchor="middle" x="221" y="-89.9" style="font-family:Times New Roman;font-size:14.00;">6</text>
</g>
<!-- n4a&#45;&#45;n6b -->
<g id="edge10" class="edge"><title>n4a&#45;&#45;n6b</title>
<path style="fill:none;stroke:#7f7f7f;" d="M199,-36C202,-45 207,-57 211,-68"/>
<polygon style="fill:#7f7f7f;stroke:#7f7f7f;" points="207.517,-68.62 214,-77 214.158,-66.4063 207.517,-68.62"/>
<text text-anchor="middle" x="206" y="-38.3" style="font-family:Times New Roman;font-size:18.00;">1</text>
</g>
<!-- n4b&#45;&#45;n6b -->
<g id="edge24" class="edge"><title>n4b&#45;&#45;n6b</title>
<path style="fill:none;stroke:#7f7f7f;" d="M183,-148C189,-139 197,-128 204,-117"/>
<polygon style="fill:#7f7f7f;stroke:#7f7f7f;" points="206.8,-119.1 210,-109 201.2,-114.9 206.8,-119.1"/>
<text text-anchor="middle" x="185" y="-133.3" style="font-family:Times New Roman;font-size:18.00;">1</text>
</g>
<!-- n5a -->
<g id="node11" class="node"><title>n5a</title>
<ellipse style="fill:none;stroke:black;" cx="427" cy="-187" rx="18" ry="18"/>
<text text-anchor="middle" x="427" y="-182.9" style="font-family:Times New Roman;font-size:14.00;">5</text>
</g>
<!-- n5a&#45;&#45;n2b -->
<g id="edge12" class="edge"><title>n5a&#45;&#45;n2b</title>
<path style="fill:none;stroke:#7f7f7f;" d="M409,-185C399,-183 386,-182 375,-181"/>
<polygon style="fill:#7f7f7f;stroke:#7f7f7f;" points="375.299,-177.512 365,-180 374.602,-184.478 375.299,-177.512"/>
<text text-anchor="middle" x="399" y="-183.3" style="font-family:Times New Roman;font-size:18.00;">1</text>
</g>
<!-- n5b -->
<g id="node12" class="node"><title>n5b</title>
<ellipse style="fill:#b3b3b3;stroke:black;" cx="306" cy="-103" rx="18" ry="18"/>
<text text-anchor="middle" x="306" y="-98.9" style="font-family:Times New Roman;font-size:14.00;">5</text>
</g>
<!-- n5b&#45;&#45;n2b -->
<g id="edge26" class="edge"><title>n5b&#45;&#45;n2b</title>
<path style="fill:none;stroke:#7f7f7f;" d="M315,-119C320,-129 328,-142 334,-153"/>
<polygon style="fill:#7f7f7f;stroke:#7f7f7f;" points="330.74,-154.283 338,-162 337.137,-151.44 330.74,-154.283"/>
<text text-anchor="middle" x="323" y="-120.3" style="font-family:Times New Roman;font-size:18.00;">1</text>
</g>
<!-- n6a -->
<g id="node13" class="node"><title>n6a</title>
<ellipse style="fill:none;stroke:black;" cx="352" cy="-37" rx="18" ry="18"/>
<text text-anchor="middle" x="352" y="-32.9" style="font-family:Times New Roman;font-size:14.00;">6</text>
</g>
<!-- n6a&#45;&#45;n5b -->
<g id="edge14" class="edge"><title>n6a&#45;&#45;n5b</title>
<path style="fill:none;stroke:#7f7f7f;" d="M342,-52C336,-60 329,-71 322,-80"/>
<polygon style="fill:#7f7f7f;stroke:#7f7f7f;" points="319.2,-77.9 316,-88 324.8,-82.1 319.2,-77.9"/>
<text text-anchor="middle" x="340" y="-57.3" style="font-family:Times New Roman;font-size:18.00;">1</text>
</g>
<!-- n6b&#45;&#45;n5b -->
<g id="edge28" class="edge"><title>n6b&#45;&#45;n5b</title>
<path style="fill:none;stroke:#7f7f7f;" d="M239,-96C250,-98 265,-99 278,-100"/>
<polygon style="fill:#7f7f7f;stroke:#7f7f7f;" points="277.701,-103.488 288,-101 278.398,-96.5222 277.701,-103.488"/>
<text text-anchor="middle" x="249" y="-88.3" style="font-family:Times New Roman;font-size:18.00;">1</text>
</g>
</g>
</svg>
