<?xml version="1.0" encoding="UTF-8" standalone="no"?>
<!DOCTYPE svg PUBLIC "-//W3C//DTD SVG 1.0//EN"
 "http://www.w3.org/TR/2001/REC-SVG-20010904/DTD/svg10.dtd" [
 <!ATTLIST svg xmlns:xlink CDATA #FIXED "http://www.w3.org/1999/xlink">
]>
<!-- Generated by Graphviz version 2.20.2 (Tue Mar &#160;2 19:03:41 UTC 2010)
     For user: (jongman) JongMan Koo,,, -->
<!-- Title: g Pages: 1 -->
<svg width="206pt" height="190pt"
 viewBox="0.00 0.00 206.00 190.00" xmlns="http://www.w3.org/2000/svg" xmlns:xlink="http://www.w3.org/1999/xlink">
<g id="graph0" class="graph" transform="scale(1 1) rotate(0) translate(4 186)">
<title>g</title>
<polygon style="fill:white;stroke:white;" points="-4,4 -4,-186 202,-186 202,4 -4,4"/>
<!-- 0 -->
<g id="node1" class="node"><title>0</title>
<ellipse style="fill:none;stroke:black;" cx="19" cy="-85" rx="18" ry="18"/>
<text text-anchor="middle" x="19" y="-80.9" style="font-family:Times New Roman;font-size:14.00;">0</text>
</g>
<!-- 1 -->
<g id="node3" class="node"><title>1</title>
<ellipse style="fill:none;stroke:black;" cx="64" cy="-19" rx="18" ry="18"/>
<text text-anchor="middle" x="64" y="-14.9" style="font-family:Times New Roman;font-size:14.00;">1</text>
</g>
<!-- 0&#45;&#45;1 -->
<g id="edge2" class="edge"><title>0&#45;&#45;1</title>
<path style="fill:none;stroke:#7f7f7f;" d="M29,-70C34,-62 41,-51 48,-42"/>
<polygon style="fill:#7f7f7f;stroke:#7f7f7f;" points="50.8,-44.1 54,-34 45.2,-39.9 50.8,-44.1"/>
<text text-anchor="middle" x="30" y="-55.3" style="font-family:Times New Roman;font-size:18.00;">1</text>
</g>
<!-- 4 -->
<g id="node5" class="node"><title>4</title>
<ellipse style="fill:none;stroke:black;" cx="144" cy="-24" rx="18" ry="18"/>
<text text-anchor="middle" x="144" y="-19.9" style="font-family:Times New Roman;font-size:14.00;">4</text>
</g>
<!-- 1&#45;&#45;4 -->
<g id="edge4" class="edge"><title>1&#45;&#45;4</title>
<path style="fill:none;stroke:#7f7f7f;" d="M82,-20C92,-21 105,-22 116,-22"/>
<polygon style="fill:#7f7f7f;stroke:#7f7f7f;" points="115.701,-25.4875 126,-23 116.398,-18.5222 115.701,-25.4875"/>
<text text-anchor="middle" x="91" y="-12.3" style="font-family:Times New Roman;font-size:18.00;">1</text>
</g>
<!-- 6 -->
<g id="node11" class="node"><title>6</title>
<ellipse style="fill:none;stroke:black;" cx="179" cy="-97" rx="18" ry="18"/>
<text text-anchor="middle" x="179" y="-92.9" style="font-family:Times New Roman;font-size:14.00;">6</text>
</g>
<!-- 4&#45;&#45;6 -->
<g id="edge10" class="edge"><title>4&#45;&#45;6</title>
<path style="fill:none;stroke:#7f7f7f;" d="M152,-41C157,-50 162,-61 166,-72"/>
<polygon style="fill:#7f7f7f;stroke:#7f7f7f;" points="163.084,-73.9582 171,-81 169.203,-70.5586 163.084,-73.9582"/>
<text text-anchor="middle" x="160" y="-42.3" style="font-family:Times New Roman;font-size:18.00;">1</text>
</g>
<!-- 2 -->
<g id="node6" class="node"><title>2</title>
<ellipse style="fill:none;stroke:black;" cx="54" cy="-157" rx="18" ry="18"/>
<text text-anchor="middle" x="54" y="-152.9" style="font-family:Times New Roman;font-size:14.00;">2</text>
</g>
<!-- 2&#45;&#45;0 -->
<g id="edge6" class="edge"><title>2&#45;&#45;0</title>
<path style="fill:none;stroke:#7f7f7f;" d="M46,-141C41,-132 36,-121 32,-110"/>
<polygon style="fill:#7f7f7f;stroke:#7f7f7f;" points="34.916,-108.042 27,-101 28.7969,-111.441 34.916,-108.042"/>
<text text-anchor="middle" x="38" y="-130.3" style="font-family:Times New Roman;font-size:18.00;">1</text>
</g>
<!-- 3 -->
<g id="node8" class="node"><title>3</title>
<ellipse style="fill:none;stroke:black;" cx="115" cy="-99" rx="18" ry="18"/>
<text text-anchor="middle" x="115" y="-94.9" style="font-family:Times New Roman;font-size:14.00;">3</text>
</g>
<!-- 3&#45;&#45;3 -->
<g id="edge8" class="edge"><title>3&#45;&#45;3</title>
<path style="fill:none;stroke:#7f7f7f;" d="M132,-105C142,-107 151,-105 151,-99 151,-95 147,-93 142,-92"/>
<polygon style="fill:#7f7f7f;stroke:#7f7f7f;" points="141.602,-88.5222 132,-93 142.299,-95.4875 141.602,-88.5222"/>
<text text-anchor="middle" x="142" y="-97.3" style="font-family:Times New Roman;font-size:18.00;">1</text>
</g>
<!-- 5 -->
<g id="node12" class="node"><title>5</title>
<ellipse style="fill:none;stroke:black;" cx="134" cy="-163" rx="18" ry="18"/>
<text text-anchor="middle" x="134" y="-158.9" style="font-family:Times New Roman;font-size:14.00;">5</text>
</g>
<!-- 6&#45;&#45;5 -->
<g id="edge14" class="edge"><title>6&#45;&#45;5</title>
<path style="fill:none;stroke:#7f7f7f;" d="M169,-112C164,-120 157,-131 150,-140"/>
<polygon style="fill:#7f7f7f;stroke:#7f7f7f;" points="147.2,-137.9 144,-148 152.8,-142.1 147.2,-137.9"/>
<text text-anchor="middle" x="168" y="-117.3" style="font-family:Times New Roman;font-size:18.00;">1</text>
</g>
<!-- 5&#45;&#45;2 -->
<g id="edge12" class="edge"><title>5&#45;&#45;2</title>
<path style="fill:none;stroke:#7f7f7f;" d="M116,-162C106,-161 93,-160 82,-159"/>
<polygon style="fill:#7f7f7f;stroke:#7f7f7f;" points="82.2987,-155.512 72,-158 81.6021,-162.478 82.2987,-155.512"/>
<text text-anchor="middle" x="107" y="-160.3" style="font-family:Times New Roman;font-size:18.00;">1</text>
</g>
</g>
</svg>
