<?xml version="1.0" standalone="no"?>
<!DOCTYPE svg PUBLIC "-//W3C//DTD SVG 1.1//EN"
  "http://www.w3.org/Graphics/SVG/1.1/DTD/svg11.dtd">
<!-- Created with matplotlib (http://matplotlib.sourceforge.net/) -->
<svg width="488pt" height="493pt" viewBox="0 0 488 493"
   xmlns="http://www.w3.org/2000/svg"
   xmlns:xlink="http://www.w3.org/1999/xlink"
   version="1.1"
   id="svg1">
<g id="figure1">
<g id="patch1">
<path style="fill: #ffffff; stroke: #ffffff; stroke-width: 1.000000; stroke-linejoin: round; stroke-linecap: square;  opacity: 1.000000"  d="M0.000000 493.200000L488.700000 493.200000L488.700000 0.000000
L0.000000 0.000000L0.000000 493.200000"/>
</g>
<g id="axes1">
<g id="line2d1">
<defs>
  <clipPath id="pd335400e90036c64980016f4d90ac5ff">
<rect x="24.554621" y="0.000000" width="439.590758" height="493.200000"/>
  </clipPath>
</defs><path style="fill: none; stroke: #000000; stroke-width: 2.000000; stroke-linejoin: round; stroke-linecap: square;  opacity: 1.000000" clip-path="url(#pd335400e90036c64980016f4d90ac5ff)" d="M406.955819 244.330453L406.638940 233.770999L405.689445 223.249547
L404.110749 212.803963L401.908535 202.471841L399.090729 192.290364
L395.791210 182.625916L391.579196 172.364488L386.729495 162.388599
L381.261350 152.737829L375.196457 143.450470L368.668577 134.701126
L361.374952 126.111794L353.420531 117.883896L345.082555 110.304203
L336.276880 103.273294L326.892004 96.723852L317.408424 90.970619
L307.581444 85.825870L297.450055 81.310018L287.054454 77.440980
L276.945972 74.371603L266.671627 71.913894L256.268397 70.076698
L245.773721 68.866627L235.225369 68.288037L224.661303 68.343010
L214.119544 69.031347L203.638030 70.350572L193.254483 72.295936
L183.006272 74.860439L172.764014 78.092863L162.413224 82.080233
L152.334007 86.711361L142.566353 91.967872L133.149018 97.828910
L124.680456 103.845383L115.912929 110.923804L107.616060 118.548472
L99.706247 126.819262L92.459174 135.447907L86.078870 144.087592
L80.054968 153.401590L74.629411 163.076366L69.823724 173.073533
L65.656977 183.353426L62.095329 194.043994L59.383636 204.254245
L57.289069 214.608726L55.819168 225.070174L54.979222 235.600938
L54.772254 246.163118L55.199010 256.718703L56.257953 267.229704
L57.945272 277.658292L60.254894 287.966936L63.178508 298.118536
L66.705592 308.076556L71.044596 318.284936L76.017694 328.199887
L81.605155 337.782071L87.784810 346.993468L94.643675 355.933801
L102.060289 364.417164L110.132422 372.529609L118.578732 379.988392
L127.484786 386.891709L136.665284 393.117175L146.219514 398.752302
L156.109569 403.774731L166.296206 408.164535L176.403971 411.795721
L186.543849 414.759731L196.843216 417.110381L207.265003 418.839209
L217.771704 419.939994L228.325506 420.408775L238.888427 420.243863
L249.422452 419.445854L259.889669 418.017618L270.252408 415.964295
L280.473375 413.293277L291.012566 409.834459L301.313087 405.718974
L311.334070 400.963149L321.035755 395.585855L330.379647 389.608427
L339.051008 383.271242L347.715648 376.067243L356.025739 368.198730
L363.691644 359.939947L370.813654 351.207790L376.970605 342.623243
L382.869093 333.229319L388.164454 323.482673L392.835677 313.421975
L396.864228 303.087143L400.185850 292.688534L402.780898 282.448015
L404.757213 272.070315L406.107684 261.592780L406.827450 251.053120
L406.955399 244.715278L406.955399 244.715278"/>
</g>
<g id="line2d2">
<path style="fill: none; stroke: #000000; stroke-width: 1.000000; stroke-linejoin: round; stroke-linecap: butt; stroke-dasharray: 6.000000,6.000000; stroke-dashoffset: 0.000000; opacity: 1.000000" clip-path="url(#pd335400e90036c64980016f4d90ac5ff)" d="M107.454748 103.693682L99.776652 110.821184L92.509524 118.367263
L85.087853 127.035646L77.992355 136.445866L71.503386 146.284138
L65.646690 156.511428L60.522835 166.916780L56.187315 177.270138
L52.480425 187.864841L49.415506 198.662759L47.003589 209.625031
L45.253353 220.712205L44.171099 231.884379L43.760721 243.101346
L44.023695 254.322736L44.959075 265.508165L46.563496 276.617377
L48.831182 287.610391L51.753972 298.447644L55.321349 309.090133
L59.520472 319.499558L64.336230 329.638455L70.037435 339.953230
L76.376732 349.888604L83.328966 359.405156L90.247634 367.763616
L97.376700 375.440260L104.924258 382.705851L113.594153 390.125755
L123.005818 397.219337L132.845412 403.706302L143.073894 409.560915
L153.480290 414.682650L163.834531 419.016062L174.429988 422.720794
L185.228530 425.783514L196.191293 428.193198L207.278823 429.941175
L212.856920 430.564964L212.856920 430.564964"/>
</g>
<g id="line2d3">
<path style="fill: none; stroke: #000000; stroke-width: 1.000000; stroke-linejoin: round; stroke-linecap: square;  opacity: 1.000000" clip-path="url(#pd335400e90036c64980016f4d90ac5ff)" d="M108.906566 105.348232L106.002930 102.039131"/>
</g>
<g id="line2d4">
<path style="fill: none; stroke: #000000; stroke-width: 1.000000; stroke-linejoin: round; stroke-linecap: square;  opacity: 1.000000" clip-path="url(#pd335400e90036c64980016f4d90ac5ff)" d="M213.889159 428.451433L213.485109 432.835266"/>
</g>
<g id="line2d5">
<path style="fill: none; stroke: #000000; stroke-width: 1.000000; stroke-linejoin: round; stroke-linecap: butt; stroke-dasharray: 6.000000,6.000000; stroke-dashoffset: 0.000000; opacity: 1.000000" clip-path="url(#pd335400e90036c64980016f4d90ac5ff)" d="M209.608382 58.438611L198.499802 60.047404L187.507682 62.319417
L176.671580 65.246474L166.030496 68.818039L155.622725 73.021260
L145.485725 77.841008L139.712070 80.930437L139.712070 80.930437"/>
</g>
<g id="line2d6">
<path style="fill: none; stroke: #000000; stroke-width: 1.000000; stroke-linejoin: round; stroke-linecap: square;  opacity: 1.000000" clip-path="url(#pd335400e90036c64980016f4d90ac5ff)" d="M209.858392 60.625574L209.358371 56.251648"/>
</g>
<g id="line2d7">
<path style="fill: none; stroke: #000000; stroke-width: 1.000000; stroke-linejoin: round; stroke-linecap: square;  opacity: 1.000000" clip-path="url(#pd335400e90036c64980016f4d90ac5ff)" d="M139.870315 83.366079L137.703911 79.533593"/>
</g>
<g id="line2d8">
<path style="fill: none; stroke: #000000; stroke-width: 1.000000; stroke-linejoin: round; stroke-linecap: butt; stroke-dasharray: 6.000000,6.000000; stroke-dashoffset: 0.000000; opacity: 1.000000" clip-path="url(#pd335400e90036c64980016f4d90ac5ff)" d="M131.804959 72.763356L122.523307 78.468027L113.409691 84.791675
L104.664301 91.615505L96.314555 98.918125L87.700146 107.390719
L80.259943 115.618106L73.291897 124.249029L66.817852 133.256429
L60.655011 142.952272L54.882244 153.340827L49.742805 164.056847
L45.255190 175.061765L41.435549 186.315975L38.297629 197.778975
L35.852723 209.409510L34.109630 221.165722L33.074623 233.005303
L32.751427 244.885642L33.141205 256.763983L34.242555 268.597576
L36.051513 280.343835L38.561569 291.960483L41.763688 303.405716
L45.646347 314.638341L50.195573 325.617933L55.394993 336.304979
L61.225895 346.661015L67.442984 356.322164L73.967412 365.293136
L80.983725 373.884869L88.469924 382.070425L97.131686 390.494603
L105.522231 397.750309L114.305730 404.525016L123.454646 410.797484
L131.565701 415.759193L131.565701 415.759193"/>
</g>
<g id="line2d9">
<path style="fill: none; stroke: #000000; stroke-width: 1.000000; stroke-linejoin: round; stroke-linecap: square;  opacity: 1.000000" clip-path="url(#pd335400e90036c64980016f4d90ac5ff)" d="M132.905562 74.669657L130.704355 70.857055"/>
</g>
<g id="line2d10">
<path style="fill: none; stroke: #000000; stroke-width: 1.000000; stroke-linejoin: round; stroke-linecap: square;  opacity: 1.000000" clip-path="url(#pd335400e90036c64980016f4d90ac5ff)" d="M132.905562 413.991250L130.704355 417.803852"/>
</g>
<g id="line2d11">
<path style="fill: none; stroke: #000000; stroke-width: 1.000000; stroke-linejoin: round; stroke-linecap: butt; stroke-dasharray: 6.000000,6.000000; stroke-dashoffset: 0.000000; opacity: 1.000000" clip-path="url(#pd335400e90036c64980016f4d90ac5ff)" d="M439.738553 254.249277L439.967963 242.751709L439.564978 231.258915
L438.530818 219.805653L436.868610 208.426560L434.583381 197.156049
L431.682041 186.028204L428.034464 174.682190L423.987874 164.141426
L419.378258 153.834436L414.219053 143.791269L408.525302 134.041202
L402.313602 124.612661L395.214931 115.039484L387.720778 106.043052
L379.734835 97.480176L371.282142 89.377702L362.389197 81.761033
L352.574303 74.288139L343.219063 67.966582L333.536261 62.159178
L323.554125 56.882856L313.301757 52.152998L302.809046 47.983393
L291.106097 44.082462L280.006909 41.073355L268.759086 38.678947
L257.396646 36.906477L245.953951 35.761307L234.465605 35.246899
L222.966353 35.364810L211.490971 36.114682L200.074164 37.494248
L188.750458 39.499336L177.554099 42.123882L165.922326 45.553865
L157.633430 48.455710L157.633430 48.455710"/>
</g>
<g id="line2d12">
<path style="fill: none; stroke: #000000; stroke-width: 1.000000; stroke-linejoin: round; stroke-linecap: square;  opacity: 1.000000" clip-path="url(#pd335400e90036c64980016f4d90ac5ff)" d="M437.539823 254.144868L441.937282 254.353685"/>
</g>
<g id="line2d13">
<path style="fill: none; stroke: #000000; stroke-width: 1.000000; stroke-linejoin: round; stroke-linecap: square;  opacity: 1.000000" clip-path="url(#pd335400e90036c64980016f4d90ac5ff)" d="M157.657402 50.798386L156.099915 46.680682"/>
</g>
<g id="line2d14">
<path style="fill: none; stroke: #000000; stroke-width: 1.000000; stroke-linejoin: round; stroke-linecap: butt; stroke-dasharray: 6.000000,6.000000; stroke-dashoffset: 0.000000; opacity: 1.000000" clip-path="url(#pd335400e90036c64980016f4d90ac5ff)" d="M104.870216 424.829418L114.796071 431.366417L125.060285 437.358152
L135.632933 442.787155L147.297095 447.973476L158.618171 452.259146
L170.157721 455.915991L181.880848 458.932950L193.752096 461.300901
L205.735566 463.012682L217.795015 464.063115L229.893974 464.449025
L241.995853 464.169244L254.064051 463.224618L266.062073 461.618005
L277.953633 459.354262L289.702769 456.440236L301.273948 452.884740
L312.632176 448.698526L323.942621 443.801270L334.573129 438.486454
L344.901280 432.605617L354.896965 426.175902L355.985799 425.428407
L355.985799 425.428407"/>
</g>
<g id="line2d15">
<path style="fill: none; stroke: #000000; stroke-width: 1.000000; stroke-linejoin: round; stroke-linecap: square;  opacity: 1.000000" clip-path="url(#pd335400e90036c64980016f4d90ac5ff)" d="M106.130107 423.024428L103.610326 426.634407"/>
</g>
<g id="line2d16">
<path style="fill: none; stroke: #000000; stroke-width: 1.000000; stroke-linejoin: round; stroke-linecap: square;  opacity: 1.000000" clip-path="url(#pd335400e90036c64980016f4d90ac5ff)" d="M355.588430 423.024428L358.108211 426.634407"/>
</g>
<g id="line2d17">
<path style="fill: none; stroke: #000000; stroke-width: 1.000000; stroke-linejoin: round; stroke-linecap: butt; stroke-dasharray: 6.000000,6.000000; stroke-dashoffset: 0.000000; opacity: 1.000000" clip-path="url(#pd335400e90036c64980016f4d90ac5ff)" d="M411.358233 370.319506L417.895232 360.393650L423.886967 350.129437
L429.315970 339.556789L434.502291 327.892627L438.787961 316.571551
L442.444806 305.032001L445.461765 293.308874L447.829716 281.437626
L449.541497 269.454156L450.591930 257.394706L450.977840 245.295747
L450.698059 233.193869L449.753433 221.125670L448.146820 209.127649
L445.883077 197.236088L442.969051 185.486953L439.413555 173.915774
L435.227341 162.557546L430.330085 151.247101L425.015269 140.616593
L419.134431 130.288442L412.704717 120.292756L411.957222 119.203923
L411.957222 119.203923"/>
</g>
<g id="line2d18">
<path style="fill: none; stroke: #000000; stroke-width: 1.000000; stroke-linejoin: round; stroke-linecap: square;  opacity: 1.000000" clip-path="url(#pd335400e90036c64980016f4d90ac5ff)" d="M409.553243 369.059615L413.163222 371.579396"/>
</g>
<g id="line2d19">
<path style="fill: none; stroke: #000000; stroke-width: 1.000000; stroke-linejoin: round; stroke-linecap: square;  opacity: 1.000000" clip-path="url(#pd335400e90036c64980016f4d90ac5ff)" d="M409.553243 119.601292L413.163222 117.081511"/>
</g>
<g id="line2d20">
<path style="fill: none; stroke: #000000; stroke-width: 1.000000; stroke-linejoin: round; stroke-linecap: butt; stroke-dasharray: 6.000000,6.000000; stroke-dashoffset: 0.000000; opacity: 1.000000" clip-path="url(#pd335400e90036c64980016f4d90ac5ff)" d="M306.430102 462.753463L318.323040 458.268881L329.951466 453.137298
L341.280215 447.374233L352.275024 440.997116L362.712882 434.157181
L372.766348 426.763846L382.406114 418.838664L391.770070 410.243912
L400.333421 401.486661L408.568699 392.110425L416.285903 382.303368
L423.462533 372.094080L430.077669 361.512324L436.324132 350.178230
L441.832138 338.723305L446.702111 326.982913L450.919325 314.992561
L454.471025 302.788509L457.346470 290.407667L459.536963 277.887476
L461.035881 265.265800L461.838691 252.580812L461.936457 249.115322
L461.936457 249.115322"/>
</g>
<g id="line2d21">
<path style="fill: none; stroke: #000000; stroke-width: 1.000000; stroke-linejoin: round; stroke-linecap: square;  opacity: 1.000000" clip-path="url(#pd335400e90036c64980016f4d90ac5ff)" d="M305.710380 460.673244L307.149825 464.833682"/>
</g>
<g id="line2d22">
<path style="fill: none; stroke: #000000; stroke-width: 1.000000; stroke-linejoin: round; stroke-linecap: square;  opacity: 1.000000" clip-path="url(#pd335400e90036c64980016f4d90ac5ff)" d="M459.743754 248.664492L464.145379 248.747839"/>
</g>
<g id="line2d23">
<path style="fill: none; stroke: #000000; stroke-width: 1.000000; stroke-linejoin: round; stroke-linecap: butt; stroke-dasharray: 6.000000,6.000000; stroke-dashoffset: 0.000000; opacity: 1.000000" clip-path="url(#pd335400e90036c64980016f4d90ac5ff)" d="M83.338113 422.254793L93.156392 429.957714L103.376115 437.119477
L113.967489 443.719204L125.310662 449.949163L136.773593 455.440490
L148.521060 460.293370L160.517538 464.493127L172.726747 468.027060
L185.111761 470.884481L186.245098 471.110386L186.245098 471.110386"/>
</g>
<g id="line2d24">
<path style="fill: none; stroke: #000000; stroke-width: 1.000000; stroke-linejoin: round; stroke-linecap: square;  opacity: 1.000000" clip-path="url(#pd335400e90036c64980016f4d90ac5ff)" d="M84.743076 420.560276L81.933150 423.949311"/>
</g>
<g id="line2d25">
<path style="fill: none; stroke: #000000; stroke-width: 1.000000; stroke-linejoin: round; stroke-linecap: square;  opacity: 1.000000" clip-path="url(#pd335400e90036c64980016f4d90ac5ff)" d="M187.414026 469.095670L186.578541 473.418078"/>
</g>
<g id="line2d26">
<path style="fill: none; stroke: #000000; stroke-width: 1.000000; stroke-linejoin: round; stroke-linecap: butt; stroke-dasharray: 6.000000,6.000000; stroke-dashoffset: 0.000000; opacity: 1.000000" clip-path="url(#pd335400e90036c64980016f4d90ac5ff)" d="M232.157217 2.201175L218.844857 2.495952L205.568832 3.522094
L192.369291 5.276498L179.286152 7.753858L166.358983 10.946681
L153.626878 14.845312L141.128343 19.437961L128.901175 24.710739
L116.982352 30.647698L105.407920 37.230885L94.212883 44.440390
L83.623247 52.107078L73.462847 60.334153L63.761303 69.097632
L54.546898 78.371964L45.846495 88.130115L37.685459 98.343634
L30.223028 108.782044L26.897367 113.839784L26.897367 113.839784"/>
</g>
<g id="line2d27">
<path style="fill: none; stroke: #000000; stroke-width: 1.000000; stroke-linejoin: round; stroke-linecap: square;  opacity: 1.000000" clip-path="url(#pd335400e90036c64980016f4d90ac5ff)" d="M232.145418 4.402351L232.169017 0.000000"/>
</g>
<g id="line2d28">
<path style="fill: none; stroke: #000000; stroke-width: 1.000000; stroke-linejoin: round; stroke-linecap: square;  opacity: 1.000000" clip-path="url(#pd335400e90036c64980016f4d90ac5ff)" d="M28.271822 115.779004L24.554621 113.420261"/>
</g>
<g id="line2d29">
<path style="fill: none; stroke: #000000; stroke-width: 1.000000; stroke-linejoin: round; stroke-linecap: butt; stroke-dasharray: 6.000000,6.000000; stroke-dashoffset: 0.000000; opacity: 1.000000" clip-path="url(#pd335400e90036c64980016f4d90ac5ff)" d="M287.484852 491.054573L299.745151 487.916132L311.833271 484.168855
L323.718999 479.822106L335.372626 474.886750L346.765023 469.375124
L357.867717 463.301003L368.652956 456.679571L379.093782 449.527375
L389.755981 441.386492L400.160221 432.523001L410.070900 423.110874
L419.459124 413.177550L428.297525 402.751988L436.412699 392.070207
L443.539721 381.612181L447.561856 375.170953L447.561856 375.170953"/>
</g>
<g id="line2d30">
<path style="fill: none; stroke: #000000; stroke-width: 1.000000; stroke-linejoin: round; stroke-linecap: square;  opacity: 1.000000" clip-path="url(#pd335400e90036c64980016f4d90ac5ff)" d="M286.992455 488.909146L287.977248 493.200000"/>
</g>
<g id="line2d31">
<path style="fill: none; stroke: #000000; stroke-width: 1.000000; stroke-linejoin: round; stroke-linecap: square;  opacity: 1.000000" clip-path="url(#pd335400e90036c64980016f4d90ac5ff)" d="M446.121319 373.295259L449.897846 375.557799"/>
</g>
<g id="line2d32">
<defs><path id="md53c450981e80a07ae874aa6756da7d0" d="M0.000000 5.000000C1.326016 5.000000 2.597899 4.473168 3.535534 3.535534
C4.473168 2.597899 5.000000 1.326016 5.000000 0.000000
C5.000000 -1.326016 4.473168 -2.597899 3.535534 -3.535534
C2.597899 -4.473168 1.326016 -5.000000 0.000000 -5.000000
C-1.326016 -5.000000 -2.597899 -4.473168 -3.535534 -3.535534
C-4.473168 -2.597899 -5.000000 -1.326016 -5.000000 0.000000
C-5.000000 1.326016 -4.473168 2.597899 -3.535534 3.535534
C-2.597899 4.473168 -1.326016 5.000000 0.000000 5.000000z"/></defs>
<g clip-path="url(#pd335400e90036c64980016f4d90ac5ff)"><use style="fill: #000000; stroke: #000000; stroke-width: 0.500000; stroke-linejoin: round; stroke-linecap: butt;  opacity: 1.000000" xlink:href="#md53c450981e80a07ae874aa6756da7d0" x="230.859268" y="244.330453"/>
</g></g>
<g id="line2d33">
<path style="fill: none; stroke: #000000; stroke-width: 1.000000; stroke-linejoin: round; stroke-linecap: butt; stroke-dasharray: 1.000000,3.000000; stroke-dashoffset: 0.000000; opacity: 1.000000" clip-path="url(#pd335400e90036c64980016f4d90ac5ff)" d="M230.859268 244.330453L406.955819 244.330453"/>
</g>
<g id="matplotlib.axis1">
</g>
<g id="matplotlib.axis2">
</g>
</g>
</g>
</svg>
