<?xml version="1.0" encoding="UTF-8" standalone="no"?>
<!-- Created with Inkscape (http://www.inkscape.org/) -->

<svg
   xmlns:dc="http://purl.org/dc/elements/1.1/"
   xmlns:cc="http://creativecommons.org/ns#"
   xmlns:rdf="http://www.w3.org/1999/02/22-rdf-syntax-ns#"
   xmlns:svg="http://www.w3.org/2000/svg"
   xmlns="http://www.w3.org/2000/svg"
   xmlns:sodipodi="http://sodipodi.sourceforge.net/DTD/sodipodi-0.dtd"
   xmlns:inkscape="http://www.inkscape.org/namespaces/inkscape"
   id="svg4294"
   version="1.1"
   inkscape:version="0.47 r22583"
   width="582.52661"
   height="523.02075"
   xml:space="preserve"
   sodipodi:docname="flatten.eps"><metadata
     id="metadata4300"><rdf:RDF><cc:Work
         rdf:about=""><dc:format>image/svg+xml</dc:format><dc:type
           rdf:resource="http://purl.org/dc/dcmitype/StillImage" /><dc:title></dc:title></cc:Work></rdf:RDF></metadata><defs
     id="defs4298"><inkscape:perspective
       sodipodi:type="inkscape:persp3d"
       inkscape:vp_x="0 : 0.5 : 1"
       inkscape:vp_y="0 : 1000 : 0"
       inkscape:vp_z="1 : 0.5 : 1"
       inkscape:persp3d-origin="0.5 : 0.33333333 : 1"
       id="perspective4302" /><clipPath
       clipPathUnits="userSpaceOnUse"
       id="clipPath4312"><path
         d="m 1.19922,4.19922 5458.79998,0 0,4769.99998 -5458.79998,0 0,-4769.99998 z"
         id="path4314" /></clipPath><clipPath
       clipPathUnits="userSpaceOnUse"
       id="clipPath4324"><path
         d="m 134.879,4.19922 5196.121,0 0,4770.00078 -5196.121,0"
         id="path4326" /></clipPath><clipPath
       clipPathUnits="userSpaceOnUse"
       id="clipPath4360"><path
         d="M 0,0 0,0 0,0 0,0 z"
         id="path4362" /></clipPath><clipPath
       clipPathUnits="userSpaceOnUse"
       id="clipPath4372"><path
         d="m 0,0 5460,0 0,4779 L 0,4779 0,0 z"
         id="path4374" /></clipPath><inkscape:perspective
       id="perspective5024"
       inkscape:persp3d-origin="0.5 : 0.33333333 : 1"
       inkscape:vp_z="1 : 0.5 : 1"
       inkscape:vp_y="0 : 1000 : 0"
       inkscape:vp_x="0 : 0.5 : 1"
       sodipodi:type="inkscape:persp3d" /><inkscape:perspective
       id="perspective5046"
       inkscape:persp3d-origin="0.5 : 0.33333333 : 1"
       inkscape:vp_z="1 : 0.5 : 1"
       inkscape:vp_y="0 : 1000 : 0"
       inkscape:vp_x="0 : 0.5 : 1"
       sodipodi:type="inkscape:persp3d" /><inkscape:perspective
       id="perspective5072"
       inkscape:persp3d-origin="0.5 : 0.33333333 : 1"
       inkscape:vp_z="1 : 0.5 : 1"
       inkscape:vp_y="0 : 1000 : 0"
       inkscape:vp_x="0 : 0.5 : 1"
       sodipodi:type="inkscape:persp3d" /><inkscape:perspective
       id="perspective5106"
       inkscape:persp3d-origin="0.5 : 0.33333333 : 1"
       inkscape:vp_z="1 : 0.5 : 1"
       inkscape:vp_y="0 : 1000 : 0"
       inkscape:vp_x="0 : 0.5 : 1"
       sodipodi:type="inkscape:persp3d" /></defs><sodipodi:namedview
     pagecolor="#ffffff"
     bordercolor="#666666"
     borderopacity="1"
     objecttolerance="10"
     gridtolerance="10"
     guidetolerance="10"
     inkscape:pageopacity="0"
     inkscape:pageshadow="2"
     inkscape:window-width="1912"
     inkscape:window-height="1136"
     id="namedview4296"
     showgrid="true"
     inkscape:zoom="1.5799163"
     inkscape:cx="251.76431"
     inkscape:cy="265.22067"
     inkscape:window-x="0"
     inkscape:window-y="26"
     inkscape:window-maximized="0"
     inkscape:current-layer="g4304"><inkscape:grid
       type="xygrid"
       id="grid4496"
       empspacing="5"
       visible="true"
       enabled="true"
       snapvisiblegridlinesonly="true" /></sodipodi:namedview><g
     id="g4304"
     inkscape:groupmode="layer"
     inkscape:label="ink_ext_XXXXXX"
     transform="matrix(1.25,0,0,-1.25,-708.98297,491.50963)"><path
       sodipodi:type="arc"
       style="color:#000000;fill:#000000;fill-opacity:1;fill-rule:evenodd;stroke:none;stroke-width:2;marker:none;visibility:visible;display:inline;overflow:visible;enable-background:accumulate"
       id="path4498"
       sodipodi:cx="940"
       sodipodi:cy="347.5"
       sodipodi:rx="10"
       sodipodi:ry="10"
       d="m 945.77385,355.66472 c -4.50926,3.18881 -10.74977,2.11838 -13.93857,-2.39087 -3.18881,-4.50926 -2.11838,-10.74977 2.39087,-13.93857 4.50926,-3.18881 10.74977,-2.11838 13.93857,2.39087 3.16753,4.47916 2.13504,10.67397 -2.314,13.88367"
       transform="matrix(0.8,0,0,-0.8,0,478)"
       sodipodi:start="0.95527449"
       sodipodi:end="7.2290133"
       sodipodi:open="true" /><path
       sodipodi:type="arc"
       style="color:#000000;fill:none;stroke:#000000;stroke-width:2;stroke-opacity:1;marker:none;visibility:visible;display:inline;overflow:visible;enable-background:accumulate"
       id="path5010"
       sodipodi:cx="940"
       sodipodi:cy="347.5"
       sodipodi:rx="230"
       sodipodi:ry="230"
       d="M 1074.492,534.07951 C 971.44695,608.35737 827.69835,585.03698 753.42049,481.99196 679.14263,378.94695 702.46302,235.19835 805.50804,160.92049 c 103.04501,-74.277856 246.79356,-50.95747 321.07146,52.08755 74.2569,103.01592 50.9732,246.71972 -52.013,321.01774"
       transform="matrix(0.8,0,0,-0.8,0,478)"
       sodipodi:start="0.94622737"
       sodipodi:end="7.2290133"
       sodipodi:open="true" /><path
       style="fill:none;stroke:#000000;stroke-width:2;stroke-linecap:butt;stroke-linejoin:miter;stroke-miterlimit:4;stroke-opacity:1;stroke-dasharray:none"
       d="m 940,347.5 230,0"
       id="path5014"
       transform="matrix(0.8,0,0,-0.8,0,478)" /><path
       sodipodi:type="arc"
       style="color:#000000;fill:none;stroke:#808080;stroke-width:3;stroke-linecap:butt;stroke-linejoin:miter;stroke-miterlimit:4;stroke-opacity:1;stroke-dasharray:9, 3;stroke-dashoffset:0;marker:none;visibility:visible;display:inline;overflow:visible;enable-background:accumulate"
       id="path5088"
       sodipodi:cx="1160"
       sodipodi:cy="277.5"
       sodipodi:rx="120"
       sodipodi:ry="120"
       d="m 1230.1697,374.84583 c -53.7626,38.75367 -128.7619,26.58651 -167.5155,-27.17611 -38.7537,-53.76262 -26.5865,-128.76188 27.1761,-167.51555 53.7626,-38.75367 128.7619,-26.58651 167.5155,27.17611 38.7428,53.74744 26.5947,128.72333 -27.1372,167.48752"
       transform="matrix(0.8,0,0,-0.8,0,478)"
       sodipodi:start="0.94622737"
       sodipodi:end="7.2290133"
       sodipodi:open="true" /><path
       sodipodi:type="arc"
       style="color:#000000;fill:none;stroke:#000000;stroke-width:3;stroke-linecap:butt;stroke-linejoin:miter;stroke-miterlimit:4;stroke-opacity:1;stroke-dasharray:9, 3;stroke-dashoffset:0;marker:none;visibility:visible;display:inline;overflow:visible;enable-background:accumulate"
       id="path5090"
       sodipodi:cx="1130"
       sodipodi:cy="477.5"
       sodipodi:rx="150"
       sodipodi:ry="150"
       d="m 1217.7121,599.18229 c -67.2032,48.44208 -160.9523,33.23313 -209.3944,-33.97014 -48.44207,-67.20327 -33.23312,-160.95235 33.9702,-209.39444 67.2032,-48.44208 160.9523,-33.23313 209.3944,33.97014 48.4284,67.1843 33.2434,160.90417 -33.9216,209.3594"
       transform="matrix(0.8,0,0,-0.8,0,478)"
       sodipodi:start="0.94622737"
       sodipodi:end="7.2290133"
       sodipodi:open="true" /><path
       sodipodi:type="arc"
       style="color:#000000;fill:none;stroke:#808080;stroke-width:3;stroke-linecap:butt;stroke-linejoin:miter;stroke-miterlimit:4;stroke-opacity:1;stroke-dasharray:9, 3;stroke-dashoffset:0;marker:none;visibility:visible;display:inline;overflow:visible;enable-background:accumulate"
       id="path5092"
       sodipodi:cx="1160"
       sodipodi:cy="417.5"
       sodipodi:rx="130"
       sodipodi:ry="130"
       d="m 1236.0172,522.95798 c -58.2428,41.98314 -139.492,28.80205 -181.4752,-29.44078 -41.9831,-58.24284 -28.802,-139.49204 29.4408,-181.47518 58.2428,-41.98314 139.492,-28.80205 181.4752,29.44078 41.9713,58.22639 28.8109,139.45028 -29.3987,181.44481"
       transform="matrix(0.8,0,0,-0.8,0,478)"
       sodipodi:start="0.94622737"
       sodipodi:end="7.2290133"
       sodipodi:open="true" /><path
       sodipodi:type="arc"
       style="color:#000000;fill:none;stroke:#000000;stroke-width:3;stroke-linecap:butt;stroke-linejoin:miter;stroke-miterlimit:4;stroke-opacity:1;stroke-dasharray:9, 3;stroke-dashoffset:0;marker:none;visibility:visible;display:inline;overflow:visible;enable-background:accumulate"
       id="path5096"
       sodipodi:cx="1140"
       sodipodi:cy="237.5"
       sodipodi:rx="130"
       sodipodi:ry="130"
       d="m 1216.0172,342.95798 c -58.2428,41.98314 -139.492,28.80205 -181.4752,-29.44078 -41.98312,-58.24284 -28.802,-139.49204 29.4408,-181.47518 58.2428,-41.98314 139.492,-28.80205 181.4752,29.44078 41.9713,58.22639 28.8109,139.45028 -29.3987,181.44481"
       transform="matrix(0.8,0,0,-0.8,0,478)"
       sodipodi:start="0.94622737"
       sodipodi:end="7.2290133"
       sodipodi:open="true" /><path
       transform="matrix(0.8,0,0,-0.8,0,478)"
       sodipodi:type="arc"
       style="color:#000000;fill:none;stroke:#000000;stroke-width:6;stroke-miterlimit:4;stroke-opacity:1;stroke-dasharray:none;marker:none;visibility:visible;display:inline;overflow:visible;enable-background:accumulate"
       id="path5010-9"
       sodipodi:cx="940"
       sodipodi:cy="347.5"
       sodipodi:rx="230"
       sodipodi:ry="230"
       d="m 1049.5644,145.27328 c 111.6867,60.51075 153.1731,200.10438 92.6623,311.79111 -28.3094,52.25158 -75.7447,91.51754 -132.3645,109.56862"
       sodipodi:start="5.208907"
       sodipodi:end="7.5453569"
       sodipodi:open="true" /></g></svg>