<?xml version="1.0" standalone="no"?>
<!DOCTYPE svg PUBLIC "-//W3C//DTD SVG 1.1//EN"
  "http://www.w3.org/Graphics/SVG/1.1/DTD/svg11.dtd">
<!-- Created with matplotlib (http://matplotlib.sourceforge.net/) -->
<svg width="621pt" height="347pt" viewBox="0 0 621 347"
   xmlns="http://www.w3.org/2000/svg"
   xmlns:xlink="http://www.w3.org/1999/xlink"
   version="1.1"
   id="svg1">
<g id="figure1">
<g id="patch1">
<path style="fill: #ffffff; stroke: #ffffff; stroke-width: 1.000000; stroke-linejoin: round; stroke-linecap: square;  opacity: 1.000000"  d="M0.000000 347.400000L621.900000 347.400000L621.900000 0.000000
L0.000000 0.000000L0.000000 347.400000"/>
</g>
<g id="axes1">
<g id="patch2">
<path style="fill: #ffffff; opacity: 1.000000"  d="M77.737500 312.660000L559.710000 312.660000L559.710000 34.740000
L77.737500 34.740000L77.737500 312.660000"/>
</g>
<g id="line2d1">
<defs>
  <clipPath id="pbb2a29f3efca5d0e6c06679d72ae37f0">
<rect x="77.737500" y="34.740000" width="481.972500" height="277.920000"/>
  </clipPath>
</defs><path style="fill: none; stroke: #000000; stroke-width: 1.000000; stroke-linejoin: round; stroke-linecap: square;  opacity: 1.000000" clip-path="url(#pbb2a29f3efca5d0e6c06679d72ae37f0)" d="M77.737500 149.508000L559.710000 149.508000"/>
</g>
<g id="line2d2">
<path style="fill: none; stroke: #000000; stroke-width: 1.000000; stroke-linejoin: round; stroke-linecap: square;  opacity: 1.000000" clip-path="url(#pbb2a29f3efca5d0e6c06679d72ae37f0)" d="M111.601875 269.561841L114.279500 245.322721L116.957125 223.192722
L122.312375 184.836621L127.667625 153.677620L133.022875 128.948492
L135.700500 118.768358L138.378125 109.929369L141.055750 102.348722
L143.733375 95.946408L146.411000 90.645167L149.088625 86.370451
L151.766250 83.050380L154.443875 80.615700L157.121500 78.999740
L159.799125 78.138376L162.476750 77.969980L165.154375 78.435388
L167.832000 79.477852L170.509625 81.043000L173.187250 83.078795
L178.542500 88.365600L183.897750 94.967078L189.253000 102.546724
L197.285875 115.095895L221.384500 153.755863L229.417375 164.984170
L234.772625 171.651192L240.127875 177.574417L245.483125 182.700984
L250.838375 186.997377L256.193625 190.448086L261.548875 193.054280
L266.904125 194.832468L272.259375 195.813163L277.614625 196.039556
L282.969875 195.566174L288.325125 194.457551L293.680375 192.786889
L301.713250 189.404939L309.746125 185.236774L325.811875 175.815951
L336.522375 169.777665L344.555250 165.908382L352.588125 162.925239
L357.943375 161.555399L363.298625 160.757267L368.653875 160.585373
L374.009125 161.082905L379.364375 162.280378L384.719625 164.194301
L390.074875 166.825842L395.430125 170.159491L400.785375 174.161733
L408.818250 181.297457L416.851125 189.546688L430.239250 204.676487
L440.949750 216.522083L446.305000 221.767200L451.660250 226.209240
L457.015500 229.545047L459.693125 230.694294L462.370750 231.438116
L465.048375 231.729018L467.726000 231.517256L470.403625 230.750794
L473.081250 229.375260L475.758875 227.333906L478.436500 224.567566
L481.114125 221.014616L483.791750 216.610928L486.469375 211.289833
L489.147000 204.982077L491.824625 197.615779L494.502250 189.116391
L497.179875 179.406655L502.535125 156.033304L507.890375 126.821883
L513.245625 91.052522L518.600875 47.957996L518.600875 47.957996"/>
</g>
<g id="line2d3">
<defs><path id="mb419c4c5302a18cc6082bcc201b83d12" d="M0.000000 4.000000C1.060812 4.000000 2.078319 3.578535 2.828427 2.828427
C3.578535 2.078319 4.000000 1.060812 4.000000 0.000000
C4.000000 -1.060812 3.578535 -2.078319 2.828427 -2.828427
C2.078319 -3.578535 1.060812 -4.000000 0.000000 -4.000000
C-1.060812 -4.000000 -2.078319 -3.578535 -2.828427 -2.828427
C-3.578535 -2.078319 -4.000000 -1.060812 -4.000000 0.000000
C-4.000000 1.060812 -3.578535 2.078319 -2.828427 2.828427
C-2.078319 3.578535 -1.060812 4.000000 0.000000 4.000000z"/></defs>
<g clip-path="url(#pbb2a29f3efca5d0e6c06679d72ae37f0)"><use style="fill: #000000; stroke: #000000; stroke-width: 0.500000; stroke-linejoin: round; stroke-linecap: butt;  opacity: 1.000000" xlink:href="#mb419c4c5302a18cc6082bcc201b83d12" x="503.834616" y="149.508000"/>
<use style="fill: #000000; stroke: #000000; stroke-width: 0.500000; stroke-linejoin: round; stroke-linecap: butt;  opacity: 1.000000" xlink:href="#mb419c4c5302a18cc6082bcc201b83d12" x="218.558115" y="149.508000"/>
<use style="fill: #000000; stroke: #000000; stroke-width: 0.500000; stroke-linejoin: round; stroke-linecap: butt;  opacity: 1.000000" xlink:href="#mb419c4c5302a18cc6082bcc201b83d12" x="128.484565" y="149.508000"/>
</g></g>
<g id="line2d4">
<defs><path id="m3bb63236b3105597c6fa2655c3522d17" d="M0.000000 -6.000000L-1.347084 -1.854102L-5.706339 -1.854102
L-2.179628 0.708204L-3.526712 4.854102L-0.000000 2.291796L3.526712 4.854102
L2.179628 0.708204L5.706339 -1.854102L1.347084 -1.854102L0.000000 -6.000000"/></defs>
<g clip-path="url(#pbb2a29f3efca5d0e6c06679d72ae37f0)"><use style="fill: #000000; stroke: #000000; stroke-width: 0.500000; stroke-linejoin: round; stroke-linecap: butt;  opacity: 1.000000" xlink:href="#m3bb63236b3105597c6fa2655c3522d17" x="465.303202" y="231.731308"/>
<use style="fill: #000000; stroke: #000000; stroke-width: 0.500000; stroke-linejoin: round; stroke-linecap: butt;  opacity: 1.000000" xlink:href="#m3bb63236b3105597c6fa2655c3522d17" x="367.394395" y="160.566996"/>
<use style="fill: #000000; stroke: #000000; stroke-width: 0.500000; stroke-linejoin: round; stroke-linecap: butt;  opacity: 1.000000" xlink:href="#m3bb63236b3105597c6fa2655c3522d17" x="276.602575" y="196.052200"/>
<use style="fill: #000000; stroke: #000000; stroke-width: 0.500000; stroke-linejoin: round; stroke-linecap: butt;  opacity: 1.000000" xlink:href="#m3bb63236b3105597c6fa2655c3522d17" x="161.815828" y="77.950387"/>
</g></g>
<g id="matplotlib.axis1">
<g id="xtick1">
<g id="line2d5">
<path style="fill: none; stroke: #000000; stroke-width: 0.500000; stroke-linejoin: round; stroke-linecap: butt; stroke-dasharray: 1.000000,3.000000; stroke-dashoffset: 0.000000; opacity: 1.000000" clip-path="url(#pbb2a29f3efca5d0e6c06679d72ae37f0)" d="M178.542500 312.660000L178.542500 34.740000"/>
</g>
<g id="line2d6">
<defs><path id="m30e32995789d870ad79a2e54c91cf9c6" d="M0.000000 0.000000L0.000000 -4.000000"/></defs>
<g ><use style="fill: none; stroke: #000000; stroke-width: 0.500000; stroke-linejoin: round; stroke-linecap: butt;  opacity: 1.000000" xlink:href="#m30e32995789d870ad79a2e54c91cf9c6" x="178.542500" y="312.660000"/>
</g></g>
<g id="line2d7">
<defs><path id="m9281cae24120827b11d5ea8a7ad3e96b" d="M0.000000 0.000000L0.000000 4.000000"/></defs>
<g ><use style="fill: none; stroke: #000000; stroke-width: 0.500000; stroke-linejoin: round; stroke-linecap: butt;  opacity: 1.000000" xlink:href="#m9281cae24120827b11d5ea8a7ad3e96b" x="178.542500" y="34.740000"/>
</g></g>
<g id="text1">
<defs>
<path id="c_ed3f3ed3ebfbd18bcb9c012009a68ad1" d="M19.187500 -8.296875l34.421875 0.000000l0.000000 8.296875l-46.281250 0.000000l0.000000 -8.296875q5.609375 -5.812500 15.296875 -15.593750q9.703125 -9.796875 12.187500 -12.640625q4.734375 -5.312500 6.609375 -9.000000q1.890625 -3.687500 1.890625 -7.250000q0.000000 -5.812500 -4.078125 -9.468750q-4.078125 -3.671875 -10.625000 -3.671875q-4.640625 0.000000 -9.796875 1.609375q-5.140625 1.609375 -11.000000 4.890625l0.000000 -9.968750q5.953125 -2.390625 11.125000 -3.609375q5.187500 -1.218750 9.484375 -1.218750q11.328125 0.000000 18.062500 5.671875q6.734375 5.656250 6.734375 15.125000q0.000000 4.500000 -1.687500 8.531250q-1.671875 4.015625 -6.125000 9.484375q-1.218750 1.421875 -7.765625 8.187500q-6.531250 6.765625 -18.453125 18.921875"/>
</defs>
<g style="fill: #000000; opacity: 1.000000" transform="translate(175.761250,325.566250)scale(0.120000)">
<use xlink:href="#c_ed3f3ed3ebfbd18bcb9c012009a68ad1"/>
</g>
</g>
</g>
<g id="xtick2">
<g id="line2d8">
<path style="fill: none; stroke: #000000; stroke-width: 0.500000; stroke-linejoin: round; stroke-linecap: butt; stroke-dasharray: 1.000000,3.000000; stroke-dashoffset: 0.000000; opacity: 1.000000" clip-path="url(#pbb2a29f3efca5d0e6c06679d72ae37f0)" d="M285.647500 312.660000L285.647500 34.740000"/>
</g>
<g id="line2d9">
<g ><use style="fill: none; stroke: #000000; stroke-width: 0.500000; stroke-linejoin: round; stroke-linecap: butt;  opacity: 1.000000" xlink:href="#m30e32995789d870ad79a2e54c91cf9c6" x="285.647500" y="312.660000"/>
</g></g>
<g id="line2d10">
<g ><use style="fill: none; stroke: #000000; stroke-width: 0.500000; stroke-linejoin: round; stroke-linecap: butt;  opacity: 1.000000" xlink:href="#m9281cae24120827b11d5ea8a7ad3e96b" x="285.647500" y="34.740000"/>
</g></g>
<g id="text2">
<defs>
<path id="c_a0416418d96557a09b8c1332d34883ba" d="M37.796875 -64.312500l-24.906250 38.921875l24.906250 0.000000zM35.203125 -72.906250l12.406250 0.000000l0.000000 47.515625l10.406250 0.000000l0.000000 8.203125l-10.406250 0.000000l0.000000 17.187500l-9.812500 0.000000l0.000000 -17.187500l-32.906250 0.000000l0.000000 -9.515625z"/>
</defs>
<g style="fill: #000000; opacity: 1.000000" transform="translate(282.460000,325.410000)scale(0.120000)">
<use xlink:href="#c_a0416418d96557a09b8c1332d34883ba"/>
</g>
</g>
</g>
<g id="xtick3">
<g id="line2d11">
<path style="fill: none; stroke: #000000; stroke-width: 0.500000; stroke-linejoin: round; stroke-linecap: butt; stroke-dasharray: 1.000000,3.000000; stroke-dashoffset: 0.000000; opacity: 1.000000" clip-path="url(#pbb2a29f3efca5d0e6c06679d72ae37f0)" d="M392.752500 312.660000L392.752500 34.740000"/>
</g>
<g id="line2d12">
<g ><use style="fill: none; stroke: #000000; stroke-width: 0.500000; stroke-linejoin: round; stroke-linecap: butt;  opacity: 1.000000" xlink:href="#m30e32995789d870ad79a2e54c91cf9c6" x="392.752500" y="312.660000"/>
</g></g>
<g id="line2d13">
<g ><use style="fill: none; stroke: #000000; stroke-width: 0.500000; stroke-linejoin: round; stroke-linecap: butt;  opacity: 1.000000" xlink:href="#m9281cae24120827b11d5ea8a7ad3e96b" x="392.752500" y="34.740000"/>
</g></g>
<g id="text3">
<defs>
<path id="c_cc8d6d580d1b10c8632f7a42cd53db8a" d="M33.015625 -40.375000q-6.640625 0.000000 -10.531250 4.546875q-3.875000 4.531250 -3.875000 12.437500q0.000000 7.859375 3.875000 12.437500q3.890625 4.562500 10.531250 4.562500q6.640625 0.000000 10.515625 -4.562500q3.875000 -4.578125 3.875000 -12.437500q0.000000 -7.906250 -3.875000 -12.437500q-3.875000 -4.546875 -10.515625 -4.546875M52.593750 -71.296875l0.000000 8.984375q-3.718750 -1.750000 -7.500000 -2.671875q-3.781250 -0.937500 -7.500000 -0.937500q-9.765625 0.000000 -14.921875 6.593750q-5.140625 6.593750 -5.875000 19.921875q2.875000 -4.250000 7.218750 -6.515625q4.359375 -2.265625 9.578125 -2.265625q10.984375 0.000000 17.359375 6.671875q6.375000 6.656250 6.375000 18.125000q0.000000 11.234375 -6.640625 18.031250q-6.640625 6.781250 -17.671875 6.781250q-12.656250 0.000000 -19.343750 -9.687500q-6.687500 -9.703125 -6.687500 -28.109375q0.000000 -17.281250 8.203125 -27.562500q8.203125 -10.281250 22.015625 -10.281250q3.718750 0.000000 7.500000 0.734375q3.781250 0.734375 7.890625 2.187500"/>
</defs>
<g style="fill: #000000; opacity: 1.000000" transform="translate(389.736875,325.566250)scale(0.120000)">
<use xlink:href="#c_cc8d6d580d1b10c8632f7a42cd53db8a"/>
</g>
</g>
</g>
<g id="xtick4">
<g id="line2d14">
<path style="fill: none; stroke: #000000; stroke-width: 0.500000; stroke-linejoin: round; stroke-linecap: butt; stroke-dasharray: 1.000000,3.000000; stroke-dashoffset: 0.000000; opacity: 1.000000" clip-path="url(#pbb2a29f3efca5d0e6c06679d72ae37f0)" d="M499.857500 312.660000L499.857500 34.740000"/>
</g>
<g id="line2d15">
<g ><use style="fill: none; stroke: #000000; stroke-width: 0.500000; stroke-linejoin: round; stroke-linecap: butt;  opacity: 1.000000" xlink:href="#m30e32995789d870ad79a2e54c91cf9c6" x="499.857500" y="312.660000"/>
</g></g>
<g id="line2d16">
<g ><use style="fill: none; stroke: #000000; stroke-width: 0.500000; stroke-linejoin: round; stroke-linecap: butt;  opacity: 1.000000" xlink:href="#m9281cae24120827b11d5ea8a7ad3e96b" x="499.857500" y="34.740000"/>
</g></g>
<g id="text4">
<defs>
<path id="c_bef35738d52871942e50b9de9b122bab" d="M31.781250 -34.625000q-7.031250 0.000000 -11.062500 3.765625q-4.015625 3.765625 -4.015625 10.343750q0.000000 6.593750 4.015625 10.359375q4.031250 3.765625 11.062500 3.765625q7.031250 0.000000 11.078125 -3.781250q4.062500 -3.796875 4.062500 -10.343750q0.000000 -6.578125 -4.031250 -10.343750q-4.015625 -3.765625 -11.109375 -3.765625M21.921875 -38.812500q-6.343750 -1.562500 -9.890625 -5.906250q-3.531250 -4.359375 -3.531250 -10.609375q0.000000 -8.734375 6.218750 -13.812500q6.234375 -5.078125 17.062500 -5.078125q10.890625 0.000000 17.093750 5.078125q6.203125 5.078125 6.203125 13.812500q0.000000 6.250000 -3.546875 10.609375q-3.531250 4.343750 -9.828125 5.906250q7.125000 1.656250 11.093750 6.500000q3.984375 4.828125 3.984375 11.796875q0.000000 10.609375 -6.468750 16.281250q-6.468750 5.656250 -18.531250 5.656250q-12.046875 0.000000 -18.531250 -5.656250q-6.468750 -5.671875 -6.468750 -16.281250q0.000000 -6.968750 4.000000 -11.796875q4.015625 -4.843750 11.140625 -6.500000M18.312500 -54.390625q0.000000 5.656250 3.531250 8.828125q3.546875 3.171875 9.937500 3.171875q6.359375 0.000000 9.937500 -3.171875q3.593750 -3.171875 3.593750 -8.828125q0.000000 -5.671875 -3.593750 -8.843750q-3.578125 -3.171875 -9.937500 -3.171875q-6.390625 0.000000 -9.937500 3.171875q-3.531250 3.171875 -3.531250 8.843750"/>
</defs>
<g style="fill: #000000; opacity: 1.000000" transform="translate(496.857500,325.566250)scale(0.120000)">
<use xlink:href="#c_bef35738d52871942e50b9de9b122bab"/>
</g>
</g>
</g>
</g>
<g id="matplotlib.axis2">
<g id="ytick1">
<g id="line2d17">
<path style="fill: none; stroke: #000000; stroke-width: 0.500000; stroke-linejoin: round; stroke-linecap: butt; stroke-dasharray: 1.000000,3.000000; stroke-dashoffset: 0.000000; opacity: 1.000000" clip-path="url(#pbb2a29f3efca5d0e6c06679d72ae37f0)" d="M77.737500 260.676000L559.710000 260.676000"/>
</g>
<g id="line2d18">
<defs><path id="m3400efa6b1638b3fea9e19e898273957" d="M0.000000 0.000000L4.000000 0.000000"/></defs>
<g ><use style="fill: none; stroke: #000000; stroke-width: 0.500000; stroke-linejoin: round; stroke-linecap: butt;  opacity: 1.000000" xlink:href="#m3400efa6b1638b3fea9e19e898273957" x="77.737500" y="260.676000"/>
</g></g>
<g id="line2d19">
<defs><path id="m20b58b2501143cb5e0a5e8f1ef6f1643" d="M0.000000 0.000000L-4.000000 0.000000"/></defs>
<g ><use style="fill: none; stroke: #000000; stroke-width: 0.500000; stroke-linejoin: round; stroke-linecap: butt;  opacity: 1.000000" xlink:href="#m20b58b2501143cb5e0a5e8f1ef6f1643" x="559.710000" y="260.676000"/>
</g></g>
<g id="text5">
<defs>
<path id="c_6a8d56c819c37117ab4cf023bec22a5a" d="M10.593750 -35.500000l62.593750 0.000000l0.000000 8.296875l-62.593750 0.000000z"/>
<path id="c_42baa63129a918535c52adb20d687ea7" d="M12.406250 -8.296875l16.109375 0.000000l0.000000 -55.625000l-17.531250 3.515625l0.000000 -8.984375l17.437500 -3.515625l9.859375 0.000000l0.000000 64.609375l16.109375 0.000000l0.000000 8.296875l-41.984375 0.000000z"/>
<path id="c_7a2040fe3b94fcd41d0a72c84e93b115" d="M31.781250 -66.406250q-7.609375 0.000000 -11.453125 7.500000q-3.828125 7.484375 -3.828125 22.531250q0.000000 14.984375 3.828125 22.484375q3.843750 7.500000 11.453125 7.500000q7.671875 0.000000 11.500000 -7.500000q3.843750 -7.500000 3.843750 -22.484375q0.000000 -15.046875 -3.843750 -22.531250q-3.828125 -7.500000 -11.500000 -7.500000M31.781250 -74.218750q12.265625 0.000000 18.734375 9.703125q6.468750 9.687500 6.468750 28.140625q0.000000 18.406250 -6.468750 28.109375q-6.468750 9.687500 -18.734375 9.687500q-12.250000 0.000000 -18.718750 -9.687500q-6.468750 -9.703125 -6.468750 -28.109375q0.000000 -18.453125 6.468750 -28.140625q6.468750 -9.703125 18.718750 -9.703125"/>
</defs>
<g style="fill: #000000; opacity: 1.000000" transform="translate(42.815625,265.043187)scale(0.120000)">
<use xlink:href="#c_6a8d56c819c37117ab4cf023bec22a5a"/>
<use xlink:href="#c_42baa63129a918535c52adb20d687ea7" x="83.789062"/>
<use xlink:href="#c_7a2040fe3b94fcd41d0a72c84e93b115" x="147.412109"/>
<use xlink:href="#c_7a2040fe3b94fcd41d0a72c84e93b115" x="211.035156"/>
</g>
</g>
</g>
<g id="ytick2">
<g id="line2d20">
<path style="fill: none; stroke: #000000; stroke-width: 0.500000; stroke-linejoin: round; stroke-linecap: butt; stroke-dasharray: 1.000000,3.000000; stroke-dashoffset: 0.000000; opacity: 1.000000" clip-path="url(#pbb2a29f3efca5d0e6c06679d72ae37f0)" d="M77.737500 205.092000L559.710000 205.092000"/>
</g>
<g id="line2d21">
<g ><use style="fill: none; stroke: #000000; stroke-width: 0.500000; stroke-linejoin: round; stroke-linecap: butt;  opacity: 1.000000" xlink:href="#m3400efa6b1638b3fea9e19e898273957" x="77.737500" y="205.092000"/>
</g></g>
<g id="line2d22">
<g ><use style="fill: none; stroke: #000000; stroke-width: 0.500000; stroke-linejoin: round; stroke-linecap: butt;  opacity: 1.000000" xlink:href="#m20b58b2501143cb5e0a5e8f1ef6f1643" x="559.710000" y="205.092000"/>
</g></g>
<g id="text6">
<defs>
<path id="c_1260a2df50f305f3db244e29828f968e" d="M10.796875 -72.906250l38.718750 0.000000l0.000000 8.312500l-29.687500 0.000000l0.000000 17.859375q2.140625 -0.734375 4.281250 -1.093750q2.156250 -0.359375 4.312500 -0.359375q12.203125 0.000000 19.328125 6.687500q7.140625 6.687500 7.140625 18.109375q0.000000 11.765625 -7.328125 18.296875q-7.328125 6.515625 -20.656250 6.515625q-4.593750 0.000000 -9.359375 -0.781250q-4.750000 -0.781250 -9.828125 -2.343750l0.000000 -9.921875q4.390625 2.390625 9.078125 3.562500q4.687500 1.171875 9.906250 1.171875q8.453125 0.000000 13.375000 -4.437500q4.937500 -4.437500 4.937500 -12.062500q0.000000 -7.609375 -4.937500 -12.046875q-4.921875 -4.453125 -13.375000 -4.453125q-3.953125 0.000000 -7.890625 0.875000q-3.921875 0.875000 -8.015625 2.734375z"/>
</defs>
<g style="fill: #000000; opacity: 1.000000" transform="translate(50.456250,209.459187)scale(0.120000)">
<use xlink:href="#c_6a8d56c819c37117ab4cf023bec22a5a"/>
<use xlink:href="#c_1260a2df50f305f3db244e29828f968e" x="83.789062"/>
<use xlink:href="#c_7a2040fe3b94fcd41d0a72c84e93b115" x="147.412109"/>
</g>
</g>
</g>
<g id="ytick3">
<g id="line2d23">
<path style="fill: none; stroke: #000000; stroke-width: 0.500000; stroke-linejoin: round; stroke-linecap: butt; stroke-dasharray: 1.000000,3.000000; stroke-dashoffset: 0.000000; opacity: 1.000000" clip-path="url(#pbb2a29f3efca5d0e6c06679d72ae37f0)" d="M77.737500 149.508000L559.710000 149.508000"/>
</g>
<g id="line2d24">
<g ><use style="fill: none; stroke: #000000; stroke-width: 0.500000; stroke-linejoin: round; stroke-linecap: butt;  opacity: 1.000000" xlink:href="#m3400efa6b1638b3fea9e19e898273957" x="77.737500" y="149.508000"/>
</g></g>
<g id="line2d25">
<g ><use style="fill: none; stroke: #000000; stroke-width: 0.500000; stroke-linejoin: round; stroke-linecap: butt;  opacity: 1.000000" xlink:href="#m20b58b2501143cb5e0a5e8f1ef6f1643" x="559.710000" y="149.508000"/>
</g></g>
<g id="text7">
<g style="fill: #000000; opacity: 1.000000" transform="translate(67.690625,153.875187)scale(0.120000)">
<use xlink:href="#c_7a2040fe3b94fcd41d0a72c84e93b115"/>
</g>
</g>
</g>
<g id="ytick4">
<g id="line2d26">
<path style="fill: none; stroke: #000000; stroke-width: 0.500000; stroke-linejoin: round; stroke-linecap: butt; stroke-dasharray: 1.000000,3.000000; stroke-dashoffset: 0.000000; opacity: 1.000000" clip-path="url(#pbb2a29f3efca5d0e6c06679d72ae37f0)" d="M77.737500 93.924000L559.710000 93.924000"/>
</g>
<g id="line2d27">
<g ><use style="fill: none; stroke: #000000; stroke-width: 0.500000; stroke-linejoin: round; stroke-linecap: butt;  opacity: 1.000000" xlink:href="#m3400efa6b1638b3fea9e19e898273957" x="77.737500" y="93.924000"/>
</g></g>
<g id="line2d28">
<g ><use style="fill: none; stroke: #000000; stroke-width: 0.500000; stroke-linejoin: round; stroke-linecap: butt;  opacity: 1.000000" xlink:href="#m20b58b2501143cb5e0a5e8f1ef6f1643" x="559.710000" y="93.924000"/>
</g></g>
<g id="text8">
<g style="fill: #000000; opacity: 1.000000" transform="translate(60.175000,98.291187)scale(0.120000)">
<use xlink:href="#c_1260a2df50f305f3db244e29828f968e"/>
<use xlink:href="#c_7a2040fe3b94fcd41d0a72c84e93b115" x="63.623047"/>
</g>
</g>
</g>
</g>
<g id="patch3">
<path style="fill: none; stroke: #000000; stroke-width: 1.000000; stroke-linejoin: round; stroke-linecap: square;  opacity: 1.000000"  d="M77.737500 34.740000L559.710000 34.740000"/>
</g>
<g id="patch4">
<path style="fill: none; stroke: #000000; stroke-width: 1.000000; stroke-linejoin: round; stroke-linecap: square;  opacity: 1.000000"  d="M559.710000 312.660000L559.710000 34.740000"/>
</g>
<g id="patch5">
<path style="fill: none; stroke: #000000; stroke-width: 1.000000; stroke-linejoin: round; stroke-linecap: square;  opacity: 1.000000"  d="M77.737500 312.660000L559.710000 312.660000"/>
</g>
<g id="patch6">
<path style="fill: none; stroke: #000000; stroke-width: 1.000000; stroke-linejoin: round; stroke-linecap: square;  opacity: 1.000000"  d="M77.737500 312.660000L77.737500 34.740000"/>
</g>
<g id="legend1">
<g id="patch7">
<path style="fill: #ffffff; stroke: #000000; stroke-width: 1.000000; stroke-linejoin: round; stroke-linecap: square;  opacity: 1.000000"  d="M478.310000 305.660000L552.710000 305.660000L552.710000 240.444375
L478.310000 240.444375L478.310000 305.660000z"/>
</g>
<g id="line2d29">
<path style="fill: none; stroke: #000000; stroke-width: 1.000000; stroke-linejoin: round; stroke-linecap: square;  opacity: 1.000000"  d="M488.110000 252.081875L507.710000 252.081875"/>
</g>
<g id="line2d30">
</g>
<g id="text9">
<defs>
<path id="c_2c43fc4f4b9be01e45d243a08174070e" d="M33.500000 -76.093750q1.296875 0.390625 1.203125 2.093750l-0.203125 2.906250q-0.093750 0.593750 -0.500000 0.750000q-0.406250 0.140625 -0.906250 -0.062500q-1.093750 -0.390625 -2.000000 -0.531250q-0.890625 -0.156250 -2.093750 -0.156250q-5.906250 0.000000 -7.593750 5.890625q-0.703125 2.406250 -0.703125 10.609375l0.000000 4.796875l11.000000 0.000000q1.390625 0.000000 1.390625 1.390625l0.000000 3.000000q0.000000 1.406250 -1.390625 1.406250l-11.000000 0.000000l0.000000 46.906250q0.000000 1.390625 -1.406250 1.390625l-3.890625 0.000000q-1.406250 0.000000 -1.406250 -1.390625l0.000000 -46.906250l-9.703125 0.000000q-1.390625 0.000000 -1.390625 -1.406250l0.000000 -3.000000q0.000000 -1.390625 1.390625 -1.390625l9.703125 0.000000l0.000000 -4.109375q0.000000 -10.890625 2.000000 -15.687500q3.093750 -7.203125 12.406250 -7.203125q2.890625 0.000000 5.093750 0.703125"/>
<path id="c_7f4d7b29649aad604a349910b4b44965" d="M31.000000 17.703125q-0.703125 0.000000 -0.859375 -0.062500q-0.140625 -0.046875 -0.546875 -0.546875q-9.093750 -11.390625 -13.500000 -23.093750q-4.390625 -11.703125 -4.390625 -24.203125q0.000000 -12.390625 4.390625 -24.093750q4.406250 -11.703125 13.500000 -23.203125q0.406250 -0.500000 0.546875 -0.546875q0.156250 -0.046875 0.656250 -0.046875l2.796875 0.000000q0.609375 0.000000 0.609375 0.093750q0.000000 0.093750 -0.296875 0.593750q-15.703125 24.609375 -15.703125 47.203125q0.000000 11.500000 4.000000 23.203125q4.000000 11.703125 11.796875 24.000000q0.500000 0.703125 -0.500000 0.703125z"/>
<path id="c_2a1a396aebc95c988aaee3a871d39bc0" d="M47.593750 2.906250q0.312500 0.500000 0.062500 0.937500q-0.250000 0.453125 -0.859375 0.453125l-5.593750 0.000000q-1.203125 0.000000 -2.000000 -1.390625l-13.500000 -22.000000l-14.500000 22.000000q-0.906250 1.390625 -2.000000 1.390625l-5.000000 0.000000q-0.609375 0.000000 -0.859375 -0.453125q-0.250000 -0.437500 0.062500 -0.937500l18.296875 -27.312500l-16.406250 -24.000000q-0.296875 -0.500000 -0.046875 -0.937500q0.250000 -0.453125 0.843750 -0.453125l5.500000 0.000000q1.203125 0.000000 2.000000 1.390625l12.109375 18.812500l12.296875 -18.812500q0.906250 -1.390625 2.000000 -1.390625l4.906250 0.000000q0.593750 0.000000 0.843750 0.453125q0.250000 0.437500 -0.046875 0.937500l-16.000000 24.000000z"/>
<path id="c_ac0bf8744987cefd43d29652000254ff" d="M4.703125 17.703125q-0.906250 0.000000 -0.406250 -0.703125q7.796875 -12.296875 11.750000 -24.000000q3.953125 -11.703125 3.953125 -23.203125q0.000000 -11.390625 -3.906250 -23.140625q-3.890625 -11.750000 -11.687500 -24.062500q-0.312500 -0.500000 -0.312500 -0.593750q0.000000 -0.093750 0.500000 -0.093750l2.812500 0.000000q0.500000 0.000000 0.640625 0.046875q0.156250 0.046875 0.656250 0.546875q9.093750 11.500000 13.437500 23.203125q4.359375 11.703125 4.359375 24.093750q0.000000 12.500000 -4.359375 24.203125q-4.343750 11.703125 -13.437500 23.093750q-0.500000 0.500000 -0.656250 0.546875q-0.140625 0.062500 -0.843750 0.062500z"/>
</defs>
<g style="fill: #000000; opacity: 1.000000" transform="translate(523.110000,256.981875)scale(0.140000)">
<use xlink:href="#c_2c43fc4f4b9be01e45d243a08174070e"/>
<use xlink:href="#c_7f4d7b29649aad604a349910b4b44965" x="36.299988"/>
<use xlink:href="#c_2a1a396aebc95c988aaee3a871d39bc0" x="72.599976"/>
<use xlink:href="#c_ac0bf8744987cefd43d29652000254ff" x="123.599960"/>
</g>
</g>
<g id="line2d31">
</g>
<g id="line2d32">
<g ><use style="fill: #000000; stroke: #000000; stroke-width: 0.500000; stroke-linejoin: round; stroke-linecap: butt;  opacity: 1.000000" xlink:href="#mb419c4c5302a18cc6082bcc201b83d12" x="488.110000" y="272.363125"/>
<use style="fill: #000000; stroke: #000000; stroke-width: 0.500000; stroke-linejoin: round; stroke-linecap: butt;  opacity: 1.000000" xlink:href="#mb419c4c5302a18cc6082bcc201b83d12" x="507.710000" y="272.363125"/>
</g></g>
<g id="text10">
<defs>
<path id="c_c90742fea3004ead5a4b51474bd8504a" d="M70.406250 -65.906250q-0.109375 -1.500000 -0.562500 -2.046875q-0.437500 -0.546875 -1.843750 -0.546875l-50.203125 0.000000q-1.296875 0.000000 -1.296875 -1.296875l0.000000 -3.406250q0.000000 -1.296875 1.296875 -1.296875l51.703125 0.000000q4.703125 0.000000 6.203125 1.656250q1.500000 1.640625 1.500000 5.937500q0.000000 2.609375 -0.250000 6.812500q-0.250000 4.187500 -0.703125 8.796875q-0.453125 4.593750 -1.062500 9.000000q-0.593750 4.390625 -1.187500 7.390625l15.500000 0.000000q0.500000 0.000000 1.000000 0.359375q0.500000 0.343750 0.500000 0.953125l0.000000 3.390625q0.000000 0.500000 -0.500000 0.906250q-0.500000 0.390625 -1.000000 0.390625l-85.000000 0.000000q-0.593750 0.000000 -1.046875 -0.390625q-0.453125 -0.406250 -0.453125 -0.906250l0.000000 -3.390625q0.000000 -0.609375 0.453125 -0.953125q0.453125 -0.359375 1.046875 -0.359375l63.093750 0.000000q0.703125 -3.390625 1.250000 -7.687500q0.562500 -4.312500 0.953125 -8.656250q0.406250 -4.343750 0.546875 -8.250000q0.156250 -3.906250 0.062500 -6.406250M79.796875 11.000000q0.000000 0.593750 -0.500000 0.890625q-0.500000 0.312500 -1.000000 0.312500l-54.203125 0.000000q-4.687500 0.000000 -6.140625 -1.953125q-1.453125 -1.953125 -1.453125 -6.046875l0.000000 -21.406250q0.000000 -1.390625 1.406250 -1.390625l4.000000 0.000000q1.390625 0.000000 1.390625 1.390625l0.000000 21.296875q0.000000 1.406250 0.453125 1.750000q0.453125 0.359375 1.843750 0.359375l52.703125 0.000000q0.500000 0.000000 1.000000 0.343750q0.500000 0.359375 0.500000 0.859375z"/>
</defs>
<g style="fill: #000000; opacity: 1.000000" transform="translate(523.110000,277.263125)scale(0.140000)">
<use xlink:href="#c_c90742fea3004ead5a4b51474bd8504a"/>
</g>
</g>
<g id="line2d33">
</g>
<g id="line2d34">
<g ><use style="fill: #000000; stroke: #000000; stroke-width: 0.500000; stroke-linejoin: round; stroke-linecap: butt;  opacity: 1.000000" xlink:href="#m3bb63236b3105597c6fa2655c3522d17" x="488.110000" y="293.066250"/>
<use style="fill: #000000; stroke: #000000; stroke-width: 0.500000; stroke-linejoin: round; stroke-linecap: butt;  opacity: 1.000000" xlink:href="#m3bb63236b3105597c6fa2655c3522d17" x="507.710000" y="293.066250"/>
</g></g>
<g id="text11">
<defs>
<path id="c_ef45a55cf5e00b5991fcfae740cbbd57" d="M70.406250 -67.093750q0.000000 -1.500000 -0.500000 -2.046875q-0.500000 -0.562500 -1.906250 -0.562500l-50.203125 0.000000q-1.296875 0.000000 -1.296875 -1.296875l0.000000 -3.406250q0.000000 -1.296875 1.296875 -1.296875l51.703125 0.000000q4.703125 0.000000 6.203125 1.656250q1.500000 1.640625 1.500000 5.953125q0.000000 3.000000 -0.250000 6.593750q-0.250000 3.593750 -0.703125 7.250000q-0.453125 3.656250 -1.000000 7.203125q-0.546875 3.546875 -1.250000 6.453125l15.500000 0.000000q0.500000 0.000000 1.000000 0.343750q0.500000 0.343750 0.500000 0.953125l0.000000 3.390625q0.000000 0.500000 -0.500000 0.906250q-0.500000 0.406250 -1.000000 0.406250l-85.000000 0.000000q-0.593750 0.000000 -1.046875 -0.406250q-0.453125 -0.406250 -0.453125 -0.906250l0.000000 -3.390625q0.000000 -0.609375 0.453125 -0.953125q0.453125 -0.343750 1.046875 -0.343750l63.000000 0.000000q0.593750 -2.906250 1.140625 -6.359375q0.562500 -3.453125 0.953125 -6.953125q0.406250 -3.500000 0.609375 -6.890625q0.203125 -3.406250 0.203125 -6.296875M15.203125 -18.203125q0.000000 -0.593750 0.500000 -0.890625q0.500000 -0.312500 1.000000 -0.312500l52.796875 0.000000q4.703125 0.000000 6.140625 1.750000q1.453125 1.750000 1.453125 5.859375l0.000000 25.390625q0.000000 1.406250 -1.390625 1.406250l-4.109375 0.000000q-1.390625 0.000000 -1.390625 -1.406250l0.000000 -24.890625q0.000000 -1.406250 -0.453125 -1.750000q-0.453125 -0.359375 -1.843750 -0.359375l-51.203125 0.000000q-0.500000 0.000000 -1.000000 -0.343750q-0.500000 -0.343750 -0.500000 -0.843750z"/>
<path id="c_58dc2e538051bac04c0bb346edc06af6" d="M23.406250 -12.796875q0.000000 -4.203125 1.593750 -5.656250q1.593750 -1.453125 6.000000 -1.453125l41.906250 0.000000q2.390625 0.000000 3.843750 0.312500q1.453125 0.296875 2.296875 1.093750q0.859375 0.796875 1.156250 2.203125q0.296875 1.390625 0.296875 3.500000l0.000000 18.890625q0.000000 4.203125 -1.609375 5.656250q-1.593750 1.453125 -5.984375 1.453125l-41.906250 0.000000q-2.406250 0.000000 -3.859375 -0.312500q-1.437500 -0.296875 -2.296875 -1.140625q-0.843750 -0.843750 -1.140625 -2.203125q-0.296875 -1.343750 -0.296875 -3.453125zM32.703125 -13.906250q-1.406250 0.000000 -1.906250 0.562500q-0.500000 0.546875 -0.500000 2.046875l0.000000 15.890625q0.000000 1.500000 0.500000 2.046875q0.500000 0.562500 1.906250 0.562500l38.500000 0.000000q1.390625 0.000000 1.890625 -0.562500q0.500000 -0.546875 0.500000 -2.046875l0.000000 -15.890625q0.000000 -1.500000 -0.500000 -2.046875q-0.500000 -0.562500 -1.890625 -0.562500zM51.703125 -65.703125q-1.406250 4.109375 -3.953125 8.109375q-2.546875 4.000000 -6.046875 7.890625q3.390625 3.609375 8.390625 6.859375q5.000000 3.250000 10.906250 5.750000q0.796875 0.296875 0.890625 0.843750q0.109375 0.546875 -0.187500 1.046875l-2.000000 3.609375q-0.296875 0.500000 -0.906250 0.546875q-0.593750 0.046875 -1.093750 -0.156250q-2.203125 -1.000000 -4.750000 -2.390625q-2.546875 -1.406250 -5.250000 -3.203125q-2.703125 -1.796875 -5.359375 -3.890625q-2.640625 -2.109375 -4.937500 -4.406250q-5.703125 5.593750 -12.562500 10.203125q-6.843750 4.593750 -13.843750 7.687500q-0.500000 0.203125 -1.000000 0.312500q-0.500000 0.093750 -0.796875 -0.406250l-2.000000 -3.500000q-0.296875 -0.500000 -0.046875 -1.046875q0.250000 -0.562500 0.750000 -0.750000q12.890625 -6.203125 21.984375 -14.203125q9.109375 -8.000000 14.203125 -18.500000q0.703125 -1.406250 0.203125 -2.000000q-0.500000 -0.609375 -1.890625 -0.609375l-29.312500 0.000000q-1.187500 0.000000 -1.187500 -1.296875l0.000000 -3.500000q0.000000 -1.203125 1.187500 -1.203125l32.000000 0.000000q5.203125 0.000000 6.703125 1.859375q1.500000 1.843750 -0.093750 6.343750M73.593750 -55.000000l0.000000 -21.796875q0.000000 -1.406250 1.406250 -1.406250l4.093750 0.000000q1.406250 0.000000 1.406250 1.406250l0.000000 49.796875q0.000000 1.406250 -1.406250 1.406250l-4.093750 0.000000q-1.406250 0.000000 -1.406250 -1.406250l0.000000 -22.000000l-18.500000 0.000000q-1.296875 0.000000 -1.296875 -1.203125l0.000000 -3.593750q0.000000 -1.203125 1.296875 -1.203125z"/>
</defs>
<g style="fill: #000000; opacity: 1.000000" transform="translate(523.110000,297.966250)scale(0.140000)">
<use xlink:href="#c_ef45a55cf5e00b5991fcfae740cbbd57"/>
<use xlink:href="#c_58dc2e538051bac04c0bb346edc06af6" x="93.999985"/>
</g>
</g>
</g>
</g>
</g>
</svg>
