<?xml version="1.0" encoding="UTF-8" standalone="no"?>
<!-- Created with Inkscape (http://www.inkscape.org/) -->

<svg
   xmlns:dc="http://purl.org/dc/elements/1.1/"
   xmlns:cc="http://creativecommons.org/ns#"
   xmlns:rdf="http://www.w3.org/1999/02/22-rdf-syntax-ns#"
   xmlns:svg="http://www.w3.org/2000/svg"
   xmlns="http://www.w3.org/2000/svg"
   xmlns:sodipodi="http://sodipodi.sourceforge.net/DTD/sodipodi-0.dtd"
   xmlns:inkscape="http://www.inkscape.org/namespaces/inkscape"
   id="svg13088"
   version="1.1"
   inkscape:version="0.47 r22583"
   width="547.64215"
   height="314.72"
   xml:space="preserve"
   sodipodi:docname="castle2.svg"><metadata
     id="metadata13094"><rdf:RDF><cc:Work
         rdf:about=""><dc:format>image/svg+xml</dc:format><dc:type
           rdf:resource="http://purl.org/dc/dcmitype/StillImage" /><dc:title></dc:title></cc:Work></rdf:RDF></metadata><defs
     id="defs13092"><marker
       inkscape:stockid="Arrow2Lend"
       orient="auto"
       refY="0"
       refX="0"
       id="Arrow2Lend"
       style="overflow:visible"><path
         id="path5193"
         style="font-size:12px;fill-rule:evenodd;stroke-width:0.625;stroke-linejoin:round"
         d="M 8.7185878,4.0337352 -2.2072895,0.01601326 8.7185884,-4.0017078 c -1.7454984,2.3720609 -1.7354408,5.6174519 -6e-7,8.035443 z"
         transform="matrix(-1.1,0,0,-1.1,-1.1,0)" /></marker><inkscape:perspective
       sodipodi:type="inkscape:persp3d"
       inkscape:vp_x="0 : 0.5 : 1"
       inkscape:vp_y="0 : 1000 : 0"
       inkscape:vp_z="1 : 0.5 : 1"
       inkscape:persp3d-origin="0.5 : 0.33333333 : 1"
       id="perspective13096" /><clipPath
       clipPathUnits="userSpaceOnUse"
       id="clipPath13106"><path
         d="m 0,1687.5 5950,0 0,4545 -5950,0 0,-4545 z"
         id="path13108" /></clipPath><clipPath
       clipPathUnits="userSpaceOnUse"
       id="clipPath13120"><path
         d="m 759.102,1914.8 4601.998,0 0,4090 -4601.998,0 0,-4090 z"
         id="path13122" /></clipPath><clipPath
       clipPathUnits="userSpaceOnUse"
       id="clipPath13144"><path
         d="m 0,1687.5 5950,0 0,4545 -5950,0 0,-4545 z"
         id="path13146" /></clipPath><inkscape:perspective
       id="perspective13975"
       inkscape:persp3d-origin="0.5 : 0.33333333 : 1"
       inkscape:vp_z="1 : 0.5 : 1"
       inkscape:vp_y="0 : 1000 : 0"
       inkscape:vp_x="0 : 0.5 : 1"
       sodipodi:type="inkscape:persp3d" /><inkscape:perspective
       id="perspective13975-2"
       inkscape:persp3d-origin="0.5 : 0.33333333 : 1"
       inkscape:vp_z="1 : 0.5 : 1"
       inkscape:vp_y="0 : 1000 : 0"
       inkscape:vp_x="0 : 0.5 : 1"
       sodipodi:type="inkscape:persp3d" /><inkscape:perspective
       id="perspective13975-9"
       inkscape:persp3d-origin="0.5 : 0.33333333 : 1"
       inkscape:vp_z="1 : 0.5 : 1"
       inkscape:vp_y="0 : 1000 : 0"
       inkscape:vp_x="0 : 0.5 : 1"
       sodipodi:type="inkscape:persp3d" /><inkscape:perspective
       id="perspective13975-4"
       inkscape:persp3d-origin="0.5 : 0.33333333 : 1"
       inkscape:vp_z="1 : 0.5 : 1"
       inkscape:vp_y="0 : 1000 : 0"
       inkscape:vp_x="0 : 0.5 : 1"
       sodipodi:type="inkscape:persp3d" /><inkscape:perspective
       id="perspective13975-3"
       inkscape:persp3d-origin="0.5 : 0.33333333 : 1"
       inkscape:vp_z="1 : 0.5 : 1"
       inkscape:vp_y="0 : 1000 : 0"
       inkscape:vp_x="0 : 0.5 : 1"
       sodipodi:type="inkscape:persp3d" /><inkscape:perspective
       id="perspective13975-5"
       inkscape:persp3d-origin="0.5 : 0.33333333 : 1"
       inkscape:vp_z="1 : 0.5 : 1"
       inkscape:vp_y="0 : 1000 : 0"
       inkscape:vp_x="0 : 0.5 : 1"
       sodipodi:type="inkscape:persp3d" /><inkscape:perspective
       id="perspective13975-0"
       inkscape:persp3d-origin="0.5 : 0.33333333 : 1"
       inkscape:vp_z="1 : 0.5 : 1"
       inkscape:vp_y="0 : 1000 : 0"
       inkscape:vp_x="0 : 0.5 : 1"
       sodipodi:type="inkscape:persp3d" /><inkscape:perspective
       id="perspective14066"
       inkscape:persp3d-origin="0.5 : 0.33333333 : 1"
       inkscape:vp_z="1 : 0.5 : 1"
       inkscape:vp_y="0 : 1000 : 0"
       inkscape:vp_x="0 : 0.5 : 1"
       sodipodi:type="inkscape:persp3d" /><inkscape:perspective
       id="perspective14104"
       inkscape:persp3d-origin="0.5 : 0.33333333 : 1"
       inkscape:vp_z="1 : 0.5 : 1"
       inkscape:vp_y="0 : 1000 : 0"
       inkscape:vp_x="0 : 0.5 : 1"
       sodipodi:type="inkscape:persp3d" /><inkscape:perspective
       id="perspective14128"
       inkscape:persp3d-origin="0.5 : 0.33333333 : 1"
       inkscape:vp_z="1 : 0.5 : 1"
       inkscape:vp_y="0 : 1000 : 0"
       inkscape:vp_x="0 : 0.5 : 1"
       sodipodi:type="inkscape:persp3d" /><inkscape:perspective
       id="perspective14128-5"
       inkscape:persp3d-origin="0.5 : 0.33333333 : 1"
       inkscape:vp_z="1 : 0.5 : 1"
       inkscape:vp_y="0 : 1000 : 0"
       inkscape:vp_x="0 : 0.5 : 1"
       sodipodi:type="inkscape:persp3d" /><inkscape:perspective
       id="perspective14179"
       inkscape:persp3d-origin="0.5 : 0.33333333 : 1"
       inkscape:vp_z="1 : 0.5 : 1"
       inkscape:vp_y="0 : 1000 : 0"
       inkscape:vp_x="0 : 0.5 : 1"
       sodipodi:type="inkscape:persp3d" /><inkscape:perspective
       id="perspective14209"
       inkscape:persp3d-origin="0.5 : 0.33333333 : 1"
       inkscape:vp_z="1 : 0.5 : 1"
       inkscape:vp_y="0 : 1000 : 0"
       inkscape:vp_x="0 : 0.5 : 1"
       sodipodi:type="inkscape:persp3d" /><inkscape:perspective
       id="perspective14264"
       inkscape:persp3d-origin="0.5 : 0.33333333 : 1"
       inkscape:vp_z="1 : 0.5 : 1"
       inkscape:vp_y="0 : 1000 : 0"
       inkscape:vp_x="0 : 0.5 : 1"
       sodipodi:type="inkscape:persp3d" /><inkscape:perspective
       id="perspective14286"
       inkscape:persp3d-origin="0.5 : 0.33333333 : 1"
       inkscape:vp_z="1 : 0.5 : 1"
       inkscape:vp_y="0 : 1000 : 0"
       inkscape:vp_x="0 : 0.5 : 1"
       sodipodi:type="inkscape:persp3d" /><inkscape:perspective
       id="perspective14311"
       inkscape:persp3d-origin="0.5 : 0.33333333 : 1"
       inkscape:vp_z="1 : 0.5 : 1"
       inkscape:vp_y="0 : 1000 : 0"
       inkscape:vp_x="0 : 0.5 : 1"
       sodipodi:type="inkscape:persp3d" /><inkscape:perspective
       id="perspective14352"
       inkscape:persp3d-origin="0.5 : 0.33333333 : 1"
       inkscape:vp_z="1 : 0.5 : 1"
       inkscape:vp_y="0 : 1000 : 0"
       inkscape:vp_x="0 : 0.5 : 1"
       sodipodi:type="inkscape:persp3d" /><inkscape:perspective
       id="perspective14374"
       inkscape:persp3d-origin="0.5 : 0.33333333 : 1"
       inkscape:vp_z="1 : 0.5 : 1"
       inkscape:vp_y="0 : 1000 : 0"
       inkscape:vp_x="0 : 0.5 : 1"
       sodipodi:type="inkscape:persp3d" /><inkscape:perspective
       id="perspective14399"
       inkscape:persp3d-origin="0.5 : 0.33333333 : 1"
       inkscape:vp_z="1 : 0.5 : 1"
       inkscape:vp_y="0 : 1000 : 0"
       inkscape:vp_x="0 : 0.5 : 1"
       sodipodi:type="inkscape:persp3d" /></defs><sodipodi:namedview
     pagecolor="#ffffff"
     bordercolor="#666666"
     borderopacity="1"
     objecttolerance="10"
     gridtolerance="10"
     guidetolerance="10"
     inkscape:pageopacity="0"
     inkscape:pageshadow="2"
     inkscape:window-width="1643"
     inkscape:window-height="1136"
     id="namedview13090"
     showgrid="false"
     inkscape:zoom="1.2684253"
     inkscape:cx="285.58941"
     inkscape:cy="203.62091"
     inkscape:window-x="0"
     inkscape:window-y="26"
     inkscape:window-maximized="0"
     inkscape:current-layer="g13098"
     units="cm"><inkscape:grid
       type="xygrid"
       id="grid14118"
       empspacing="5"
       visible="true"
       enabled="true"
       snapvisiblegridlinesonly="true" /></sodipodi:namedview><g
     id="g13098"
     inkscape:groupmode="layer"
     inkscape:label="ink_ext_XXXXXX"
     transform="matrix(1.25,0,0,-1.25,-4.1713306,1004.2369)"><path
       id="path13138"
       style="fill:#f5f5f5;fill-opacity:1;stroke:#000000;stroke-width:1.60000002;stroke-linecap:square;stroke-linejoin:round;stroke-miterlimit:4;stroke-opacity:1;stroke-dasharray:none"
       d="m 218.63915,670.93806 -0.18233,6.06806 -0.54536,6.04628 -0.9073,6.00275 -1.26542,5.93743 -1.6192,5.85143 -1.96754,5.74313 -2.30824,5.61522 -2.45411,5.10688 -3.09798,5.57114 -3.4425,5.36486 -3.77342,5.13735 -3.88771,4.66275 -4.44722,4.70684 -4.73895,4.41293 -4.61051,3.79247 -5.16075,3.74131 -5.38609,3.4093 -5.59019,3.06314 -5.6789,2.66529 -5.64244,2.23912 -5.76707,1.89732 -5.87049,1.5479 -5.95212,1.1925 -6.01363,0.83436 -6.05227,0.47134 -6.07023,0.10831 -6.06534,-0.25635 -6.03921,-0.61938 -5.991313,-0.98023 -5.921647,-1.33781 -5.830754,-1.6905 -5.719178,-2.0372 -5.586377,-2.37682 -5.255462,-2.61141 -5.525963,-3.17689 -5.315875,-3.51816 -5.082929,-3.8458 -4.756911,-4.09019 -4.633906,-4.52287 -4.335647,-4.80971 -4.019426,-5.07748 -3.631363,-5.23859 -3.293916,-5.45739 -2.90041,-5.56243 -2.473158,-5.54446 -2.136256,-5.68272 -1.791733,-5.80027 -1.44068,-5.8977 -1.084184,-5.97335 -0.724422,-6.02724 -0.361395,-6.06043 0.0022,-6.07078 0.366838,-6.05989 0.728776,-6.02669 1.089626,-5.97226 1.445579,-5.89661 1.796087,-5.79919 2.141155,-5.68054 2.477512,-5.54229 2.904764,-5.56025 3.298814,-5.45466 3.635173,-5.23587 3.502915,-4.45375 4.300814,-4.84128 4.601794,-4.55553 4.805351,-4.18815 5.059525,-3.87737 5.29356,-3.55136 5.50637,-3.21064 5.331114,-2.68706 5.573859,-2.40566 5.708294,-2.06659 5.822045,-1.72098 5.914571,-1.36829 5.985869,-1.0118 6.03595,-0.6504 6.06424,-0.28792 6.07023,0.0767 6.055,0.44032 6.01798,0.80279 5.95866,1.16202 5.8781,1.51742 5.77633,1.86739 5.65441,2.20973 5.60216,2.59072 5.60924,3.02831 5.40676,3.37556 5.18417,3.70973 4.55716,3.69777 4.77052,4.37864 4.48042,4.67473 3.98459,4.71391 3.80499,5.11395 3.4757,5.34364 3.13227,5.55154 2.77631,5.73823 2.30335,5.61685 1.96263,5.74476 1.61485,5.85253 1.26053,5.93852 0.9024,6.00328 0.54045,6.04683 0.1758,5.4612 0,0" /><path
       id="path13124"
       style="fill:#ebebeb;fill-opacity:1;stroke:#000000;stroke-width:1.60000002;stroke-linecap:square;stroke-linejoin:round;stroke-miterlimit:4;stroke-opacity:1;stroke-dasharray:none"
       d="m 137.68131,670.93806 -0.19539,4.44668 -0.58618,4.41293 -0.88008,4.00147 -1.25128,4.06079 -1.58817,3.94105 -2.01162,3.97045 -2.06931,3.35977 -2.51344,3.42563 -2.96681,3.38589 -3.37066,3.20847 -3.36358,2.6778 -3.36304,2.2511 -4.03031,2.22388 -3.88499,1.71989 -4.01616,1.38843 -4.117945,1.04609 -4.392251,0.7217 -4.439058,0.33255 -4.451032,-0.0588 -4.428172,-0.44957 -4.470082,-0.86103 -4.086916,-1.16256 -3.974796,-1.50164 -3.92418,-1.87718 -3.960645,-2.3458 -3.412567,-2.4454 -3.38372,-2.8917 -3.251463,-3.3293 -2.750736,-3.36957 -2.317497,-3.37936 -2.267425,-4.00582 -1.780848,-3.9133 -1.427617,-4.00201 -1.086361,-4.1076 -0.77123,-4.43524 -0.371191,-4.4358 0.01959,-4.45103 0.410379,-4.43252 0.809872,-4.42818 1.122827,-4.09834 1.462451,-3.98895 1.839085,-3.94268 2.306612,-3.98297 2.381176,-3.39678 2.820947,-3.37719 3.29065,-3.29065 3.377189,-2.82094 3.396783,-2.38118 3.982961,-2.30661 3.942684,-1.83854 3.989492,-1.46245 4.097801,-1.12283 4.428173,-0.80987 4.432527,-0.41038 4.451031,-0.0196 4.435793,0.37174 4.385719,0.76034 4.1087,1.08255 4.00364,1.42327 3.91492,1.77704 4.008,2.26361 3.38154,2.31369 3.37284,2.74747 3.33201,3.2482 2.89552,3.38099 2.44866,3.41039 2.34907,3.95847 1.88154,3.92201 1.50544,3.9737 1.16692,4.08529 0.86484,4.46953 0.45392,4.42818 0.0855,2.78121 0,0" /><path
       id="path13126"
       style="fill:#e1e1e1;fill-opacity:1;stroke:#000000;stroke-width:1.60000002;stroke-linecap:square;stroke-linejoin:round;stroke-miterlimit:4;stroke-opacity:1;stroke-dasharray:none"
       d="m 102.26246,655.7584 -0.15294,2.77741 -0.45664,2.74366 -0.79681,2.79645 -1.156034,2.77795 -1.588719,2.79047 -1.619745,2.1983 -2.04754,2.20483 -2.214086,1.88481 -2.766519,1.82166 -2.769241,1.35741 -2.768696,0.96934 -2.786658,0.63027 -2.764342,0.30751 -2.781759,0.002 -2.764886,-0.30316 -2.787746,-0.62537 -2.770329,-0.96498 -2.771418,-1.3536 -2.769241,-1.81677 -2.216807,-1.88154 -2.05135,-2.20102 -1.637162,-2.21736 -1.590354,-2.78937 -1.158204,-2.77741 -0.797898,-2.79591 -0.458819,-2.74366 -0.154572,-2.77686 0.151306,-2.7774 0.455553,-2.74421 0.794633,-2.797 1.154939,-2.77849 1.587088,-2.79101 1.618656,-2.19994 2.045908,-2.20592 2.212997,-1.88589 2.764887,-1.8233 2.769241,-1.35904 2.767607,-0.97098 2.786658,-0.63189 2.764342,-0.30915 2.781215,-0.004 2.76543,0.30153 2.78829,0.62373 2.77033,0.96336 2.772506,1.35196 2.770329,1.81514 2.217896,1.8799 2.052439,2.20048 1.638794,2.21626 1.591447,2.78829 1.159834,2.77632 0.80008,2.79591 0.45991,2.74312 0.1562,2.77686 0,0" /><path
       id="path13128"
       style="fill:#d7d7d7;fill-opacity:1;stroke:#000000;stroke-width:1.60000002;stroke-linecap:square;stroke-linejoin:round;stroke-miterlimit:4;stroke-opacity:1;stroke-dasharray:none"
       d="m 87.083338,655.7584 -0.161648,2.20865 -0.494196,2.20483 -0.862122,2.20266 -1.316587,2.21626 -1.363394,1.64696 -1.653489,1.49565 -2.214086,1.43415 -2.212454,0.95737 -2.202112,0.57093 -2.202112,0.23404 -2.197214,-0.0871 -2.205923,-0.41582 -2.203745,-0.77232 -2.211909,-1.20066 -1.644781,-1.24529 -1.589265,-1.60668 -1.568039,-2.21463 -1.053161,-2.20211 -0.658021,-2.20919 -0.311322,-2.20756 0.01197,-2.1836 0.338535,-2.21899 0.684146,-2.20102 1.086906,-2.2032 1.148952,-1.65839 1.513067,-1.63716 1.661654,-1.34598 2.202112,-1.28012 2.210276,-0.84307 2.209188,-0.47515 2.194493,-0.1426 2.207011,0.17852 2.201023,0.51107 2.19667,0.87845 2.205922,1.33346 1.647503,1.3868 1.472247,1.65403 1.403126,2.19776 0.944851,2.21844 0.55842,2.20483 0.221517,2.20321 0,0" /><path
       id="path13130"
       style="fill:#e1e1e1;fill-opacity:1;stroke:#000000;stroke-width:1.60000002;stroke-linecap:square;stroke-linejoin:round;stroke-miterlimit:4;stroke-opacity:1;stroke-dasharray:none"
       d="m 117.44212,691.17725 -0.23948,2.18905 -0.51651,1.64914 -0.85504,1.63988 -1.32149,1.64641 -1.64315,1.34163 -1.65185,0.87518 -1.64642,0.52631 -2.18687,0.25199 -2.19014,-0.22696 -1.6524,-0.50671 -1.64478,-0.84525 -1.64641,-1.30516 -1.364494,-1.65076 -0.8828,-1.64751 -0.534472,-1.64369 -0.262338,-2.19612 0.218252,-2.19123 0.500727,-1.65404 0.839263,-1.64804 1.291552,-1.64424 1.64424,-1.3721 1.6524,-0.89478 1.64206,-0.54046 2.19504,-0.27104 2.19177,0.21008 1.65621,0.4942 1.65077,0.83273 1.64206,1.27903 1.3857,1.64587 0.90131,1.64914 0.54645,1.63988 0.27921,2.19395 0,0" /><path
       id="path13132"
       style="fill:#ebebeb;fill-opacity:1;stroke:#000000;stroke-width:1.60000002;stroke-linecap:square;stroke-linejoin:round;stroke-miterlimit:4;stroke-opacity:1;stroke-dasharray:none"
       d="m 188.27982,716.47651 -0.15294,2.7774 -0.45664,2.74366 -0.79681,2.79646 -1.15603,2.77794 -1.58872,2.79047 -1.61974,2.19885 -2.04754,2.20429 -2.21409,1.88535 -2.76597,1.82112 -2.76979,1.35795 -2.7687,0.9688 -2.78665,0.63026 -2.76434,0.30752 -2.78176,0.002 -2.76489,-0.30316 -2.78775,-0.62536 -2.76978,-0.96499 -2.77196,-1.3536 -2.76924,-1.81677 -2.21681,-1.88153 -2.05135,-2.20103 -1.63716,-2.21735 -1.59036,-2.78938 -1.15766,-2.7774 -0.79844,-2.79591 -0.45882,-2.74312 -0.15457,-2.7774 0.15131,-2.77741 0.45555,-2.7442 0.79463,-2.797 1.15494,-2.77849 1.58709,-2.79102 1.61866,-2.19993 2.0459,-2.20538 2.213,-1.88644 2.76489,-1.8233 2.76924,-1.35904 2.76761,-0.97097 2.78665,-0.6319 2.76435,-0.30914 2.78121,-0.004 2.76543,0.30152 2.78829,0.62373 2.77033,0.96336 2.77251,1.35196 2.77033,1.81514 2.21789,1.87991 2.05244,2.20048 1.63879,2.21626 1.59145,2.78829 1.15983,2.77632 0.80008,2.79591 0.45991,2.74311 0.1562,2.77686 0,0" /><path
       id="path13134"
       style="fill:#ebebeb;fill-opacity:1;stroke:#000000;stroke-width:1.60000002;stroke-linecap:square;stroke-linejoin:round;stroke-miterlimit:4;stroke-opacity:1;stroke-dasharray:none"
       d="m 208.51955,645.63881 -0.16328,3.39515 -0.48766,3.36358 -0.8077,3.30154 -1.2012,3.40549 -1.59144,3.35923 -1.67798,2.7921 -2.06061,2.79155 -2.5499,2.80135 -2.77958,2.46826 -2.78448,2.01053 -3.37555,1.94087 -3.33692,1.47116 -3.40168,1.10214 -3.32058,0.72442 -3.37502,0.40276 -3.39787,0.0778 -3.39025,-0.24873 -3.34997,-0.57257 -3.3478,-0.91274 -3.37175,-1.29318 -3.3761,-1.71772 -2.79972,-1.79935 -2.77904,-2.1934 -2.73876,-2.66801 -2.30879,-2.77686 -1.90385,-2.8155 -1.80806,-3.36848 -1.36503,-3.34345 -0.9922,-3.3614 -0.64061,-3.33801 -0.31785,-3.38426 0.008,-3.39896 0.33419,-3.38263 0.65638,-3.33474 1.02051,-3.39025 1.38462,-3.33528 1.82765,-3.35814 1.92018,-2.80462 2.34907,-2.78883 2.75672,-2.64896 2.79428,-2.1749 3.33746,-2.07312 3.35052,-1.60995 3.3995,-1.21916 3.33147,-0.83273 3.36195,-0.50236 3.39406,-0.17798 3.3957,0.14804 3.36576,0.47297 3.3048,0.79355 3.41093,1.18596 3.36631,1.57675 2.79972,1.66546 2.80026,2.04863 2.7872,2.51234 2.50582,2.79374 2.0225,2.77523 1.95556,3.36739 1.49891,3.36304 1.11358,3.39841 0.73585,3.31787 0.41419,3.37392 0.0952,2.26416 0,0" /><path
       id="path13136"
       style="fill:#e1e1e1;fill-opacity:1;stroke:#000000;stroke-width:1.60000002;stroke-linecap:square;stroke-linejoin:round;stroke-miterlimit:4;stroke-opacity:1;stroke-dasharray:none"
       d="m 193.33989,640.57874 -0.18941,2.76434 -0.58236,2.77087 -1.01234,2.77306 -1.16909,2.21898 -1.56151,2.21518 -2.0655,2.19285 -2.20103,1.74874 -2.22333,1.32584 -2.75673,1.16528 -2.77903,0.72333 -2.77251,0.32003 -2.72951,-0.0593 -2.79537,-0.44902 -2.76216,-0.85614 -2.22171,-1.02649 -2.19721,-1.36884 -2.21082,-1.83309 -1.97896,-2.19069 -1.49783,-2.21027 -1.11412,-2.20157 -0.96444,-2.76924 -0.5421,-2.7785 -0.14967,-2.74638 0.22642,-2.76162 0.61883,-2.76271 1.05806,-2.7774 1.2012,-2.20211 1.60614,-2.20756 2.084,-2.14768 2.20919,-1.7052 2.20484,-1.27849 2.76978,-1.13317 2.76706,-0.6885 2.77578,-0.29118 2.72896,0.0876 2.79047,0.47787 2.75291,0.88552 2.21082,1.04935 2.19939,1.40367 2.1896,1.85814 1.95392,2.21299 1.46245,2.20974 1.09126,2.21299 0.93016,2.75945 0.51596,2.78339 0.12954,2.20157 0,0" /><text
       xml:space="preserve"
       style="font-size:32px;font-style:normal;font-weight:normal;fill:#000000;fill-opacity:1;stroke:none;font-family:Bitstream Vera Sans"
       x="27.800177"
       y="-751.70911"
       id="text13938"
       transform="scale(1,-1)"><tspan
         sodipodi:role="line"
         id="tspan13940"
         x="27.800177"
         y="-751.70911" /></text>
<text
       xml:space="preserve"
       style="font-size:32px;font-style:normal;font-weight:normal;fill:#000000;fill-opacity:1;stroke:none;font-family:Bitstream Vera Sans"
       x="112.26621"
       y="-750.02197"
       id="text13963"
       transform="scale(1,-1)"><tspan
         sodipodi:role="line"
         id="tspan13965"
         x="112.26621"
         y="-750.02197"
         style="font-size:16px">0</tspan></text>
<text
       xml:space="preserve"
       style="font-size:32px;font-style:normal;font-weight:normal;fill:#000000;fill-opacity:1;stroke:none;font-family:Bitstream Vera Sans"
       x="158.75328"
       y="-710.63989"
       id="text13963-8"
       transform="scale(1,-1)"><tspan
         sodipodi:role="line"
         id="tspan13965-1"
         x="158.75328"
         y="-710.63989"
         style="font-size:16px">5</tspan></text>
<text
       xml:space="preserve"
       style="font-size:32px;font-style:normal;font-weight:normal;fill:#000000;fill-opacity:1;stroke:none;font-family:Bitstream Vera Sans"
       x="72.680191"
       y="-697.70667"
       id="text13963-6"
       transform="scale(1,-1)"><tspan
         sodipodi:role="line"
         id="tspan13965-7"
         x="72.680191"
         y="-697.70667"
         style="font-size:16px">1</tspan></text>
<text
       xml:space="preserve"
       style="font-size:32px;font-style:normal;font-weight:normal;fill:#000000;fill-opacity:1;stroke:none;font-family:Bitstream Vera Sans"
       x="103.45243"
       y="-686.11127"
       id="text13963-5"
       transform="scale(1,-1)"><tspan
         sodipodi:role="line"
         id="tspan13965-9"
         x="103.45243"
         y="-686.11127"
         style="font-size:16px">4</tspan></text>
<rect
       style="color:#000000;fill:none;stroke:#000000;stroke-width:1.60000002;stroke-linecap:butt;stroke-linejoin:miter;stroke-miterlimit:4;stroke-opacity:1;stroke-dasharray:none;stroke-dashoffset:0;marker:none;visibility:visible;display:inline;overflow:visible;enable-background:accumulate"
       id="rect14342"
       width="236.51375"
       height="230.98181"
       x="4.1370645"
       y="-783.39539"
       transform="scale(1,-1)" /><text
       xml:space="preserve"
       style="font-size:32px;font-style:normal;font-weight:normal;fill:#000000;fill-opacity:1;stroke:none;font-family:Bitstream Vera Sans"
       x="89.62722"
       y="-650.87927"
       id="text13963-82"
       transform="scale(1,-1)"><tspan
         sodipodi:role="line"
         id="tspan13965-2"
         x="89.62722"
         y="-650.87927"
         style="font-size:16px">2</tspan></text>
<text
       xml:space="preserve"
       style="font-size:32px;font-style:normal;font-weight:normal;fill:#000000;fill-opacity:1;stroke:none;font-family:Bitstream Vera Sans"
       x="63.7607"
       y="-650.43335"
       id="text13963-7"
       transform="scale(1,-1)"><tspan
         sodipodi:role="line"
         id="tspan13965-74"
         x="63.7607"
         y="-650.43335"
         style="font-size:16px">3</tspan></text>
<text
       xml:space="preserve"
       style="font-size:32px;font-style:normal;font-weight:normal;fill:#000000;fill-opacity:1;stroke:none;font-family:Bitstream Vera Sans"
       x="169.45667"
       y="-665.59644"
       id="text13963-0"
       transform="scale(1,-1)"><tspan
         sodipodi:role="line"
         id="tspan13965-3"
         x="169.45667"
         y="-665.59644"
         style="font-size:16px">6</tspan></text>
<text
       xml:space="preserve"
       style="font-size:32px;font-style:normal;font-weight:normal;fill:#000000;fill-opacity:1;stroke:none;font-family:Bitstream Vera Sans"
       x="168.56473"
       y="-635.27014"
       id="text13963-2"
       transform="scale(1,-1)"><tspan
         sodipodi:role="line"
         id="tspan13965-75"
         x="168.56473"
         y="-635.27014"
         style="font-size:16px">7</tspan></text>
<path
       id="path13130-9"
       style="fill:#e1e1e1;fill-opacity:1;stroke:#000000;stroke-width:1.60000002;stroke-linecap:square;stroke-linejoin:round;stroke-miterlimit:4;stroke-opacity:1;stroke-dasharray:none"
       d="m 352.66881,742.83225 -0.23948,2.18905 -0.51651,1.64914 -0.85504,1.63988 -1.32149,1.64641 -1.64315,1.34163 -1.65185,0.87518 -1.64642,0.52631 -2.18687,0.25199 -2.19014,-0.22696 -1.6524,-0.50671 -1.64478,-0.84525 -1.64641,-1.30516 -1.36449,-1.65076 -0.8828,-1.64751 -0.53447,-1.64369 -0.26234,-2.19612 0.21825,-2.19123 0.50073,-1.65404 0.83926,-1.64804 1.29155,-1.64424 1.64424,-1.3721 1.6524,-0.89478 1.64206,-0.54046 2.19504,-0.27104 2.19177,0.21008 1.65621,0.4942 1.65077,0.83273 1.64206,1.27903 1.3857,1.64587 0.90131,1.64914 0.54645,1.63988 0.27921,2.19395 0,0" /><text
       xml:space="preserve"
       style="font-size:32px;font-style:normal;font-weight:normal;fill:#000000;fill-opacity:1;stroke:none;font-family:Bitstream Vera Sans"
       x="338.67911"
       y="-737.7663"
       id="text13963-5-5"
       transform="scale(1,-1)"><tspan
         sodipodi:role="line"
         id="tspan13965-9-5"
         x="338.67911"
         y="-737.7663"
         style="font-size:16px">0</tspan></text>
<flowRoot
       xml:space="preserve"
       id="flowRoot14086"
       style="font-size:40px;font-style:normal;font-weight:normal;fill:#000000;fill-opacity:1;stroke:none;font-family:Bitstream Vera Sans"
       transform="matrix(0.8,0,0,-0.8,16.650809,774.65417)"><flowRegion
         id="flowRegion14088"><rect
           id="rect14090"
           width="93.097191"
           height="70.798462"
           x="365.14169"
           y="-13.128805" /></flowRegion><flowPara
         id="flowPara14092"></flowPara></flowRoot><path
       style="fill:none;stroke:#000000;stroke-width:0.80000001px;stroke-linecap:butt;stroke-linejoin:miter;stroke-opacity:1"
       d="m 338.04583,734.0141 c -10.25742,-7.58157 -26.31251,-28.98835 -26.31251,-28.98835"
       id="path14094" /><path
       style="fill:none;stroke:#000000;stroke-width:0.80000001px;stroke-linecap:butt;stroke-linejoin:miter;stroke-opacity:1"
       d="m 347.62259,734.17178 c 10.25742,-7.58157 26.31251,-28.98835 26.31251,-28.98835"
       id="path14094-4" /><path
       id="path13130-9-9"
       style="fill:#e1e1e1;fill-opacity:1;stroke:#000000;stroke-width:1.60000002;stroke-linecap:square;stroke-linejoin:round;stroke-miterlimit:4;stroke-opacity:1;stroke-dasharray:none"
       d="m 389.35119,695.82837 -0.23948,2.18905 -0.51651,1.64914 -0.85504,1.63988 -1.32149,1.64641 -1.64315,1.34163 -1.65185,0.87518 -1.64642,0.52631 -2.18687,0.25199 -2.19014,-0.22696 -1.6524,-0.50671 -1.64478,-0.84525 -1.64641,-1.30516 -1.36449,-1.65076 -0.8828,-1.64751 -0.53447,-1.64369 -0.26234,-2.19612 0.21825,-2.19123 0.50073,-1.65404 0.83926,-1.64804 1.29155,-1.64424 1.64424,-1.3721 1.6524,-0.89478 1.64206,-0.54046 2.19504,-0.27104 2.19177,0.21008 1.65621,0.4942 1.65077,0.83273 1.64206,1.27903 1.3857,1.64587 0.90131,1.64914 0.54645,1.63988 0.27921,2.19395 0,0" /><text
       xml:space="preserve"
       style="font-size:32px;font-style:normal;font-weight:normal;fill:#000000;fill-opacity:1;stroke:none;font-family:Bitstream Vera Sans"
       x="375.36148"
       y="-690.76239"
       id="text13963-5-5-4"
       transform="scale(1,-1)"><tspan
         sodipodi:role="line"
         id="tspan13965-9-5-1"
         x="375.36148"
         y="-690.76239"
         style="font-size:16px">6</tspan></text>
<path
       style="fill:none;stroke:#000000;stroke-width:0.80000001px;stroke-linecap:butt;stroke-linejoin:miter;stroke-opacity:1"
       d="m 384.30497,687.1679 c 10.25742,-7.58157 26.31251,-28.98835 26.31251,-28.98835"
       id="path14094-4-2" /><path
       id="path13130-9-5"
       style="fill:#e1e1e1;fill-opacity:1;stroke:#000000;stroke-width:1.60000002;stroke-linecap:square;stroke-linejoin:round;stroke-miterlimit:4;stroke-opacity:1;stroke-dasharray:none"
       d="m 350.55511,683.0473 -0.23948,2.18905 -0.51651,1.64914 -0.85504,1.63988 -1.32149,1.64641 -1.64315,1.34163 -1.65185,0.87518 -1.64642,0.52631 -2.18687,0.25199 -2.19014,-0.22696 -1.6524,-0.50671 -1.64478,-0.84525 -1.64641,-1.30516 -1.36449,-1.65076 -0.8828,-1.64751 -0.53447,-1.64369 -0.26234,-2.19612 0.21825,-2.19123 0.50073,-1.65404 0.83926,-1.64804 1.29155,-1.64424 1.64424,-1.3721 1.6524,-0.89478 1.64206,-0.54046 2.19504,-0.27104 2.19177,0.21008 1.65621,0.4942 1.65077,0.83273 1.64206,1.27903 1.3857,1.64587 0.90131,1.64914 0.54645,1.63988 0.27921,2.19395 0,0" /><text
       xml:space="preserve"
       style="font-size:32px;font-style:normal;font-weight:normal;fill:#000000;fill-opacity:1;stroke:none;font-family:Bitstream Vera Sans"
       x="336.5654"
       y="-677.98132"
       id="text13963-5-5-6"
       transform="scale(1,-1)"><tspan
         sodipodi:role="line"
         id="tspan13965-9-5-7"
         x="336.5654"
         y="-677.98132"
         style="font-size:16px">5</tspan></text>
<path
       id="path13130-9-5-7"
       style="fill:#e1e1e1;fill-opacity:1;stroke:#000000;stroke-width:1.60000002;stroke-linecap:square;stroke-linejoin:round;stroke-miterlimit:4;stroke-opacity:1;stroke-dasharray:none"
       d="m 424.81713,650.93627 -0.23948,2.18905 -0.51651,1.64914 -0.85504,1.63988 -1.32149,1.64641 -1.64315,1.34163 -1.65185,0.87518 -1.64642,0.52631 -2.18687,0.25199 -2.19014,-0.22696 -1.6524,-0.50671 -1.64478,-0.84525 -1.64641,-1.30516 -1.36449,-1.65076 -0.8828,-1.64751 -0.53447,-1.64369 -0.26234,-2.19612 0.21825,-2.19123 0.50073,-1.65404 0.83926,-1.64804 1.29155,-1.64424 1.64424,-1.3721 1.6524,-0.89478 1.64206,-0.54046 2.19504,-0.27104 2.19177,0.21008 1.65621,0.4942 1.65077,0.83273 1.64206,1.27903 1.3857,1.64587 0.90131,1.64914 0.54645,1.63988 0.27921,2.19395 0,0" /><text
       xml:space="preserve"
       style="font-size:32px;font-style:normal;font-weight:normal;fill:#000000;fill-opacity:1;stroke:none;font-family:Bitstream Vera Sans"
       x="410.82742"
       y="-645.8703"
       id="text13963-5-5-6-3"
       transform="scale(1,-1)"><tspan
         sodipodi:role="line"
         id="tspan13965-9-5-7-4"
         x="410.82742"
         y="-645.8703"
         style="font-size:16px">7</tspan></text>
<path
       style="fill:none;stroke:#000000;stroke-width:0.80000001px;stroke-linecap:butt;stroke-linejoin:miter;stroke-opacity:1"
       d="m 342.54949,733.02136 -1.33792,-39.69174"
       id="path14199"
       sodipodi:nodetypes="cc" /><path
       id="path13130-9-7"
       style="fill:#e1e1e1;fill-opacity:1;stroke:#000000;stroke-width:1.60000002;stroke-linecap:square;stroke-linejoin:round;stroke-miterlimit:4;stroke-opacity:1;stroke-dasharray:none"
       d="m 321.11658,694.8517 -0.23948,2.18905 -0.51651,1.64914 -0.85504,1.63988 -1.32149,1.64641 -1.64315,1.34163 -1.65185,0.87518 -1.64642,0.52631 -2.18687,0.25199 -2.19014,-0.22696 -1.6524,-0.50671 -1.64478,-0.84525 -1.64641,-1.30516 -1.36449,-1.65076 -0.8828,-1.64751 -0.53447,-1.64369 -0.26234,-2.19612 0.21825,-2.19123 0.50073,-1.65404 0.83926,-1.64804 1.29155,-1.64424 1.64424,-1.3721 1.6524,-0.89478 1.64206,-0.54046 2.19504,-0.27104 2.19177,0.21008 1.65621,0.4942 1.65077,0.83273 1.64206,1.27903 1.3857,1.64587 0.90131,1.64914 0.54645,1.63988 0.27921,2.19395 0,0" /><text
       xml:space="preserve"
       style="font-size:32px;font-style:normal;font-weight:normal;fill:#000000;fill-opacity:1;stroke:none;font-family:Bitstream Vera Sans"
       x="307.12686"
       y="-689.78571"
       id="text13963-5-5-66"
       transform="scale(1,-1)"><tspan
         sodipodi:role="line"
         id="tspan13965-9-5-8"
         x="307.12686"
         y="-689.78571"
         style="font-size:16px">1</tspan></text>
<path
       style="fill:none;stroke:#000000;stroke-width:0.80000001px;stroke-linecap:butt;stroke-linejoin:miter;stroke-opacity:1"
       d="M 306.4936,686.03355 C 296.23618,678.45198 280.18109,657.0452 280.18109,657.0452"
       id="path14094-0" /><path
       id="path13130-9-5-9"
       style="fill:#e1e1e1;fill-opacity:1;stroke:#000000;stroke-width:1.60000002;stroke-linecap:square;stroke-linejoin:round;stroke-miterlimit:4;stroke-opacity:1;stroke-dasharray:none"
       d="m 319.00288,635.06675 -0.23948,2.18905 -0.51651,1.64914 -0.85504,1.63988 -1.32149,1.64641 -1.64315,1.34163 -1.65185,0.87518 -1.64642,0.52631 -2.18687,0.25199 -2.19014,-0.22696 -1.6524,-0.50671 -1.64478,-0.84525 -1.64641,-1.30516 -1.36449,-1.65076 -0.8828,-1.64751 -0.53447,-1.64369 -0.26234,-2.19612 0.21825,-2.19123 0.50073,-1.65404 0.83926,-1.64804 1.29155,-1.64424 1.64424,-1.3721 1.6524,-0.89479 1.64206,-0.54045 2.19504,-0.27104 2.19177,0.21008 1.65621,0.4942 1.65077,0.83273 1.64206,1.27903 1.3857,1.64587 0.90131,1.64914 0.54645,1.63988 0.27921,2.19395 0,0" /><text
       xml:space="preserve"
       style="font-size:32px;font-style:normal;font-weight:normal;fill:#000000;fill-opacity:1;stroke:none;font-family:Bitstream Vera Sans"
       x="305.01315"
       y="-630.00073"
       id="text13963-5-5-6-9"
       transform="scale(1,-1)"><tspan
         sodipodi:role="line"
         id="tspan13965-9-5-7-7"
         x="305.01315"
         y="-630.00073"
         style="font-size:16px">2</tspan></text>
<path
       style="fill:none;stroke:#000000;stroke-width:0.80000001px;stroke-linecap:butt;stroke-linejoin:miter;stroke-opacity:1"
       d="m 310.99726,685.0408 -1.33792,-39.69173"
       id="path14199-9"
       sodipodi:nodetypes="cc" /><path
       id="path13130-9-9-4"
       style="fill:#e1e1e1;fill-opacity:1;stroke:#000000;stroke-width:1.60000002;stroke-linecap:square;stroke-linejoin:round;stroke-miterlimit:4;stroke-opacity:1;stroke-dasharray:none"
       d="m 285.79081,649.82235 -0.23948,2.18905 -0.51651,1.64914 -0.85504,1.63988 -1.32149,1.64641 -1.64315,1.34163 -1.65185,0.87518 -1.64642,0.52631 -2.18687,0.25199 -2.19014,-0.22696 -1.6524,-0.50671 -1.64478,-0.84525 -1.64641,-1.30516 -1.36449,-1.65076 -0.8828,-1.64751 -0.53447,-1.64369 -0.26234,-2.19612 0.21825,-2.19123 0.50073,-1.65404 0.83926,-1.64804 1.29155,-1.64424 1.64424,-1.3721 1.6524,-0.89478 1.64206,-0.54046 2.19504,-0.27104 2.19177,0.21008 1.65621,0.4942 1.65077,0.83273 1.64206,1.27903 1.3857,1.64587 0.90131,1.64914 0.54645,1.63988 0.27921,2.19395 0,0" /><text
       xml:space="preserve"
       style="font-size:32px;font-style:normal;font-weight:normal;fill:#000000;fill-opacity:1;stroke:none;font-family:Bitstream Vera Sans"
       x="272.13287"
       y="-644.3349"
       id="text13963-5-5-66-7"
       transform="scale(1,-1)"><tspan
         sodipodi:role="line"
         id="tspan13965-9-5-8-8"
         x="272.13287"
         y="-644.3349"
         style="font-size:16px">4</tspan></text>
<path
       style="fill:none;stroke:#000000;stroke-width:0.80000001px;stroke-linecap:butt;stroke-linejoin:miter;stroke-opacity:1"
       d="m 315.76292,629.04874 c 10.25742,-7.58157 26.31251,-28.98835 26.31251,-28.98835"
       id="path14094-4-2-7" /><path
       id="path13130-9-5-7-8"
       style="fill:#e1e1e1;fill-opacity:1;stroke:#000000;stroke-width:1.60000002;stroke-linecap:square;stroke-linejoin:round;stroke-miterlimit:4;stroke-opacity:1;stroke-dasharray:none"
       d="m 356.27508,592.81711 -0.23948,2.18905 -0.51651,1.64914 -0.85504,1.63988 -1.32149,1.64641 -1.64315,1.34163 -1.65185,0.87518 -1.64642,0.52631 -2.18687,0.25199 -2.19014,-0.22696 -1.6524,-0.50671 -1.64478,-0.84525 -1.64641,-1.30516 -1.36449,-1.65076 -0.8828,-1.64751 -0.53447,-1.64369 -0.26234,-2.19612 0.21825,-2.19123 0.50073,-1.65404 0.83926,-1.64804 1.29155,-1.64424 1.64424,-1.3721 1.6524,-0.89478 1.64206,-0.54046 2.19504,-0.27104 2.19177,0.21008 1.65621,0.4942 1.65077,0.83273 1.64206,1.27903 1.3857,1.64587 0.90131,1.64914 0.54645,1.63988 0.27921,2.19395 0,0" /><text
       xml:space="preserve"
       style="font-size:32px;font-style:normal;font-weight:normal;fill:#000000;fill-opacity:1;stroke:none;font-family:Bitstream Vera Sans"
       x="342.2854"
       y="-587.75116"
       id="text13963-5-5-6-3-8"
       transform="scale(1,-1)"><tspan
         sodipodi:role="line"
         id="tspan13965-9-5-7-4-3"
         x="342.2854"
         y="-587.75116"
         style="font-size:16px">3</tspan></text>
<flowRoot
       xml:space="preserve"
       id="flowRoot14334"
       style="font-size:40px;font-style:normal;font-weight:normal;fill:#000000;fill-opacity:1;stroke:none;font-family:Bitstream Vera Sans"
       transform="matrix(0.8,0,0,-0.8,16.650809,774.65417)"><flowRegion
         id="flowRegion14336"><rect
           id="rect14338"
           width="279.08621"
           height="277.50946"
           x="289.33514"
           y="-10.24815" /></flowRegion><flowPara
         id="flowPara14340"></flowPara></flowRoot><text
       xml:space="preserve"
       style="font-size:32px;font-style:normal;font-weight:normal;fill:#000000;fill-opacity:1;stroke:none;font-family:Bitstream Vera Sans"
       x="107.18733"
       y="-792.41357"
       id="text13963-87"
       transform="scale(1,-1)"><tspan
         sodipodi:role="line"
         id="tspan13965-92"
         x="107.18733"
         y="-792.41357"
         style="font-size:16px">(a)</tspan></text>
<rect
       style="color:#000000;fill:none;stroke:#000000;stroke-width:1.60000002;stroke-linecap:butt;stroke-linejoin:miter;stroke-miterlimit:4;stroke-opacity:1;stroke-dasharray:none;stroke-dashoffset:0;marker:none;visibility:visible;display:inline;overflow:visible;enable-background:accumulate"
       id="rect14342-4"
       width="188"
       height="230.98187"
       x="252.6508"
       y="-783.39545"
       transform="scale(1,-1)" /><text
       xml:space="preserve"
       style="font-size:32px;font-style:normal;font-weight:normal;fill:#000000;fill-opacity:1;stroke:none;font-family:Bitstream Vera Sans"
       x="336.65082"
       y="-792.41357"
       id="text13963-87-5"
       transform="scale(1,-1)"><tspan
         sodipodi:role="line"
         id="tspan13965-92-9"
         x="336.65082"
         y="-792.41357"
         style="font-size:16px">(b)</tspan></text>
</g></svg>