<?xml version="1.0" encoding="UTF-8" standalone="no"?>
<!-- Created with Inkscape (http://www.inkscape.org/) -->

<svg
   xmlns:dc="http://purl.org/dc/elements/1.1/"
   xmlns:cc="http://creativecommons.org/ns#"
   xmlns:rdf="http://www.w3.org/1999/02/22-rdf-syntax-ns#"
   xmlns:svg="http://www.w3.org/2000/svg"
   xmlns="http://www.w3.org/2000/svg"
   xmlns:sodipodi="http://sodipodi.sourceforge.net/DTD/sodipodi-0.dtd"
   xmlns:inkscape="http://www.inkscape.org/namespaces/inkscape"
   width="873.72681"
   height="521.85065"
   id="svg5997"
   version="1.1"
   inkscape:version="0.47 r22583"
   sodipodi:docname="enclosing.svg">
  <defs
     id="defs5999">
    <inkscape:perspective
       sodipodi:type="inkscape:persp3d"
       inkscape:vp_x="0 : 526.18109 : 1"
       inkscape:vp_y="0 : 1000 : 0"
       inkscape:vp_z="744.09448 : 526.18109 : 1"
       inkscape:persp3d-origin="372.04724 : 350.78739 : 1"
       id="perspective6005" />
    <inkscape:perspective
       id="perspective5893"
       inkscape:persp3d-origin="0.5 : 0.33333333 : 1"
       inkscape:vp_z="1 : 0.5 : 1"
       inkscape:vp_y="0 : 1000 : 0"
       inkscape:vp_x="0 : 0.5 : 1"
       sodipodi:type="inkscape:persp3d" />
    <marker
       inkscape:stockid="Arrow2Lstart"
       orient="auto"
       refY="0"
       refX="0"
       id="Arrow2Lstart-3"
       style="overflow:visible">
      <path
         id="path4150-4"
         style="font-size:12px;fill-rule:evenodd;stroke-width:0.625;stroke-linejoin:round"
         d="M 8.7185878,4.0337352 -2.2072895,0.01601326 8.7185884,-4.0017078 c -1.7454984,2.3720609 -1.7354408,5.6174519 -6e-7,8.035443 z"
         transform="matrix(1.1,0,0,1.1,1.1,0)" />
    </marker>
    <marker
       inkscape:stockid="Arrow2Lend"
       orient="auto"
       refY="0"
       refX="0"
       id="Arrow2Lend-2"
       style="overflow:visible">
      <path
         id="path4153-4"
         style="font-size:12px;fill-rule:evenodd;stroke-width:0.625;stroke-linejoin:round"
         d="M 8.7185878,4.0337352 -2.2072895,0.01601326 8.7185884,-4.0017078 c -1.7454984,2.3720609 -1.7354408,5.6174519 -6e-7,8.035443 z"
         transform="matrix(-1.1,0,0,-1.1,-1.1,0)" />
    </marker>
    <marker
       inkscape:stockid="Arrow2Lstart"
       orient="auto"
       refY="0"
       refX="0"
       id="marker5901"
       style="overflow:visible">
      <path
         id="path5903"
         style="font-size:12px;fill-rule:evenodd;stroke-width:0.625;stroke-linejoin:round"
         d="M 8.7185878,4.0337352 -2.2072895,0.01601326 8.7185884,-4.0017078 c -1.7454984,2.3720609 -1.7354408,5.6174519 -6e-7,8.035443 z"
         transform="matrix(1.1,0,0,1.1,1.1,0)" />
    </marker>
    <marker
       inkscape:stockid="Arrow2Lend"
       orient="auto"
       refY="0"
       refX="0"
       id="marker5905"
       style="overflow:visible">
      <path
         id="path5907"
         style="font-size:12px;fill-rule:evenodd;stroke-width:0.625;stroke-linejoin:round"
         d="M 8.7185878,4.0337352 -2.2072895,0.01601326 8.7185884,-4.0017078 c -1.7454984,2.3720609 -1.7354408,5.6174519 -6e-7,8.035443 z"
         transform="matrix(-1.1,0,0,-1.1,-1.1,0)" />
    </marker>
    <marker
       inkscape:stockid="Arrow2Lstart"
       orient="auto"
       refY="0"
       refX="0"
       id="Arrow2Lstart"
       style="overflow:visible">
      <path
         id="path4150"
         style="font-size:12px;fill-rule:evenodd;stroke-width:0.625;stroke-linejoin:round"
         d="M 8.7185878,4.0337352 -2.2072895,0.01601326 8.7185884,-4.0017078 c -1.7454984,2.3720609 -1.7354408,5.6174519 -6e-7,8.035443 z"
         transform="matrix(1.1,0,0,1.1,1.1,0)" />
    </marker>
    <marker
       inkscape:stockid="Arrow2Lend"
       orient="auto"
       refY="0"
       refX="0"
       id="Arrow2Lend"
       style="overflow:visible">
      <path
         id="path4153"
         style="font-size:12px;fill-rule:evenodd;stroke-width:0.625;stroke-linejoin:round"
         d="M 8.7185878,4.0337352 -2.2072895,0.01601326 8.7185884,-4.0017078 c -1.7454984,2.3720609 -1.7354408,5.6174519 -6e-7,8.035443 z"
         transform="matrix(-1.1,0,0,-1.1,-1.1,0)" />
    </marker>
    <marker
       inkscape:stockid="Arrow2Lstart"
       orient="auto"
       refY="0"
       refX="0"
       id="marker5913"
       style="overflow:visible">
      <path
         id="path5915"
         style="font-size:12px;fill-rule:evenodd;stroke-width:0.625;stroke-linejoin:round"
         d="M 8.7185878,4.0337352 -2.2072895,0.01601326 8.7185884,-4.0017078 c -1.7454984,2.3720609 -1.7354408,5.6174519 -6e-7,8.035443 z"
         transform="matrix(1.1,0,0,1.1,1.1,0)" />
    </marker>
    <marker
       inkscape:stockid="Arrow2Lend"
       orient="auto"
       refY="0"
       refX="0"
       id="marker5917"
       style="overflow:visible">
      <path
         id="path5919"
         style="font-size:12px;fill-rule:evenodd;stroke-width:0.625;stroke-linejoin:round"
         d="M 8.7185878,4.0337352 -2.2072895,0.01601326 8.7185884,-4.0017078 c -1.7454984,2.3720609 -1.7354408,5.6174519 -6e-7,8.035443 z"
         transform="matrix(-1.1,0,0,-1.1,-1.1,0)" />
    </marker>
    <clipPath
       clipPathUnits="userSpaceOnUse"
       id="clipPath2867">
      <path
         d="m 474.84,3 6210.12,0 0,4340.04 -6210.12,0"
         id="path2869" />
    </clipPath>
  </defs>
  <sodipodi:namedview
     id="base"
     pagecolor="#ffffff"
     bordercolor="#666666"
     borderopacity="1.0"
     inkscape:pageopacity="0.0"
     inkscape:pageshadow="2"
     inkscape:zoom="0.7"
     inkscape:cx="215.81412"
     inkscape:cy="165.77517"
     inkscape:document-units="px"
     inkscape:current-layer="layer1"
     showgrid="false"
     inkscape:window-width="1412"
     inkscape:window-height="1136"
     inkscape:window-x="0"
     inkscape:window-y="26"
     inkscape:window-maximized="0" />
  <metadata
     id="metadata6002">
    <rdf:RDF>
      <cc:Work
         rdf:about="">
        <dc:format>image/svg+xml</dc:format>
        <dc:type
           rdf:resource="http://purl.org/dc/dcmitype/StillImage" />
        <dc:title></dc:title>
      </cc:Work>
    </rdf:RDF>
  </metadata>
  <g
     inkscape:label="Layer 1"
     inkscape:groupmode="layer"
     id="layer1"
     transform="translate(-530.60742,-751.57883)">
    <path
       id="path2871"
       style="fill:none;stroke:#000000;stroke-width:1.25;stroke-linecap:square;stroke-linejoin:round;stroke-miterlimit:10;stroke-opacity:1;stroke-dasharray:none"
       d="M 702.03212,1209.2818 1274.0109,967.45305" />
    <path
       id="path2873"
       style="fill:none;stroke:#000000;stroke-width:1.25;stroke-linecap:square;stroke-linejoin:round;stroke-miterlimit:10;stroke-opacity:1;stroke-dasharray:none"
       d="m 1274.0109,967.45305 -90.6863,-214.4925" />
    <path
       id="path2875"
       style="fill:none;stroke:#000000;stroke-width:1.25;stroke-linecap:square;stroke-linejoin:round;stroke-miterlimit:10;stroke-opacity:1;stroke-dasharray:none"
       d="M 1183.3259,752.96055 611.34687,994.7893" />
    <path
       id="path2877"
       style="fill:none;stroke:#000000;stroke-width:1.25;stroke-linecap:square;stroke-linejoin:round;stroke-miterlimit:10;stroke-opacity:1;stroke-dasharray:none"
       d="m 611.34637,994.7893 90.68575,214.4925" />
    <path
       id="path2879"
       style="fill:none;stroke:#000000;stroke-width:1.25;stroke-linecap:square;stroke-linejoin:round;stroke-miterlimit:10;stroke-opacity:1;stroke-dasharray:none"
       d="m 779.65712,1209.2818 -0.40375,-7.9037 -1.20625,-7.8224 -1.99625,-7.6581 -2.37125,-6.4864 0,0" />
    <path
       id="path2881"
       style="fill:none;stroke:#000000;stroke-width:1.25;stroke-linecap:square;stroke-linejoin:round;stroke-miterlimit:10;stroke-opacity:1;stroke-dasharray:none"
       d="m 689.94087,1180.6827 -5.08,2.7295 -3.81125,2.9818 -3.47375,3.7574 -2.53875,3.7887 -2.3,5.0517 -1.31375,5.0738 -0.44125,5.0673 0,0" />
    <path
       id="path2883"
       style="fill:none;stroke:#000000;stroke-width:1.25;stroke-linecap:square;stroke-linejoin:round;stroke-miterlimit:10;stroke-opacity:1;stroke-dasharray:none"
       d="m 691.14962,1183.5431 -3.795,1.959 -3.79125,2.8076 -3.5075,3.7109 -2.49625,3.771 -2.17625,5.0776 -1.09625,5.0727 -0.1875,2.5074 0,0" />
    <path
       id="path2885"
       style="fill:none;stroke:#000000;stroke-width:1.25;stroke-linecap:butt;stroke-linejoin:round;stroke-miterlimit:10;stroke-opacity:1;stroke-dasharray:7.5, 7.5;stroke-dashoffset:0"
       d="m 1274.0109,1209.2818 0,-456.32125" />
    <path
       id="path2887"
       style="fill:none;stroke:#000000;stroke-width:1.25;stroke-linecap:butt;stroke-linejoin:round;stroke-miterlimit:10;stroke-opacity:1;stroke-dasharray:7.5, 7.5;stroke-dashoffset:0"
       d="m 1274.0109,752.96055 -662.66453,0" />
    <path
       id="path2889"
       style="fill:none;stroke:#000000;stroke-width:1.25;stroke-linecap:butt;stroke-linejoin:round;stroke-miterlimit:10;stroke-opacity:1;stroke-dasharray:7.5, 7.5;stroke-dashoffset:0"
       d="m 611.34637,752.96055 0,456.32125" />
    <path
       id="path2891"
       style="fill:none;stroke:#000000;stroke-width:1.25;stroke-linecap:square;stroke-linejoin:round;stroke-miterlimit:10;stroke-opacity:1;stroke-dasharray:none"
       d="m 716.33212,1203.2359 -6.04625,-14.2994" />
    <path
       id="path2893"
       style="fill:none;stroke:#000000;stroke-width:1.25;stroke-linecap:square;stroke-linejoin:round;stroke-miterlimit:10;stroke-opacity:1;stroke-dasharray:none"
       d="m 710.28712,1188.9365 -14.3,6.0459" />
    <path
       id="path2895"
       style="fill:none;stroke:#000000;stroke-width:1.25;stroke-linecap:square;stroke-linejoin:round;stroke-miterlimit:10;stroke-opacity:1;stroke-dasharray:none"
       d="m 1267.9659,953.1543 -14.3,6.04625" />
    <path
       id="path2897"
       style="fill:none;stroke:#000000;stroke-width:1.25;stroke-linecap:square;stroke-linejoin:round;stroke-miterlimit:10;stroke-opacity:1;stroke-dasharray:none"
       d="m 1253.6659,959.1993 6.0462,14.29875" />
    <path
       id="path2899"
       style="fill:none;stroke:#000000;stroke-width:1.25;stroke-linecap:square;stroke-linejoin:round;stroke-miterlimit:10;stroke-opacity:1;stroke-dasharray:none"
       d="m 1274.0109,920.87805 -6.315,0.43 -6.3775,1.3325 -5.1013,1.77 0,0" />
    <path
       id="path2901"
       style="fill:none;stroke:#000000;stroke-width:1.25;stroke-linecap:square;stroke-linejoin:round;stroke-miterlimit:10;stroke-opacity:1;stroke-dasharray:none"
       d="m 1169.0259,759.0068 6.045,14.3" />
    <path
       id="path2903"
       style="fill:none;stroke:#000000;stroke-width:1.25;stroke-linecap:square;stroke-linejoin:round;stroke-miterlimit:10;stroke-opacity:1;stroke-dasharray:none"
       d="m 1175.0709,773.30555 14.3,-6.045" />
    <path
       id="path2905"
       style="fill:none;stroke:#000000;stroke-width:1.25;stroke-linecap:square;stroke-linejoin:round;stroke-miterlimit:10;stroke-opacity:1;stroke-dasharray:none"
       d="m 617.39212,1009.0893 14.3,-6.0463" />
    <path
       id="path2907"
       style="fill:none;stroke:#000000;stroke-width:1.25;stroke-linecap:square;stroke-linejoin:round;stroke-miterlimit:10;stroke-opacity:1;stroke-dasharray:none"
       d="m 631.69212,1003.0443 -6.04625,-14.29875" />
    <path
       id="path2909"
       style="fill:none;stroke:#000000;stroke-width:1.25;stroke-linecap:square;stroke-linejoin:round;stroke-miterlimit:10;stroke-opacity:1;stroke-dasharray:none"
       d="m 1274.0109,1193.7569 -15.525,0" />
    <path
       id="path2911"
       style="fill:none;stroke:#000000;stroke-width:1.25;stroke-linecap:square;stroke-linejoin:round;stroke-miterlimit:10;stroke-opacity:1;stroke-dasharray:none"
       d="m 1258.4859,1193.7569 0,15.5249" />
    <path
       id="path2913"
       style="fill:none;stroke:#000000;stroke-width:1.25;stroke-linecap:square;stroke-linejoin:round;stroke-miterlimit:10;stroke-opacity:1;stroke-dasharray:none"
       d="m 1258.4859,752.96055 0,15.525" />
    <path
       id="path2915"
       style="fill:none;stroke:#000000;stroke-width:1.25;stroke-linecap:square;stroke-linejoin:round;stroke-miterlimit:10;stroke-opacity:1;stroke-dasharray:none"
       d="m 1258.4859,768.48555 15.525,0" />
    <path
       id="path2917"
       style="fill:none;stroke:#000000;stroke-width:1.25;stroke-linecap:square;stroke-linejoin:round;stroke-miterlimit:10;stroke-opacity:1;stroke-dasharray:none"
       d="m 611.34637,768.48555 15.5245,0" />
    <path
       id="path2919"
       style="fill:none;stroke:#000000;stroke-width:1.25;stroke-linecap:square;stroke-linejoin:round;stroke-miterlimit:10;stroke-opacity:1;stroke-dasharray:none"
       d="m 626.87087,768.48555 0,-15.525" />
    <path
       id="path2921"
       style="fill:none;stroke:#000000;stroke-width:1.25;stroke-linecap:square;stroke-linejoin:round;stroke-miterlimit:10;stroke-opacity:1;stroke-dasharray:none"
       d="m 626.87087,1209.2818 0,-15.5249" />
    <path
       id="path2923"
       style="fill:none;stroke:#000000;stroke-width:1.25;stroke-linecap:square;stroke-linejoin:round;stroke-miterlimit:10;stroke-opacity:1;stroke-dasharray:none"
       d="m 626.87087,1193.7569 -15.5245,0" />
    <path
       id="path2925"
       style="fill:none;stroke:#000000;stroke-width:1.25;stroke-linecap:square;stroke-linejoin:round;stroke-miterlimit:10;stroke-opacity:1;stroke-dasharray:none"
       d="m 546.78187,1209.2818 753.35023,0" />
    <path
       id="path2947"
       style="fill:#000000;fill-opacity:1;fill-rule:nonzero;stroke:none"
       d="m 998.39212,1070.9468 c 0.6675,1.795 2.51878,2.1125 3.65248,2.105 2.2663,-0.016 3.595,-1.9987 4.415,-4.0687 0.6738,-1.7388 1.7538,-5.6938 1.7413,-7.4575 -0.013,-1.8238 -0.9175,-2 -1.1788,-1.9988 -0.7337,0.01 -1.4,0.7313 -1.3962,1.3288 0,0.3587 0.2137,0.5675 0.3637,0.685 0.2713,0.2675 1.0538,1.07 1.0638,2.625 0.01,1.0162 -0.81,3.8325 -1.4288,5.2425 -0.8237,1.83 -1.9212,3.0337 -3.4762,3.045 -1.6738,0.011 -2.22003,-1.2413 -2.23003,-2.6163 -0.006,-0.8675 0.25623,-1.9162 0.37123,-2.425 l 1.2213,-5.0337 c 0.145,-0.6 0.4062,-1.6488 0.405,-1.7688 0,-0.4475 -0.3638,-0.745 -0.8113,-0.7412 -0.8675,0.01 -1.0712,0.755 -1.24498,1.4737 -0.28625,1.1688 -1.485,6.2325 -1.59875,6.8913 -0.11375,0.5087 -0.11125,0.8375 -0.10625,1.4962 0.005,0.7175 -0.94875,1.86 -0.97875,1.9213 -0.3275,0.3312 -0.805,0.8425 -1.73625,0.8487 -2.37125,0.018 -2.38625,-2.2262 -2.39,-2.7337 -0.007,-0.9575 0.1925,-2.2738 1.51125,-5.8413 0.3525,-0.93 0.49875,-1.32 0.495,-1.9175 -0.009,-1.2562 -0.91375,-2.39 -2.37875,-2.3787 -2.75125,0.019 -3.82625,4.3612 -3.825,4.6012 10e-4,0.12 0.12125,0.2675 0.33125,0.2663 0.26875,-10e-4 0.2975,-0.1213 0.415,-0.5413 0.72875,-2.635 1.88625,-3.7212 2.9925,-3.7287 0.3,-10e-4 0.77875,0.027 0.785,0.985 0.001,0.1487 0.006,0.7775 -0.48625,2.0962 -1.35875,3.7475 -1.64375,4.975 -1.63625,6.1113 0.0225,3.14 2.59,3.69 4.11125,3.68 0.5075,0 1.85,-0.012 3.0275,-2.1513" />
    <path
       id="path2949"
       style="fill:#000000;fill-opacity:1;fill-rule:nonzero;stroke:none"
       d="m 683.61462,1089.1918 c 0.03,-0.12 0.09,-0.2987 0.09,-0.4487 0,-0.3 -0.29875,-0.3 -0.3575,-0.3 -0.03,0 -1.49125,0.1187 -1.64,0.1487 -0.50625,0.03 -0.95375,0.09 -1.49,0.12 -0.745,0.06 -0.95376,0.09 -0.95376,0.6275 0,0.2988 0.23876,0.2988 0.65501,0.2988 1.46125,0 1.49125,0.2725 1.49125,0.5725 0,0.1787 -0.06,0.4175 -0.09,0.5075 l -4.3225,17.305 c -0.11875,0.4487 -0.11875,0.5075 -0.11875,0.6875 0,0.6575 0.5075,0.7762 0.80625,0.7762 0.50875,0 0.8975,-0.3875 1.0475,-0.7162 l 1.34375,-5.4113 c 0.15,-0.6575 0.33,-1.285 0.47875,-1.9437 0.32875,-1.255 0.32875,-1.285 0.89625,-2.1525 0.56875,-0.8663 1.9125,-2.6625 4.215,-2.6625 1.195,0 1.61375,0.8987 1.61375,2.095 0,1.6737 -1.1675,4.9325 -1.825,6.7262 -0.27,0.7175 -0.41875,1.1063 -0.41875,1.6438 0,1.3462 0.92625,2.4212 2.36125,2.4212 2.78125,0 3.8275,-4.3937 3.8275,-4.5737 0,-0.1488 -0.12,-0.27 -0.3,-0.27 -0.26875,0 -0.29875,0.091 -0.44875,0.6 -0.6875,2.3912 -1.7925,3.6462 -2.98875,3.6462 -0.29875,0 -0.7775,-0.03 -0.7775,-0.9862 0,-0.7775 0.35499,-1.7338 0.47249,-2.0625 0.53125,-1.435 1.86,-4.9625 1.86,-6.6975 0,-1.7925 -1.045,-3.1413 -3.31125,-3.1413 -1.69875,0 -3.18875,0.8088 -4.41125,2.365" />
    <path
       id="path2951"
       style="fill:#000000;fill-opacity:1;fill-rule:nonzero;stroke:none"
       d="m 806.53837,1184.9913 c 0,-3.0494 -0.9525,-6.0092 -3.39125,-6.0092 -4.16375,0 -8.59625,8.7592 -8.59625,15.3363 0,1.3755 0.2975,6.0088 3.42125,6.0088 4.045,0 8.56625,-8.5497 8.56625,-15.3359 z m -9.02375,4.2198 c 0.4475,-1.7648 1.075,-4.2769 2.27,-6.4005 0.98625,-1.7949 2.0325,-3.2309 3.34625,-3.2309 0.985,0 1.645,0.8379 1.645,3.7095 0,1.0766 -0.0913,2.5722 -0.95875,5.9219 l -6.3025,0 z m 6.09625,0.8968 c -0.7475,2.9288 -1.37625,4.8112 -2.4525,6.6934 -0.8675,1.524 -1.91375,2.9283 -3.17,2.9283 -0.92625,0 -1.67375,-0.7168 -1.67375,-3.6753 0,-1.9419 0.4775,-3.9741 0.95625,-5.9469" />
    <path
       id="path2953"
       style="fill:#000000;fill-opacity:1;fill-rule:nonzero;stroke:none"
       d="m 536.03846,1149.1762 2.36425,0 c -0.56163,2.3433 -0.91513,3.8706 -0.91513,5.5445 0,0.293 0,2.5522 0.855,2.5522 0.438,0 0.8135,-0.3975 0.8135,-0.753 0,-0.1049 0,-0.1463 -0.1455,-0.4604 -0.56062,-1.4438 -0.56062,-3.2427 -0.56062,-3.3891 0,-0.1255 0,-1.6114 0.4385,-3.4942 l 2.33987,0 c 0.2715,0 0.961,0 0.961,-0.6688 0,-0.46 -0.3975,-0.46 -0.774,-0.46 l -6.88325,0 c -0.481,0 -1.19237,0 -2.15487,1.025 -0.54388,0.6063 -1.21338,1.7141 -1.21338,1.8391 0,0.1255 0.1045,0.1675 0.2305,0.1675 0.1465,0 0.167,-0.063 0.2715,-0.1885 1.08838,-1.7143 2.17575,-1.7143 2.69925,-1.7143 l 1.19238,0 c -0.4605,1.5693 -0.98338,3.3897 -2.69925,7.0508 -0.167,0.3344 -0.167,0.3764 -0.167,0.5019 0,0.4395 0.3765,0.544 0.5645,0.544 0.60687,0 0.77437,-0.544 1.02537,-1.4224 0.335,-1.0668 0.335,-1.1088 0.54388,-1.9457" />
    <rect
       x="530.60742"
       y="-1162.0311"
       width="12.45"
       height="1.2"
       transform="scale(1,-1)"
       style="fill:#000000;fill-opacity:1;fill-rule:nonzero"
       id="rect2957" />
    <path
       id="path2959"
       style="fill:#000000;fill-opacity:1;fill-rule:nonzero;stroke:none"
       d="m 540.86946,1175.5977 -0.4605,0 c -0.0625,0.3548 -0.23,1.5038 -0.43888,1.8378 -0.146,0.1881 -1.33787,0.1881 -1.96487,0.1881 l -3.86625,0 c 0.564,-0.481 1.83937,-1.8204 2.38237,-2.3228 3.17725,-2.9298 4.34813,-4.0176 4.34813,-6.0894 0,-2.4067 -1.90388,-4.0196 -4.33013,-4.0196 -2.42625,0 -3.84862,2.0772 -3.84862,3.8814 0,1.0699 0.92187,1.0699 0.98437,1.0699 0.4405,0 0.98538,-0.3146 0.98538,-0.9849 0,-0.5864 -0.3975,-0.9849 -0.98238,-0.9849 -0.188,0 -0.2295,0 -0.2925,0 0.3975,-1.4199 1.52738,-2.3799 2.88713,-2.3799 1.77837,0 2.86775,1.4868 2.86775,3.4137 0,1.7797 -1.02688,3.3295 -2.22075,4.6698 l -4.229,4.7329 0,0.5025 7.63425,0" />
    <path
       id="path2961"
       style="fill:#000000;fill-opacity:1;fill-rule:nonzero;stroke:none"
       d="m 570.71746,1161.8882 c 0.50875,0 1.04625,0 1.04625,-0.5977 0,-0.5977 -0.5375,-0.5977 -1.04625,-0.5977 l -16.16875,0 c -0.50875,0 -1.04625,0 -1.04625,0.5977 0,0.5977 0.5375,0.5977 1.04625,0.5977" />
    <path
       id="path2963"
       style="fill:#000000;fill-opacity:1;fill-rule:nonzero;stroke:none"
       d="m 594.22871,1153.727 c 0,-3.0493 -0.9525,-6.0096 -3.39125,-6.0096 -4.16375,0 -8.595,8.7596 -8.595,15.3368 0,1.375 0.2975,6.0087 3.42,6.0087 4.045,0 8.56625,-8.5497 8.56625,-15.3363 l 0,5e-4 z m -9.02375,4.2198 c 0.44875,-1.7648 1.075,-4.2769 2.27,-6.4009 0.98625,-1.7945 2.03125,-3.231 3.34625,-3.231 0.98625,0 1.645,0.8388 1.645,3.71 0,1.0766 -0.0913,2.5718 -0.9575,5.9219 l -6.30375,0 z m 6.09625,0.8964 c -0.74875,2.9287 -1.37625,4.8116 -2.4525,6.6939 -0.8675,1.524 -1.91375,2.9282 -3.17,2.9282 -0.92625,0 -1.67375,-0.7168 -1.67375,-3.6753 0,-1.9423 0.4775,-3.9741 0.95625,-5.9468" />
    <path
       id="path2965"
       style="fill:#000000;fill-opacity:1;fill-rule:nonzero;stroke:none"
       d="m 982.8612,1262.6563 c 0.65625,1.795 2.50625,2.1238 3.64,2.1238 2.2675,0 3.61,-1.9738 4.44625,-4.0363 0.685,-1.7337 1.7925,-5.68 1.7925,-7.4437 0,-1.8238 -0.90375,-2.005 -1.165,-2.005 -0.73375,0 -1.405,0.72 -1.405,1.3175 0,0.3587 0.20875,0.5687 0.35875,0.6875 0.26875,0.27 1.04625,1.0762 1.04625,2.6312 0,1.0163 -0.8375,3.8263 -1.465,5.2313 -0.8375,1.8237 -1.9425,3.02 -3.4975,3.02 -1.6725,0 -2.21125,-1.2563 -2.21125,-2.6313 0,-0.8675 0.26875,-1.9125 0.38875,-2.4212 l 1.255,-5.0225 c 0.15,-0.5975 0.41875,-1.6438 0.41875,-1.7638 0,-0.4487 -0.35875,-0.75 -0.8075,-0.75 -0.86625,0 -1.075,0.75 -1.255,1.4675 -0.29375,1.1663 -1.52875,6.2188 -1.64625,6.8763 -0.1175,0.5075 -0.1175,0.8362 -0.1175,1.4937 0,0.7175 -0.9625,1.8538 -0.9925,1.9138 -0.33125,0.3287 -0.8125,0.8375 -1.745,0.8375 -2.3775,0 -2.3775,-2.2425 -2.3775,-2.7513 0,-0.9562 0.21,-2.2712 1.555,-5.8287 0.35875,-0.9275 0.5075,-1.3163 0.5075,-1.9138 0,-1.255 -0.89625,-2.3937 -2.36,-2.3937 -2.7475,0 -3.8525,4.3375 -3.8525,4.5762 0,0.12 0.12,0.2688 0.32875,0.2688 0.26875,0 0.2975,-0.1188 0.4175,-0.5375 0.74625,-2.6325 1.91125,-3.71 3.01625,-3.71 0.29875,0 0.77625,0.033 0.77625,0.9887 0,0.15 0,0.7775 -0.50125,2.0925 -1.385,3.7375 -1.68,4.9638 -1.68,6.0988 0,3.14 2.565,3.7075 4.0875,3.7075 0.5075,0 1.85,0 3.0425,-2.1238" />
    <path
       id="path2967"
       style="fill:#000000;fill-opacity:1;fill-rule:nonzero;stroke:none"
       d="m 1006.6475,1257.0026 c 0,-0.8663 -0.7163,-1.5838 -1.5838,-1.5838 -0.8662,0 -1.5837,0.7175 -1.5837,1.5838 0,0.8662 0.7175,1.5837 1.5837,1.5837 0.8675,0 1.5838,-0.7175 1.5838,-1.5837" />
    <path
       id="path2969"
       style="fill:#000000;fill-opacity:1;fill-rule:nonzero;stroke:none"
       d="m 1026.3462,1254.0163 c -0.57,0 -1.4087,0 -1.4087,1.0463 0,0.8362 0.6875,1.0762 1.0762,1.0762 0.2088,0 1.0763,-0.09 1.0763,-1.1362 0,-2.1225 -2.0338,-3.7375 -4.3325,-3.7375 -3.165,0 -5.8525,2.9312 -5.8525,6.7587 0,3.9763 2.8075,6.6963 5.855,6.6963 3.705,0 4.6325,-3.4375 4.6325,-3.7663 0,-0.12 -0.03,-0.2112 -0.24,-0.2112 -0.2088,0 -0.2388,0.031 -0.3588,0.4187 -0.7762,2.4225 -2.4787,3.02 -3.7637,3.02 -1.9113,0 -4.2125,-1.7625 -4.2125,-6.1875 0,-4.5437 2.21,-6.1912 3.9725,-6.1912 1.165,0 2.8975,0.5687 3.5562,2.2137" />
    <path
       id="path2971"
       style="fill:#000000;fill-opacity:1;fill-rule:nonzero;stroke:none"
       d="m 1040.95,1258.0826 c 0,-3.8263 -2.78,-6.8175 -6.0375,-6.8175 -3.2575,0 -6.0375,2.9912 -6.0375,6.8175 0,3.7662 2.78,6.6375 6.0375,6.6375 3.2575,0 6.0375,-2.8713 6.0375,-6.6375 z m -6.0375,6.0987 c -1.405,0 -2.6,-0.8362 -3.2875,-2.0025 -0.7475,-1.345 -0.8375,-3.0187 -0.8375,-4.335 0,-1.255 0.06,-2.81 0.8375,-4.155 0.5975,-0.9862 1.7637,-1.9462 3.2875,-1.9462 1.345,0 2.4812,0.75 3.1975,1.7962 0.9275,1.405 0.9275,3.3788 0.9275,4.305 0,1.1663 -0.06,2.96 -0.8675,4.395 -0.8363,1.375 -2.1225,1.9425 -3.2575,1.9425" />
    <path
       id="path2973"
       style="fill:#000000;fill-opacity:1;fill-rule:nonzero;stroke:none"
       d="m 1050.95,1251.8638 c 0,-0.5387 -0.03,-0.5687 -0.2088,-0.5687 -0.12,0 -0.15,0.03 -0.5087,0.48 -0.089,0.12 -0.3575,0.42 -0.4475,0.54 -0.9563,-0.99 -2.3013,-1.02 -2.8088,-1.02 -3.3175,0 -4.5125,1.7262 -4.5125,3.4525 0,2.6787 3.0488,3.3037 3.9163,3.4812 1.8825,0.3875 2.54,0.5063 3.1675,1.0425 0.3887,0.3575 1.0475,1.0113 1.0475,2.0825 0,1.25 -0.7188,2.8563 -3.4688,2.8563 -2.6,0 -3.5262,-1.96 -4.0637,-4.5738 -0.09,-0.4162 -0.09,-0.4475 -0.33,-0.4475 -0.2388,0 -0.2688,0.031 -0.2688,0.6288 l 0,4.3037 c 0,0.5375 0.03,0.5675 0.21,0.5675 0.1488,0 0.1788,-0.03 0.3288,-0.2687 0.1787,-0.2688 0.6275,-0.9863 0.8062,-1.285 0.5988,0.7912 1.645,1.5537 3.3175,1.5537 2.9588,0 4.545,-1.6075 4.545,-3.9275 0,-1.5187 -0.8087,-2.3212 -1.1975,-2.6787 -0.8962,-0.9225 -1.9425,-1.13 -3.1975,-1.3688 -1.6437,-0.3575 -3.7362,-0.7737 -3.7362,-2.5887 0,-0.7738 0.4187,-2.4113 3.4362,-2.4113 3.1963,0 3.375,2.97 3.435,3.92 0.03,0.1488 0.1788,0.1788 0.2688,0.1788 0.2712,0 0.2712,-0.09 0.2712,-0.5988" />
    <path
       id="path2975"
       style="fill:#000000;fill-opacity:1;fill-rule:nonzero;stroke:none"
       d="m 1070.6737,1249.4426 c 0,-3.0488 -0.9525,-6.0088 -3.3912,-6.0088 -4.1638,0 -8.595,8.7588 -8.595,15.3363 0,1.375 0.2975,6.0087 3.42,6.0087 4.045,0 8.5662,-8.55 8.5662,-15.3362 z m -9.0237,4.2212 c 0.4487,-1.765 1.075,-4.2762 2.27,-6.4012 0.9862,-1.7938 2.0312,-3.23 3.3462,-3.23 0.9863,0 1.645,0.8375 1.645,3.71 0,1.0762 -0.091,2.5712 -0.9575,5.9212 l -6.3037,0 z m 6.0962,0.895 c -0.7475,2.9288 -1.3762,4.8125 -2.4525,6.695 -0.8675,1.5225 -1.9137,2.9275 -3.17,2.9275 -0.9262,0 -1.6737,-0.7175 -1.6737,-3.6762 0,-1.9413 0.4775,-3.9738 0.9562,-5.9463" />
    <path
       id="path2977"
       style="fill:#000000;fill-opacity:1;fill-rule:nonzero;stroke:none"
       d="m 1319.6867,1091.3099 c 0.6562,1.795 2.5062,2.1238 3.64,2.1238 2.2675,0 3.61,-1.9738 4.4462,-4.0363 0.685,-1.7337 1.7925,-5.68 1.7925,-7.4437 0,-1.8238 -0.9037,-2.005 -1.165,-2.005 -0.7337,0 -1.405,0.72 -1.405,1.3175 0,0.3587 0.2088,0.5687 0.3588,0.6875 0.2687,0.27 1.0462,1.0762 1.0462,2.6312 0,1.0163 -0.8375,3.8263 -1.465,5.2313 -0.8375,1.8237 -1.9425,3.02 -3.4975,3.02 -1.6725,0 -2.2112,-1.2563 -2.2112,-2.6313 0,-0.8675 0.2687,-1.9125 0.3887,-2.4212 l 1.255,-5.0225 c 0.15,-0.5975 0.4188,-1.6438 0.4188,-1.7638 0,-0.4487 -0.3588,-0.75 -0.8075,-0.75 -0.8663,0 -1.075,0.75 -1.255,1.4675 -0.2938,1.1663 -1.5288,6.2188 -1.6463,6.8763 -0.1175,0.5075 -0.1175,0.8362 -0.1175,1.4937 0,0.7175 -0.9625,1.8538 -0.9925,1.9138 -0.3312,0.3287 -0.8125,0.8375 -1.745,0.8375 -2.3775,0 -2.3775,-2.2425 -2.3775,-2.7513 0,-0.9562 0.21,-2.2712 1.555,-5.8287 0.3588,-0.9275 0.5075,-1.3163 0.5075,-1.9138 0,-1.255 -0.8962,-2.3937 -2.36,-2.3937 -2.7475,0 -3.8525,4.3375 -3.8525,4.5762 0,0.12 0.12,0.2688 0.3288,0.2688 0.2687,0 0.2975,-0.1188 0.4175,-0.5375 0.7462,-2.6325 1.9112,-3.71 3.0162,-3.71 0.2988,0 0.7763,0.033 0.7763,0.9887 0,0.15 0,0.7775 -0.5013,2.0925 -1.385,3.7375 -1.68,4.9638 -1.68,6.0988 0,3.14 2.565,3.7075 4.0875,3.7075 0.5075,0 1.85,0 3.0425,-2.1238" />
    <path
       id="path2979"
       style="fill:#000000;fill-opacity:1;fill-rule:nonzero;stroke:none"
       d="m 1343.4729,1085.6562 c 0,-0.8663 -0.7162,-1.5838 -1.5837,-1.5838 -0.8663,0 -1.5838,0.7175 -1.5838,1.5838 0,0.8662 0.7175,1.5837 1.5838,1.5837 0.8675,0 1.5837,-0.7175 1.5837,-1.5837" />
    <path
       id="path2981"
       style="fill:#000000;fill-opacity:1;fill-rule:nonzero;stroke:none"
       d="m 1361.8267,1080.5174 c 0,-0.5387 -0.031,-0.5687 -0.21,-0.5687 -0.12,0 -0.15,0.03 -0.5088,0.48 -0.089,0.12 -0.3575,0.42 -0.4475,0.54 -0.9562,-0.99 -2.3012,-1.02 -2.8087,-1.02 -3.3163,0 -4.5125,1.7262 -4.5125,3.4525 0,2.6787 3.0487,3.3037 3.9162,3.4812 1.8825,0.3875 2.54,0.5063 3.1675,1.0425 0.3888,0.3575 1.0488,1.0113 1.0488,2.0825 0,1.25 -0.72,2.8563 -3.4688,2.8563 -2.6012,0 -3.5275,-1.96 -4.065,-4.5738 -0.09,-0.4162 -0.09,-0.4475 -0.3287,-0.4475 -0.24,0 -0.27,0.031 -0.27,0.6288 l 0,4.3037 c 0,0.5375 0.03,0.5675 0.21,0.5675 0.1487,0 0.1787,-0.03 0.3287,-0.2687 0.1788,-0.2688 0.6275,-0.9863 0.8075,-1.285 0.5975,0.7912 1.6425,1.5537 3.3175,1.5537 2.9588,0 4.5438,-1.6075 4.5438,-3.9275 0,-1.5187 -0.8088,-2.3212 -1.1963,-2.6787 -0.8975,-0.9225 -1.9437,-1.13 -3.1987,-1.3688 -1.6438,-0.3575 -3.7363,-0.7737 -3.7363,-2.5887 0,-0.7738 0.4188,-2.4113 3.435,-2.4113 3.1975,0 3.3763,2.97 3.4363,3.92 0.03,0.1488 0.1787,0.1788 0.2687,0.1788 0.2713,0 0.2713,-0.09 0.2713,-0.5988" />
    <path
       id="path2983"
       style="fill:#000000;fill-opacity:1;fill-rule:nonzero;stroke:none"
       d="m 1368.0229,1074.7224 c 0,-0.6575 -0.5387,-1.225 -1.2262,-1.225 -0.6575,0 -1.225,0.5375 -1.225,1.225 0,0.6575 0.5375,1.2263 1.225,1.2263 0.6575,0 1.2262,-0.5388 1.2262,-1.2263 z m -3.4975,5.6438 0,0.7762 c 1.6763,0 1.915,0.1813 1.915,1.6163 l 0,8.31 c 0,1.1362 -0.12,1.2862 -2.0337,1.2862 l 0,0.7763 c 0.7162,-0.059 2.0025,-0.059 2.75,-0.059 0.7162,0 1.9425,0 2.6287,0.059 l 0,-0.7763 c -1.7612,0 -1.8212,-0.18 -1.8212,-1.2562 l 0,-11.0613" />
    <path
       id="path2985"
       style="fill:#000000;fill-opacity:1;fill-rule:nonzero;stroke:none"
       d="m 1383.2954,1084.0437 c 0,-1.525 -0.3012,-4.0063 -3.8275,-4.0063 -2.3612,0 -3.5862,1.825 -4.035,3.0225 l -0.03,0 0,-3.0225 -3.5262,0.33 0,0.7763 c 1.7637,0 2.0337,0.18 2.0337,1.615 l 0,8.3112 c 0,1.135 -0.12,1.285 -2.0337,1.285 l 0,0.7775 c 0.7175,-0.06 2.0325,-0.06 2.8087,-0.06 0.7775,0 2.1225,0 2.84,0.06 l 0,-0.7775 c -1.9112,0 -2.0312,-0.12 -2.0312,-1.285 l 0,-5.7412 c 0,-2.75 1.6737,-4.8138 3.7662,-4.8138 2.2125,0 2.4513,1.975 2.4513,3.41 l 0,7.145 c 0,1.135 -0.12,1.285 -2.035,1.285 l 0,0.7775 c 0.7175,-0.06 2.0325,-0.06 2.81,-0.06 0.7775,0 2.1225,0 2.84,0.06 l 0,-0.7775 c -1.9113,0 -2.0313,-0.12 -2.0313,-1.285" />
    <path
       id="path2987"
       style="fill:#000000;fill-opacity:1;fill-rule:nonzero;stroke:none"
       d="m 1404.3342,1078.0962 c 0,-3.0488 -0.9525,-6.0088 -3.3913,-6.0088 -4.1637,0 -8.595,8.7588 -8.595,15.3363 0,1.375 0.2975,6.0087 3.42,6.0087 4.045,0 8.5663,-8.55 8.5663,-15.3362 z m -9.0238,4.2212 c 0.4488,-1.765 1.0763,-4.2762 2.27,-6.4012 0.9863,-1.7938 2.0313,-3.23 3.3463,-3.23 0.9862,0 1.645,0.8375 1.645,3.71 0,1.0762 -0.091,2.5712 -0.9575,5.9212 l -6.3038,0 z m 6.0963,0.895 c -0.7475,2.9288 -1.3763,4.8125 -2.4525,6.695 -0.8663,1.5225 -1.9138,2.9275 -3.17,2.9275 -0.9263,0 -1.675,-0.7175 -1.675,-3.6762 0,-1.9413 0.4787,-3.9738 0.9575,-5.9463" />
    <path
       id="path2989"
       style="fill:#000000;fill-opacity:1;fill-rule:nonzero;stroke:none"
       d="m 576.64908,1242.9507 c 0.03,-0.12 0.09,-0.2987 0.09,-0.4487 0,-0.3 -0.2975,-0.3 -0.3575,-0.3 -0.03,0 -1.49125,0.1187 -1.64,0.1487 -0.50625,0.03 -0.95375,0.09 -1.49,0.12 -0.745,0.06 -0.95375,0.09 -0.95375,0.6275 0,0.2988 0.2375,0.2988 0.655,0.2988 1.46125,0 1.49125,0.2725 1.49125,0.5712 0,0.18 -0.06,0.4188 -0.09,0.5088 l -4.32125,17.305 c -0.12,0.4487 -0.12,0.5075 -0.12,0.6875 0,0.6575 0.50875,0.7775 0.8075,0.7775 0.5075,0 0.89625,-0.3888 1.045,-0.7175 l 1.34625,-5.4113 c 0.14875,-0.6575 0.3275,-1.2862 0.4775,-1.9437 0.32875,-1.255 0.32875,-1.285 0.89625,-2.1525 0.5675,-0.8663 1.91375,-2.6638 4.215,-2.6638 1.195,0 1.61375,0.9 1.61375,2.0963 0,1.6737 -1.1675,4.9325 -1.825,6.7262 -0.26875,0.7175 -0.41875,1.1063 -0.41875,1.6438 0,1.3462 0.9275,2.4225 2.36125,2.4225 2.78,0 3.8275,-4.395 3.8275,-4.575 0,-0.1488 -0.12,-0.2688 -0.3,-0.2688 -0.26875,0 -0.29875,0.09 -0.44875,0.5988 -0.6875,2.3912 -1.7925,3.6462 -2.98875,3.6462 -0.29875,0 -0.7775,-0.03 -0.7775,-0.9862 0,-0.7775 0.35375,-1.7338 0.4725,-2.0625 0.53125,-1.435 1.86125,-4.9625 1.86125,-6.6963 0,-1.795 -1.0475,-3.1425 -3.3125,-3.1425 -1.69875,0 -3.18875,0.8088 -4.41125,2.365" />
    <path
       id="path2991"
       style="fill:#000000;fill-opacity:1;fill-rule:nonzero;stroke:none"
       d="m 597.38783,1255.4695 c 0,-0.8663 -0.71875,-1.5838 -1.585,-1.5838 -0.86625,0 -1.58375,0.7175 -1.58375,1.5838 0,0.8662 0.7175,1.5837 1.58375,1.5837 0.86625,0 1.585,-0.7175 1.585,-1.5837" />
    <path
       id="path2993"
       style="fill:#000000;fill-opacity:1;fill-rule:nonzero;stroke:none"
       d="m 617.08533,1252.4832 c -0.57,0 -1.40875,0 -1.40875,1.0463 0,0.8362 0.6875,1.0762 1.07625,1.0762 0.20875,0 1.075,-0.09 1.075,-1.1362 0,-2.1225 -2.0325,-3.7375 -4.33125,-3.7375 -3.165,0 -5.8525,2.9312 -5.8525,6.7587 0,3.9763 2.80875,6.6963 5.855,6.6963 3.705,0 4.6325,-3.4375 4.6325,-3.7663 0,-0.12 -0.0312,-0.2112 -0.24,-0.2112 -0.20875,0 -0.23875,0.031 -0.35875,0.4187 -0.77625,2.4225 -2.47875,3.02 -3.76375,3.02 -1.91125,0 -4.21125,-1.7625 -4.21125,-6.1875 0,-4.5437 2.21,-6.1912 3.97125,-6.1912 1.165,0 2.8975,0.5687 3.55625,2.2137" />
    <path
       id="path2995"
       style="fill:#000000;fill-opacity:1;fill-rule:nonzero;stroke:none"
       d="m 631.68908,1256.5495 c 0,-3.8263 -2.78,-6.8175 -6.0375,-6.8175 -3.2575,0 -6.0375,2.9912 -6.0375,6.8175 0,3.7662 2.78,6.6375 6.0375,6.6375 3.2575,0 6.0375,-2.8713 6.0375,-6.6375 z m -6.0375,6.0987 c -1.405,0 -2.6,-0.8362 -3.2875,-2.0025 -0.7475,-1.345 -0.8375,-3.0187 -0.8375,-4.335 0,-1.255 0.06,-2.81 0.8375,-4.155 0.5975,-0.9862 1.7625,-1.9462 3.2875,-1.9462 1.345,0 2.48125,0.75 3.19875,1.7962 0.92625,1.405 0.92625,3.3788 0.92625,4.305 0,1.1663 -0.06,2.96 -0.8675,4.395 -0.83625,1.375 -2.12125,1.9425 -3.2575,1.9425" />
    <path
       id="path2997"
       style="fill:#000000;fill-opacity:1;fill-rule:nonzero;stroke:none"
       d="m 641.68908,1250.3307 c 0,-0.5387 -0.03,-0.5687 -0.20875,-0.5687 -0.12,0 -0.15,0.03 -0.5075,0.48 -0.09,0.12 -0.36,0.42 -0.44875,0.54 -0.95625,-0.99 -2.30125,-1.02 -2.80875,-1.02 -3.31625,0 -4.5125,1.7262 -4.5125,3.4525 0,2.6787 3.04875,3.3037 3.91625,3.4812 1.8825,0.3875 2.54,0.5063 3.1675,1.0425 0.38875,0.3575 1.0475,1.0113 1.0475,2.0825 0,1.25 -0.71875,2.8563 -3.46875,2.8563 -2.6,0 -3.52625,-1.96 -4.065,-4.5738 -0.0887,-0.4162 -0.0887,-0.4475 -0.3275,-0.4475 -0.24,0 -0.27,0.031 -0.27,0.6275 l 0,4.305 c 0,0.5375 0.03,0.5675 0.21,0.5675 0.14875,0 0.17875,-0.03 0.32875,-0.2687 0.17875,-0.2688 0.6275,-0.9863 0.8075,-1.285 0.5975,0.7912 1.6425,1.5537 3.31625,1.5537 2.96,0 4.545,-1.6075 4.545,-3.9275 0,-1.5187 -0.80875,-2.3212 -1.19625,-2.6787 -0.8975,-0.9225 -1.94375,-1.13 -3.19875,-1.3688 -1.64375,-0.3575 -3.73625,-0.7737 -3.73625,-2.5887 0,-0.7738 0.41875,-2.4113 3.43625,-2.4113 3.19625,0 3.375,2.97 3.435,3.92 0.03,0.1488 0.18,0.1788 0.26875,0.1788 0.27,0 0.27,-0.09 0.27,-0.5988" />
    <path
       id="path2999"
       style="fill:#000000;fill-opacity:1;fill-rule:nonzero;stroke:none"
       d="m 660.56283,1273.1307 c 0,-0.12 -0.0613,-0.1787 -0.12125,-0.2687 -1.37375,-1.4638 -3.405,-3.885 -4.66,-8.755 -0.68625,-2.7188 -0.95625,-5.7975 -0.95625,-8.5763 0,-7.8587 1.8825,-13.3562 5.4675,-17.2412 0.27,-0.2688 0.27,-0.3288 0.27,-0.3875 0,-0.3063 -0.24,-0.3063 -0.35875,-0.3063 -0.44875,0 -2.06125,1.8 -2.45,2.2488 -3.04875,3.615 -4.99,8.9937 -4.99,15.6575 0,4.2425 0.74625,10.2487 4.66125,15.2987 0.29875,0.3575 2.24125,2.6288 2.77875,2.6288 0.11875,0 0.35875,0 0.35875,-0.2988" />
    <path
       id="path3001"
       style="fill:#000000;fill-opacity:1;fill-rule:nonzero;stroke:none"
       d="m 668.78783,1243.3582 2.36375,0 c -0.5625,2.3438 -0.915,3.8713 -0.915,5.545 0,0.2938 0,2.5525 0.855,2.5525 0.4375,0 0.8125,-0.3975 0.8125,-0.7525 0,-0.105 0,-0.1475 -0.145,-0.46 -0.56125,-1.445 -0.56125,-3.2437 -0.56125,-3.39 0,-0.1262 0,-1.6112 0.43875,-3.495 l 2.34,0 c 0.27125,0 0.96125,0 0.96125,-0.6675 0,-0.46 -0.3975,-0.46 -0.77375,-0.46 l -6.88375,0 c -0.48125,0 -1.1925,0 -2.155,1.025 -0.54375,0.6063 -1.2125,1.7138 -1.2125,1.8388 0,0.1262 0.105,0.1675 0.23,0.1675 0.14625,0 0.1675,-0.062 0.27125,-0.1888 1.08875,-1.715 2.17625,-1.715 2.69875,-1.715 l 1.1925,0 c -0.46,1.57 -0.9825,3.39 -2.69875,7.0513 -0.1675,0.335 -0.1675,0.3775 -0.1675,0.5025 0,0.44 0.3775,0.5437 0.565,0.5437 0.6075,0 0.775,-0.5437 1.025,-1.4225 0.335,-1.0675 0.335,-1.1087 0.54375,-1.945" />
    <rect
       x="663.34656"
       y="-1256.0607"
       width="12.45"
       height="1.2"
       transform="scale(1,-1)"
       style="fill:#000000;fill-opacity:1;fill-rule:nonzero"
       id="rect3005" />
    <path
       id="path3007"
       style="fill:#000000;fill-opacity:1;fill-rule:nonzero;stroke:none"
       d="m 673.61908,1269.7807 -0.46125,0 c -0.0625,0.3563 -0.23,1.5038 -0.43875,1.8388 -0.14625,0.1875 -1.3375,0.1875 -1.965,0.1875 l -3.86625,0 c 0.565,-0.4813 1.83875,-1.82 2.3825,-2.3225 3.1775,-2.93 4.34875,-4.0175 4.34875,-6.09 0,-2.4063 -1.905,-4.0188 -4.33125,-4.0188 -2.42625,0 -3.8475,2.0763 -3.8475,3.8813 0,1.07 0.92125,1.07 0.98375,1.07 0.44,0 0.98625,-0.315 0.98625,-0.985 0,-0.5863 -0.3975,-0.985 -0.9825,-0.985 -0.18875,0 -0.23,0 -0.2925,0 0.3975,-1.42 1.5275,-2.38 2.88625,-2.38 1.77875,0 2.86875,1.4862 2.86875,3.4137 0,1.78 -1.0275,3.33 -2.22125,4.67 l -4.22875,4.7325 0,0.5025 7.63375,0" />
    <path
       id="path3009"
       style="fill:#000000;fill-opacity:1;fill-rule:nonzero;stroke:none"
       d="m 703.61783,1256.0707 c 0.5075,0 1.045,0 1.045,-0.5975 0,-0.5975 -0.5375,-0.5975 -1.045,-0.5975 l -16.17,0 c -0.50875,0 -1.04625,0 -1.04625,0.5975 0,0.5975 0.5375,0.5975 1.04625,0.5975" />
    <path
       id="path3011"
       style="fill:#000000;fill-opacity:1;fill-rule:nonzero;stroke:none"
       d="m 726.97783,1247.9095 c 0,-3.0488 -0.9525,-6.0088 -3.39125,-6.0088 -4.16375,0 -8.595,8.7588 -8.595,15.3363 0,1.375 0.29625,6.0087 3.42,6.0087 4.045,0 8.56625,-8.55 8.56625,-15.3362 z m -9.025,4.2212 c 0.44875,-1.765 1.075,-4.2762 2.27,-6.4012 0.98625,-1.7938 2.03125,-3.23 3.34625,-3.23 0.985,0 1.645,0.8375 1.645,3.71 0,1.0762 -0.0913,2.5712 -0.95875,5.9212 l -6.3025,0 z m 6.0975,0.895 c -0.7475,2.9288 -1.37625,4.8125 -2.4525,6.695 -0.8675,1.5225 -1.91375,2.9275 -3.17,2.9275 -0.92625,0 -1.67375,-0.7175 -1.67375,-3.6762 0,-1.9413 0.4775,-3.9738 0.95625,-5.9463" />
    <path
       id="path3013"
       style="fill:#000000;fill-opacity:1;fill-rule:nonzero;stroke:none"
       d="m 737.28158,1255.5307 c 0,-4.2425 -0.74625,-10.2487 -4.66,-15.2987 -0.29875,-0.3575 -2.24125,-2.635 -2.77875,-2.635 -0.14875,0 -0.35875,0.06 -0.35875,0.3 0,0.1187 0.06,0.2087 0.18,0.2987 1.43375,1.5588 3.375,3.9788 4.59875,8.73 0.6875,2.7188 0.95625,5.7963 0.95625,8.5763 0,3.0175 -0.26875,6.065 -1.045,8.9937 -1.135,4.1825 -2.8975,6.5738 -4.42,8.2463 -0.27,0.2687 -0.27,0.3287 -0.27,0.3887 0,0.2388 0.21,0.2988 0.35875,0.2988 0.44875,0 2.09125,-1.8225 2.45,-2.2413 3.04625,-3.615 4.98875,-8.9937 4.98875,-15.6575" />
    <path
       id="path3015"
       style="fill:#000000;fill-opacity:1;fill-rule:nonzero;stroke:none"
       d="m 1313.4243,840.22065 c 0.03,-0.12 0.09,-0.29875 0.09,-0.44875 0,-0.3 -0.2987,-0.3 -0.3575,-0.3 -0.03,0 -1.4912,0.11875 -1.64,0.14875 -0.5062,0.03 -0.9537,0.09 -1.49,0.12 -0.745,0.06 -0.9537,0.09 -0.9537,0.6275 0,0.29875 0.2387,0.29875 0.655,0.29875 1.4612,0 1.4912,0.2725 1.4912,0.57125 0,0.18 -0.06,0.41875 -0.09,0.50875 l -4.3212,17.30501 c -0.12,0.44874 -0.12,0.5075 -0.12,0.6875 0,0.6575 0.5075,0.7775 0.8075,0.7775 0.5075,0 0.8962,-0.38875 1.0462,-0.7175 l 1.3438,-5.41125 c 0.15,-0.6575 0.33,-1.28625 0.4787,-1.94375 0.3288,-1.255 0.3288,-1.28501 0.8963,-2.1525 0.5687,-0.86625 1.9137,-2.6625 4.215,-2.6625 1.195,0 1.6137,0.89875 1.6137,2.095 0,1.67375 -1.1675,4.9325 -1.825,6.72624 -0.2687,0.71751 -0.4187,1.10626 -0.4187,1.64375 0,1.34625 0.9262,2.4225 2.3612,2.4225 2.7813,0 3.8275,-4.395 3.8275,-4.575 0,-0.14875 -0.12,-0.26875 -0.3,-0.26875 -0.2687,0 -0.2987,0.09 -0.4487,0.59875 -0.6875,2.39125 -1.7925,3.64625 -2.9888,3.64625 -0.2987,0 -0.7775,-0.03 -0.7775,-0.98625 0,-0.7775 0.355,-1.73375 0.4725,-2.0625 0.5313,-1.435 1.86,-4.9625 1.86,-6.69625 0,-1.795 -1.045,-3.1425 -3.3112,-3.1425 -1.6988,0 -3.1888,0.80875 -4.4113,2.365" />
    <path
       id="path3017"
       style="fill:#000000;fill-opacity:1;fill-rule:nonzero;stroke:none"
       d="m 1334.3281,852.73941 c 0,-0.86625 -0.7175,-1.58375 -1.585,-1.58375 -0.8663,0 -1.5838,0.7175 -1.5838,1.58375 0,0.86625 0.7175,1.58375 1.5838,1.58375 0.8675,0 1.585,-0.7175 1.585,-1.58375" />
    <path
       id="path3019"
       style="fill:#000000;fill-opacity:1;fill-rule:nonzero;stroke:none"
       d="m 1354.0256,849.75315 c -0.57,0 -1.4088,0 -1.4088,1.04625 0,0.83625 0.6875,1.07625 1.0763,1.07625 0.2087,0 1.0762,-0.09 1.0762,-1.13625 0,-2.12249 -2.0337,-3.7375 -4.3325,-3.7375 -3.165,0 -5.8525,2.93125 -5.8525,6.75875 0,3.97625 2.8075,6.69625 5.855,6.69625 3.705,0 4.6325,-3.4375 4.6325,-3.76625 0,-0.12 -0.031,-0.21124 -0.24,-0.21124 -0.2087,0 -0.2387,0.0312 -0.3587,0.41875 -0.7763,2.42249 -2.4788,3.02 -3.7638,3.02 -1.9112,0 -4.2125,-1.76251 -4.2125,-6.1875 0,-4.54375 2.21,-6.19125 3.9725,-6.19125 1.165,0 2.8975,0.56874 3.5563,2.21375" />
    <path
       id="path3021"
       style="fill:#000000;fill-opacity:1;fill-rule:nonzero;stroke:none"
       d="m 1368.6293,853.8194 c 0,-3.82625 -2.78,-6.8175 -6.0375,-6.8175 -3.2575,0 -6.0375,2.99125 -6.0375,6.8175 0,3.76625 2.78,6.6375 6.0375,6.6375 3.2575,0 6.0375,-2.87125 6.0375,-6.6375 z m -6.0375,6.09876 c -1.405,0 -2.6,-0.83626 -3.2875,-2.0025 -0.7475,-1.34501 -0.8375,-3.01876 -0.8375,-4.335 0,-1.25501 0.06,-2.81 0.8375,-4.15501 0.5975,-0.98624 1.7638,-1.94625 3.2875,-1.94625 1.345,0 2.4813,0.75001 3.1975,1.79626 0.9263,1.40499 0.9263,3.37874 0.9263,4.305 0,1.16625 -0.059,2.96 -0.8663,4.395 -0.8362,1.375 -2.1225,1.9425 -3.2575,1.9425" />
    <path
       id="path3023"
       style="fill:#000000;fill-opacity:1;fill-rule:nonzero;stroke:none"
       d="m 1378.6293,847.60066 c 0,-0.53875 -0.03,-0.56875 -0.2087,-0.56875 -0.12,0 -0.15,0.03 -0.5075,0.48 -0.09,0.12 -0.3588,0.42 -0.4488,0.54 -0.9562,-0.99 -2.3012,-1.02 -2.8087,-1.02 -3.3163,0 -4.5125,1.72625 -4.5125,3.4525 0,2.67875 3.0487,3.30375 3.9162,3.48125 1.8825,0.3875 2.54,0.50625 3.1675,1.0425 0.3888,0.3575 1.0475,1.01125 1.0475,2.0825 0,1.25 -0.7187,2.85625 -3.4687,2.85625 -2.6,0 -3.5263,-1.96 -4.065,-4.57375 -0.089,-0.41625 -0.089,-0.4475 -0.3275,-0.4475 -0.24,0 -0.27,0.0312 -0.27,0.62875 l 0,4.30375 c 0,0.5375 0.03,0.5675 0.21,0.5675 0.1487,0 0.1787,-0.03 0.3287,-0.26875 0.1788,-0.26875 0.6275,-0.98625 0.8063,-1.285 0.5987,0.79125 1.645,1.55375 3.3175,1.55375 2.96,0 4.545,-1.6075 4.545,-3.9275 0,-1.51875 -0.8088,-2.32125 -1.1975,-2.67875 -0.8963,-0.9225 -1.9425,-1.13 -3.1975,-1.36875 -1.6438,-0.3575 -3.7363,-0.77375 -3.7363,-2.58875 0,-0.77375 0.4188,-2.41125 3.4363,-2.41125 3.1962,0 3.375,2.97 3.435,3.92 0.03,0.14875 0.1787,0.17875 0.2687,0.17875 0.27,0 0.27,-0.09 0.27,-0.59875" />
    <path
       id="path3025"
       style="fill:#000000;fill-opacity:1;fill-rule:nonzero;stroke:none"
       d="m 1398.3531,845.17941 c 0,-3.04876 -0.9525,-6.00876 -3.3913,-6.00876 -4.1637,0 -8.595,8.75875 -8.595,15.33626 0,1.375 0.2975,6.00875 3.42,6.00875 4.045,0 8.5663,-8.55 8.5663,-15.33625 z m -9.025,4.22125 c 0.4487,-1.765 1.075,-4.27625 2.27,-6.40125 0.9862,-1.79376 2.0312,-3.23001 3.3462,-3.23001 0.985,0 1.645,0.8375 1.645,3.71001 0,1.07625 -0.093,2.57125 -0.9587,5.92125 l -6.3025,0 z m 6.0975,0.89499 c -0.7475,2.92876 -1.3763,4.81251 -2.4525,6.69501 -0.8675,1.5225 -1.9138,2.9275 -3.17,2.9275 -0.9263,0 -1.6738,-0.71751 -1.6738,-3.67625 0,-1.94125 0.4775,-3.97375 0.9563,-5.94626" />
    <path
       style="fill:none;stroke:#000000;stroke-width:1px;stroke-linecap:butt;stroke-linejoin:miter;stroke-opacity:1;marker-start:url(#Arrow2Lstart);marker-end:url(#Arrow2Lend)"
       d="m 610.83091,1223.7433 89.60556,0"
       id="path3355" />
    <path
       style="fill:none;stroke:#000000;stroke-width:1px;stroke-linecap:butt;stroke-linejoin:miter;stroke-opacity:1;marker-start:url(#Arrow2Lstart);marker-end:url(#Arrow2Lend)"
       d="m 704.50945,1223.7433 569.40265,0"
       id="path3355-8"
       sodipodi:nodetypes="cc" />
    <path
       style="fill:none;stroke:#000000;stroke-width:1px;stroke-linecap:butt;stroke-linejoin:miter;stroke-opacity:1;marker-start:url(#Arrow2Lstart-3);marker-mid:none;marker-end:url(#Arrow2Lend-2)"
       d="m 1294.4132,752.90685 0,212.60956"
       id="path5023" />
    <path
       style="fill:none;stroke:#000000;stroke-width:1px;stroke-linecap:butt;stroke-linejoin:miter;stroke-opacity:1;marker-start:url(#Arrow2Lstart-3);marker-mid:none;marker-end:url(#Arrow2Lend-2)"
       d="m 1294.4045,969.00672 0,238.52988"
       id="path5023-7"
       sodipodi:nodetypes="cc" />
    <path
       style="fill:none;stroke:#000000;stroke-width:1px;stroke-linecap:butt;stroke-linejoin:miter;stroke-opacity:1;marker-end:url(#marker5917)"
       d="m 600.60857,1160.4149 c 25.80761,0.5148 48.93333,11.3101 70.71068,27.2742"
       id="path3630"
       sodipodi:nodetypes="cc" />
  </g>
</svg>
